/* XPM */
static char *pngegg1674918948[] = {
/* columns rows colors chars-per-pixel */
"73 73 243 2 ",
"   c #140603",
".  c #230C06",
"X  c #2B130E",
"o  c #2C2E36",
"O  c #53150D",
"+  c #781818",
"@  c #750D0B",
"#  c #4D2B12",
"$  c #572C16",
"%  c #563419",
"&  c #513112",
"*  c #77290E",
"=  c #6B2614",
"-  c #6B2916",
";  c #642A19",
":  c #782A16",
">  c #68310F",
",  c #5C3529",
"<  c #5C3727",
"1  c #553E2E",
"2  c #64392B",
"3  c #6D3735",
"4  c #733B37",
"5  c #732C27",
"6  c #701F25",
"7  c #055C06",
"8  c #065E09",
"9  c #0B5B0A",
"0  c #075604",
"q  c #0C5C11",
"w  c #0F530B",
"e  c #0A6109",
"r  c #136116",
"t  c #55461B",
"y  c #6C4A13",
"u  c #5A493A",
"i  c #5A4327",
"p  c #634328",
"a  c #765323",
"s  c #7C5729",
"d  c #674736",
"f  c #744D33",
"g  c #7A6C3F",
"h  c #353A50",
"j  c #793A42",
"k  c #394458",
"l  c #3E4665",
"z  c #55575B",
"x  c #4E4C4C",
"c  c #754A46",
"v  c #685646",
"b  c None",
"n  c None",
"m  c #6B6559",
"M  c #756855",
"N  c #78745C",
"B  c #70614A",
"V  c #454A67",
"C  c #4A577A",
"Z  c #53557C",
"A  c #50546E",
"S  c #6C5962",
"D  c #786B66",
"F  c #7B7B6D",
"G  c #797468",
"H  c #7C7B75",
"J  c #777B76",
"K  c #696A72",
"L  c #890705",
"P  c #970706",
"I  c #831617",
"U  c #8C0D12",
"Y  c #A70204",
"T  c #B50002",
"R  c #BB0004",
"E  c #B9030A",
"W  c #872D1A",
"Q  c #8C341A",
"!  c #883417",
"~  c #94361C",
"^  c #9D3A1B",
"/  c #973717",
"(  c #93310E",
")  c #A23D15",
"_  c #A43D1E",
"`  c #A53919",
"'  c #A9390E",
"]  c #983723",
"[  c #872B22",
"{  c #A33C22",
"}  c #AA3C23",
"|  c #A53929",
" . c #C90202",
".. c #DC0102",
"X. c #D50205",
"o. c #D00411",
"O. c #E50101",
"+. c #EC0001",
"@. c #E5010B",
"#. c #F50201",
"$. c #FC0201",
"%. c #FE030A",
"&. c #F90704",
"*. c #FE0310",
"=. c #8B4B1A",
"-. c #994517",
";. c #925111",
":. c #A64419",
">. c #AA4D12",
",. c #974521",
"<. c #8A4D24",
"1. c #A74225",
"2. c #AD5822",
"3. c #896B33",
"4. c #947410",
"5. c #CF5E0E",
"6. c #D66516",
"7. c #FB7919",
"8. c #E66B13",
"9. c #D06621",
"0. c #FD7A24",
"q. c #89775A",
"w. c #826B54",
"e. c #857766",
"r. c #847D77",
"t. c #846C66",
"y. c #825A5A",
"u. c #47A73D",
"i. c #3EAD47",
"p. c #45AA44",
"a. c #4AAA45",
"s. c #4BAB4A",
"d. c #46A746",
"f. c #4CB14B",
"g. c #7C826D",
"h. c #7B8373",
"j. c #F8801F",
"k. c #82846F",
"l. c #88866F",
"z. c #888778",
"x. c #958A7A",
"c. c #90927A",
"v. c #AC9968",
"b. c #D5BC57",
"n. c #F1BF60",
"m. c #DDC55B",
"M. c #F7DA5C",
"N. c #EBCF58",
"B. c #FDE25B",
"V. c #EED060",
"C. c #FEDC65",
"Z. c #FDDB68",
"A. c #F4D763",
"S. c #F0CD6C",
"D. c #FCE164",
"F. c #CDB21E",
"G. c #4B5682",
"H. c #545783",
"J. c #4E4E83",
"K. c #7DC586",
"L. c #8A8885",
"P. c #979887",
"I. c #989A94",
"U. c #8D9083",
"Y. c #A39B8D",
"T. c #A5A48B",
"R. c #A7A897",
"E. c #ACB299",
"W. c #B4B49B",
"Q. c #B7B295",
"!. c #A9A8A5",
"~. c #B4AEAB",
"^. c #B9B8A5",
"/. c #B9BBB6",
"(. c #B3B0B0",
"). c #9AA490",
"_. c #C0BFBB",
"`. c #C2BCA4",
"'. c #CABC9F",
"]. c #8CC58C",
"[. c #86C98B",
"{. c #89C98C",
"}. c #85C68A",
"|. c #89CC92",
" X c #91C98D",
".X c #BADDB9",
"XX c #BCC3AD",
"oX c #BBE2BE",
"OX c #B7E1BB",
"+X c #C6C5AA",
"@X c #C6C7B7",
"#X c #C5DBBA",
"$X c #DCDDBE",
"%X c #D4D5B9",
"&X c #D0CBB1",
"*X c #C1E1BE",
"=X c #DEE0BB",
"-X c #D3CEAB",
";X c #C3BEC5",
":X c #BDCEC1",
">X c #BDE3C1",
",X c #C9C9C8",
"<X c #C9D5C6",
"1X c #DBDBC3",
"2X c #D7D9D8",
"3X c #C3E2C2",
"4X c #DBE2C4",
"5X c #DCF0DD",
"6X c #E2E3C5",
"7X c #EDEDCD",
"8X c #E6E7C9",
"9X c #F0EDCE",
"0X c #FDFDCF",
"qX c #F1F3CE",
"wX c #E6EED9",
"eX c #F2EDD3",
"rX c #E2F0DF",
"tX c #EDF7D5",
"yX c #F3F3D4",
"uX c #F6FCD6",
"iX c #FDFDD6",
"pX c #F3F3D8",
"aX c #F6FEDB",
"sX c #FEFEDD",
"dX c #FDF5D8",
"fX c #D8DAE1",
"gX c #DDF2E1",
"hX c #DAF8E0",
"jX c #E5EAE6",
"kX c #E3F1E2",
"lX c #EBF6E6",
"zX c #FEFEE2",
"xX c #FEFEE9",
"cX c #F7FAE4",
"vX c #EBEEF1",
"bX c #F5EFF6",
"nX c #F3F3F2",
"mX c #F6FBF6",
"MX c #FBFBF6",
"NX c #F6FDFB",
"BX c None",
"VX c #FBF5F8",
"CX c #EEF7F2",
/* pixels */
"BXBXBXBXBXVXBXBXBXBXBXBXBXBXMXBXBXBXBXBXBXBXBXBXBXBXBXBXBXBXMXMXBXBXBXBXBXVXBXNXBXBXBXBXBXBXBXBXBXBXBXBXBXBXBXBXBXBXBXBXBXBXBXBXBXBXBXBXBXBXBXBXBX",
"BXBXBXBXBXBXBXBXBXBXBXBXBXBXBXBXBXBXBXBXBXBXBXBXBXVXBXBXNXBXBXBXBXMXBXMXMXBXBXMXBXBXBXBXBXBXBXBXBXBXBXBXBXBXBXBXBXBXBXBXBXBXBXBXBXBXBXBXBXBXBXBXBX",
"BXBXBXBXBXBXBXVXBXMXBXBXBXBXBXBXBXBXBXBXBXBXBXBXBXBXBXBXVXBXBXBXBXNXBXBXBXBXBXVXBXBXBXBXBXBXBXBXBXBXBXBXBXBXBXBXBXBXBXBXBXBXBXBXBXBXBXBXBXBXBXBXBX",
"BXBXBXBXBXMXVXBXBXBXBXBXVXBXBXBXBXBXBXBXBXBXBXBXNXBXBXBXBXMXBXMXBXBXBXBXBXBXBXNXBXBXBXBXBXBXBXBXBXBXBXBXBXBXBXBXBXBXBXBXBXBXBXBXBXBXBXBXBXBXBXBXBX",
"BXMXBXBXBXBXBXBXBXNXMXBXBXBXVXBXBXBXBXBXBXBXBXBXBXBXVXBXBXMXBXBXBXBXBXBXBXBXBXMXVXBXBXBXBXBXBXBXBXBXBXBXBXBXBXBXBXBXBXBXBXBXBXBXBXBXBXBXBXBXBXBXBX",
"BXBXBXBXMXBXjXjXfX;X!.L.K A K R.MXBXBXBXBXBXBXBXNXBXBXBXBXNXNXBXnX,X/.,XnXBXBXBXBXBXBXBXBXBXBXBXBXBXBXBXBXBXBXBXBXBXBXBXBXBXBXBXBXBXBXBXBXBXBXBXBX",
"BXBXMXBXBXNXK h h h k h V A h x VXBXBXBXBXBXBXBXMXBXBXBXNXjX~.r.5 [ L + c P.<XVXBXBXBXBXBXBXBXBXBXBXBXBXBXBXBXBXBXBXBXBXBXBXBXBXBXBXBXBXBXBXBXBXBX",
"BXBXBXMXMXBXV x Z C G.G.G.G.l k nXBXBXBXBXBXBXBXBXBXvX/.D 5 P  .+.#.$.$.@.Y + c I.,XMXBXBXBXBXVXBXBXBXBXBXBXBXBXBXBXBXBXBXBXBXBXBXBXBXBXBXBXBXBXBX",
"BXBXBXBXBXNXx V C G.C C H.G.V x bXBXBXBXBXBXBXVX,XL.4 U  .#.$.$.$.$.#.&.$.$.$.O.Y + c z.,XvXNXVXVXBXBXBXBXBXBXVXBXBXBXBXBXBXBXBXBXBXBXBXBXBXVXBXBX",
"BXBXBXBXBXbXz l H.G.C Z H.G.l x nXNXBXBXMXkX!.S I T +.$.&.*.$.&.$.$.$.$.$.$.$.$.$.#...E U 3 r.~.vXNXBXMXMXBXBXBXBXBXBXNXBXBXBXMXBXBXVXBXBXBXBXNXBX",
"BXBXMXBXBXVXz l Z J.G.Z Z J.V k nXmXBXfXL.3 P X.$.$.$.$.$.$.$.$.*.@.R R @.%.&.$.$.$.$.$.&.+. .P 6 D R.2XNXMXBXBXBXBXBXBXBXBXBXBXBXBXBXBXBXBXBXBXBX",
"BXBXBXBXBXMXz V C C G.H.J.Z V x BXBXBX+ E +.&.$.$.#.$.&.#.$.#.X.U [ q.e.2 L X.$.$.$.$.$.$.&.&.#.#.X.Y + c I.,XbXBXBXBXMXBXBXBXBXBXBXBXBXBXBXBXBXBX",
"BXBXMXBXBXBXz l C G.Z C C l l o 4 I  .$.$.&.&.$.$.$.$.$.#. .U v E.4XcXcX8XW.M 6 P X.$.$.#.$.$.#.$.$.#.%.@.Y I d L.XXnXBXBXMXBXBXBXBXBXBXBXBXBXBXBX",
"BXBXBXBXBXBXJ h J.J.J.J.V h O L O.#.$.$.&.$.$.$.$.&.O.T + D XXdXzXzXzXsXaXzXcX4XP.b + T +.$.$.%.&.%.$.#.$.$.#...T P 4 r.,XbXNXNXBXBXBXBXBXBXBXBXBX",
"BXBXBXBXBXBXI.h Z H.l o O E @.&.#.$.$.$.$.$.%.$.+.Y 5 r.%XdXiXiXsXdXzXzXiXsXiX0XzXuX&Xc.d + R +.$.$.$.$.$.$.$.$.&.$.O.E I 3 x.,XVXVXBXBXBXBXBXBXBX",
"BXBXBXBXBXNX(.o k o @ R &.$.&.$.$.$.$.$.$.%. .P 2 P.4XsXzXzXaXzXaXiXiXsXsXsXzXcXsXsXzXzXeXXXe.3 L E #.$.$.#.$.$.%.$.$.$.$.@.Y U n I.jXBXBXBXBXBXBX",
"BXNXBXVXBXNX!.X @  .$.$.#.$.$.$.#.#.$.#. .@ b E.yXiXzXsXsXsXsXsXsXsXsXsXsXsXsXsXsXsXsXsXsXsXuX9X^.t.= P o.$.$.$.%.$.$.$.$.$.&.$.O.P 5 D ;XBXBXBXBX",
"NXVXBXvX(.b U X.$.%.%.#.$.$.$.$.$.&. .= M XXdXiXiXsXsXsXsXsXsXsXzXsXsXsXsXsXsXzXsXsXzXiXsXzXsXuXiXsX4XR.B = Y ..$.$.&.$.$.$.$.$.$.$.#. .@ n !.vXBX",
"BXbX!.c L X.&.$.%.#.$.&.$.$.#.#.Y : q.<XcXzXiXiXsXzXsXsXsXsXzXsXsXsXsXsXsXsXsXsXsXzXzXsXsXsXsXzXsXzXzXzXaX1XP.n @ Y X.#.$.$.$.$.$.$.$.$.%.X.L 4 I.",
"I.c U @.%.&.$.#.%.$.$.#.$...P 2 P.1XcXtXsXzXzXzXzXsXsXsXsXsXsXsXsXsXsXzXsXsXsXsXiXsXsXsXzXiXsXsXdXaXsXsXsXzXzXaX%XP.c + T O.$.$.#.$.$.$.$.$.$.#.L ",
"Y ..$.$.#.$.$.$.$.$.&.X.U c R.eXzXzXzXzXsXsXsXaXsXsXsXsXsXsXsXsXsXsXsXsXsXsXsXsXzXsXsXzXzXsXsXsXiXsXzXzXzXdXiXiXzXdXyX#XU.d L T #.&.$.#.#.$.$.$.+.",
"#.$.$.$.$.$.&.$.+.E + b ^.uXzXcXaXsXsXsXdXsXiXsXsXzXsXsXsXsXsXsXsXsXzXsXsXzXsXsXsXsXiXsXsXsXsXsXaXsXsXiXiXsXzXzXaXzXzXdXiXyX+XL.5 I T +.%.%.$.#. .",
"$.&.$.$.$.$.+.Y 5 e.#XcXzXtXaXdXzXaXuXiXiXsXzXzXsXsXsXsXsXsXsXsXsXsXsXsXsXsXsXsXsXsXsXsXsXsXsXsXzXsXzXzXzXzXzXzXzXuXuXsXzXzXzXaX9X@Xr.3 L T @.#.@ ",
"&.$.$.%.o.L f c.4XdXiXsXzXzXzXsXiXzXzXzXzXsXuXsXsXsXsXsXsXsXsXsXsXsXsXsXsXsXsXsXsXsXzXsXsXzXsXsXaXsXsXsXsXsXsXiXsXzXzXzXaXsXsXsXzXdXuXtXG n j @ t.",
"$.#.o.@ , E.wXzXsXzXzXsX0XiXiXxXsXsXsXsXsXsXsXsXiXaXzXiXzXuXxXzXzXaXzXzXdXzXzXdXsXsXsXsXzXsXsXsXzXsXsXsXsXsXsXsXsXsXsXsXsXsXsXsXzXsXiXzXI./.vX,XvX",
"Y + G L.P.cXsXuXdXpXyXxXiXsXiXiXsXsXzXdXiXiXsXdXaXdXaXqXwX7XwX$X7XzXpXsXsXsXsXzXsXsXsXsXsXsXsXzXsXsXsXsXsXsXsXsXsXsXzXsXsXsXsXsXsXsXiXzXP.@XBXBXBX",
"I.fXNX;XI.zXuXaXzXx.u m m S m m B m n B v z v v n u x d 1 u 1 $ q.sXzXzXsXiXzXiXsXsXsXsXsXsXsXsXsXsXsXsXsXsXsXzXsXsXsXsXsXsXzXsXzXsXsXzXP./.BXBXBX",
"BXNXBX(.T.zXiXsXcXq.> ! W W ! * W W W W Q W W Q Q ( ( ] Q ] ] ~ u pXsXsXsXaXsXsXzXsXsXsXsXsXsXsXsXsXsXsXsXzXsXsXsXsXsXsXsXsXsXsXzXsXiXzXI./.BXMXBX",
"NXMXVX~.E.zXzXzXcXq.W ^ ^ _ / ^ / ^ -.] ~ / / ( W ~ ( / ! ! _ ' v yXaXzXzXiXiXzXsXsXsXsXsXsXsXsXsXsXsXsXsXsXsXsXsXsXsXsXsXsXzXsXsXiXsXzXP.@XBXBXBX",
"NXBXNXR.W.aXdXzXsXe.: # & & & % & & & % % t i i t 2 t t y # Q { p 7XzXzXaXsXsXsXzXsXsXsXsXsXsXsXsXsXsXzXsXsXsXsXzXsXsXsXsXsXsXsXzXsXiXzXU./.BXBXBX",
"BXBXBX!.~.zXsXaXsXN * 3.S.m.m.S.V.V.V.V.V.V.V.A.M.S.Z.Z.V.s ] ^ f 9XsXsXsXzXsXzXsXsXsXsXsXzXzXsXsXsXsXsXsXzXsXsXsXsXsXsXsXsXsXsXzXsXsXzXP.,XBXBXBX",
"BXBXNXI.^.dXiXsXcXe.* 3.C.M.B.Z.D.Z.Z.Z.Z.Z.D.Z.M.Z.A.C.A.a ~ ) 2 9XsXdXsXzXsXsXsXsXsXsXsXsXsXsXsXsXsXsXsXsXsXsXsXsXsXzXsXsXsXsXzXsXiXxXU.XXBXBXBX",
"BXBXVXI.+XsXzXiXsXt.* 3.C.C.C.C.C.C.C.C.C.C.C.C.Z.C.C.C.Z.a ] ^ d eXcXaXsXzXaXzXsXzXsXsXzXzXzXzXzXsXzXzXsXsXsXzXcXxXiXsXxXiXsXsXzXiXiXzXU.,XBXBXBX",
"BXBXBXI.+XsXzXsXsXq.* 3.D.C.Z.M.C.Z.C.C.Z.C.Z.C.Z.C.C.C.Z.a Q ` d 8XsXzXsXdXzXdXtX7X6X1X%X&X+X+X^.W.E.R.R.R.W.^.$XcXiXuXzXsXzXsXzXsXiXzXz.2XBXBXBX",
"BXBXBXU.+XsXsXiXaXt.* 3.M.C.Z.C.C.Z.C.Z.D.C.Z.C.C.M.Z.C.A.a Q _ 2 7XsXiXiXzX8XM d d < 2 < % $ $ = - - - = - - - $ x.aXzXzXdXsXsXsXiXaXzXz.2XBXBXBX",
"BXVXBXL.%XsXzXsXaXe.: s C.C.Z.C.C.D.C.C.Z.C.C.C.C.D.Z.Z.Z.a ~ ` d 8XsXsXsXzX1X# / / ^ ^ ^ ` } } _ { :.} 1._ { _ W B aXiXsXzXaXdXzXsXiXzXz.2XBXBXBX",
"BXBXBXL.%XsXsXiXiXe.: s M.Z.Z.C.Z.C.C.Z.C.C.C.C.Z.C.C.C.A.a ] ^ d 8XaXzXzXiX6X2 { { { :.:.} _ _ _ _ _ _ ^ ` _ _ ~ v aXsXdXsXaXsXzXsXiXzXz.2XBXBXBX",
"BXBXBXz.1XsXzXiXsXe.W a C.Z.Z.C.C.C.C.C.Z.C.Z.C.Z.C.C.C.Z.a ] ^ d qXzXiXsXzX1X, ) ` ` _ ` ) ) ) ` { _ { } { { ` ( v tXiXzXzXzXsXzXiXsXdXH jXBXBXBX",
"BXBXBXH 1XiXzXsXdXe.: a A.Z.Z.C.C.Z.C.Z.C.C.C.C.C.D.C.C.Z.a ~ ` d 7XzXsXiXaX4X2 ^ { 1.{ { { { { _ _ _ ` ` ` :._ / c pXdXsXdXsXiXzXiXiXpXF jXBXBXBX",
"BXBXBXr.6XsXzXiXiXq.: a M.Z.A.C.C.C.C.D.C.Z.C.C.Z.M.C.C.A.a ] ^ f 7XzXsXsXzX=X< ^ _ _ _ _ _ _ _ _ _ :.{ :.] { _ ^ 1 yXiXaXzXxXiXzXsXiXaXe.vXBXBXBX",
"BXBXBXH 6XsXzXiXiXe.W a A.B.C.C.Z.C.C.C.C.C.C.C.D.Z.D.M.A.a ] ^ d 7XzXsXzXzX1X< ` _ _ _ { _ _ _ :._ } { ` :.} { ^ < 8XzXsXiXzXzXiXzXsXyXH nXBXBXBX",
"BXBXBXr.8XsXzXsXzXG ( % v.b.b.b.b.m.b.m.m.m.m.m.m.n.V.V.m.a ] / d aXiXyXzXzX%X< _ _ _ _ _ _ _ _ _ ^ ` :.:.1.( ) ^ 2 8XzXsXiXzXsXsXzXiX7XH nXBXBXBX",
"BXMXVXH 8XsXzXsXdXe.( ; & $ O & # # # $ & $ % % t % % % < O ] ) d pXsXsXzXiX%X2 _ _ _ _ _ _ _ _ ` :.] 1.` ` :.1.^ 2 6XzXzXsXsXsXiXzXdX7XH VXMXBXBX",
"BXBXVXh.7XsXzXiXzXt.( 1.) ` ' -.` { _ ` ` ^ ` ` ( ) / / / -.1.) v dXsXiXsXaX=X< _ _ _ _ _ _ _ _ ] :.{ { | | { ` ] < 4XsXzXiXzXiXsXzXiX8XH BXBXBXBX",
"BXBXnXH 7XsXsXsXaXN O > - = * = = = = = = * - : 5 : : W : : * * u dXzXuXzXzX%X% _ _ _ { _ _ :.{ ` ) { ^ ) } ) } _ , 1XsXzXiXzXsXiXzXiX6Xk.BXBXBXBX",
"BXBXbXH 7XsXzXiXsX@XT.P.P.c.U.U.x.x.x.z.r.r.k.F F e.N G N N m D x.pXzXsXzXsX&X, _ _ _ _ _ _ _ _ 1.` ` 1.-.-.{ ` _ < $XsXzXiXzXsXsXzXzX$XL.BXBXBXBX",
"VXBXnXH 7XsXzXiXzXdXzXxXcXcXxXxXsXsXsXaXsXiXiXsXuXzXzXiXzXzXxXzXzXzXiXsXsXaX%X; _ _ _ _ _ _ _ { 1.| ' / O > W ^ ` , $XsXzXiXzXsXiXzXsX<XL.BXBXBXBX",
"BXBXvXH yXsXzXsXsXiXzXsXiXiXdXuXzXzXzXzXzXzXsXsXsXzXzXzXsXdXiX0XzXaXsXiXzXzX&X; _ _ _ _ _ _ _ _ -.| | : 4.4.> ] ^ , 1XsXzXiXzXsXsXsXsX&XL.BXBXBXBX",
"BXBXnXF pXdXiXsXsXsXsXsXzXsXsXsXsXsXzXsXsXsXsXsXsXzXsXsXsXsXsXsXsXsXzXsXsXzX+X$ _ _ _ _ _ _ _ _ } ^ ' W 4.F.y ( ^ % $XsXzXiXzXsXsXiXzX+XI.BXBXBXBX",
"BXBXnXF pXsXsXzXsXsXsXsXsXsXsXsXsXsXsXsXsXsXsXsXsXsXsXsXsXsXzXsXzXiXzXsXiXxX+X> :.1._ _ _ _ _ _ { / :.: y 4.y -.` 2 1XsXzXiXsXsXsXsXzX+XI.BXBXBXBX",
"BXBXnXF pXsXsXsXzXsXsXsXsXsXsXsXsXsXsXsXsXzXsXsXsXsXsXsXsXsXzXsXsXsXsXsXiXxX+X; { { _ _ { _ _ _ } -.} ] * W : 1.^ , $XsXzXiXzXsXsXiXsX^.I.BXBXBXBX",
"BXBXCXG pXsXiXzXsXsXsXsXsXzXsXsXsXsXsXzXsXsXsXsXzXsXsXsXsXsXsXsXsXsXzXsXsXzX^.; _ _ _ _ _ _ _ { ) ` | 1.^ ] 1.` ^ < 6XsXzXiXzXsXzXiXzX^.I.BXBXBXBX",
"BXBXvXF yXsXsXsXsXsXsXsXsXsXsXsXsXsXsXsXsXsXsXsXsXsXsXsXsXsXsXsXzXaXsXsXsXzX^.; } _ _ _ _ _ _ :._ { / -.:.) ) ^ ^ < 4XsXzXiXzXsXsXsXzXW.R.BXBXBXBX",
"BXBXnXF pXiXiXzXsXsXsXsXsXsXsXsXsXsXsXsXsXzXsXsXsXsXsXsXsXsXsXsXsXsXsXzXiXzX^.- :.{ _ _ _ _ _ { { { :._ } ) } | ^ 2 6XsXsXiXzXsXsXsXzXR.!.BXBXBXBX",
"BXBXnXF pXsXiXsXsXsXsXzXsXsXzXsXsXsXsXsXsXsXsXsXsXsXsXsXsXsXsXsXsXsXzXsXiXxXW.- } { _ { _ _ _ { } _ ` ` } _ } } ^ 2 8XzXzXiXzXsXsXsXzXR.~.BXBXBXBX",
"BXBXnXF pXsXsXzXzXsXsXsXsXsXsXsXsXzXsXsXsXsXsXsXsXsXsXzXsXzXsXsXzXsXsXsXiXzXW.- _ :._ _ _ _ _ _ _ -.} ] _ :._ ) ] 2 8XzXzXiXzXsXiXsXzX).~.BXBXMXBX",
"NXBXvXJ 0XiXaXzXsXsXcXiXxXsXdXzXiXzXsXaXiXiXdXzXzXsXsXsXsXsXsXsXiXzXzXsXiXxXE.- _ :.{ _ _ _ _ _ _ _ _ _ _ _ _ _ ^ i eXsXsXiXsXsXsXsXzX).(.BXBXBXBX",
"NXBXbXJ 7XdXzXzXdX<Xx.l.e.q.e.e.G x.1XdXiXzXzXiXsXsXsXsXsXsXsXsXsXsXzXsXsXzXR.- } _ _ _ { _ _ { _ _ _ _ _ _ _ { ~ d 7XaXzXaXsXsXzXsXzXT./.BXBXBXBX",
"BXVXVXH eXsXzXzXzXe.>.5.6.5.9.6.6./ T.xXsXaXcXxXsXzXsXsXsXsXzXsXsXsXzXsXsXzXE.= { _ _ _ _ _ _ :._ _ _ { _ _ _ _ ~ d qXsXzXiXcXsXsXsXsX)./.BXBXBXBX",
"BXBXVXF 9XuXaXdXaXw.8.7.j.7.7.7.7.>.T.cXzXcXsXiXsXsXsXsXsXzXsXsXsXsXsXzXsXzXR.= } :._ _ _ _ _ _ { _ { :._ _ _ _ ^ d pXsXzXiXsXsXzXiXzXP._.BXBXBXBX",
"BXNXnXF yXiXzXxXcXm =.:.-.<.=.<.s f #XzXuXaXiX0XsXsXsXsXsXsXsXsXzXsXzXzXiXzXE.= _ } _ _ _ _ { :._ _ _ _ _ _ _ _ ^ d yXzXsXiXzXsXsXsXzXP._.BXBXBXBX",
"BXBXVXF %XP.v.R.E.P.c.R.XX+X+XXX^.R.T.z.q.y.B 1XsXsXsXzXsXsXsXsXsXiXsXzXiXxXE.= { { _ _ _ _ _ _ _ _ _ _ _ _ _ _ / v pXsXzXiXzXsXsXsXzXP._.BXBXBXBX",
"NXNXMXh.W.> 2.2.;.;.<.f ).xX6Xd ,.;.>.6.6.8.:.Y.sXsXsXsXsXsXsXsXsXiXzXsXiXzX~.= _ :._ _ { _ _ _ _ { _ :._ _ _ _ ! v aXsXzXiXzXiXsXsXzXP._.BXBXBXBX",
"BXBXBXh.E.-.0.7.j.0.7.6.N 0X+X<.0.7.7.7.7.7.9.g sXsXsXsXzXsXsXzXsXsXzXzXiXcXW.= _ { _ _ _ _ _ _ _ _ _ { _ :._ _ / b sXsXzXiXzXsXsXsXzXP._.BXBXBXBX",
"BXBXNXH W.p <.,.;.2.>.=.q.sXQ.< ;.;.=.=.=.a a > =XuXzXuXiXsXiXsXsXaXuXsXsXsX'.$ _ _ _ _ { _ _ _ ` ` _ _ _ :.{ _ ] g iXzXdXsXsXiXiXsXzXT.@XBXBXBXBX",
"VXVXVXL.<X1X-X'.W.T.T.Q.1XxX9XQ.+X+X&X%X1X%X@X_.eXzXxXzXxXxXzXxXzXzXzXxXcXxX&X, _ _ ^ ^ ^ / ~ ^ ~ ~ ~ ~ ! ! W ! = N lXzXxXcXxXzXzXzXxXI.(.BXBXBXBX",
",X,X,Xz x S N G D J g.J z.D J g.H k.k.k.l.l.z.k.g.k.k.g.k.k.g.k.k.g.k.k.g.h.m X X X X . . . . .                   o h.z.U.z.c.c.P.U.T.m h.(.!.(.(.",
"q r q w w 0 w 0 0 0 0 0 q q 7 0 8 8 8 0 7 7 7 e e e 8 8 8 e 8 8 e e 0 8 e 8 e e e 9 e 7 8 8 0 8 e 9 9 9 w q 8 8 9 8 e 0 7 0 0 9 0 9 9 9 q r q 9 q ",
"s.d.p.p.i.u.i.i.s.p.s.p.u.a.u.u.p.p.p.p.s.i.d.d.a.a.d.p.p.a.a.u.p.s.a.d.s.p.p.f.u.a.a.a.d.a.a.a.f.s.s.f.d.s.s.s.f.a.d.s.f.p.a.a.a.s.a.a.s.s.s.a.p.",
"]. X{.}.}.].].].].].].].{.{.|.[. X X].}.].].].].{.{.{.{.}.{.{.[.[.].].{.[.{.{.K.[.{.[.[.].{.{.{.[.[.[.[.[.[.[.K.|.{.}.|.}.[.|.[.|.{.{.[.}.|.}.{.}.",
".X3X.X.XoX.XoXOXoXoX3X.X*X.X*X.X.XOXOX>X>X>X>X.X#XoX#X>XoX#X*X#X3X.X#XoXoX#X<XoXoXoXoX.X>X.X>X.XoXoX.X<X>X>X>X>XoX#XoXoX<X3X>X.X>X.XoXoX<X3X.XoX<X",
"gX5X5XrXkXrXrXrXrXrXkXrXkXrX5XrXrXrXrX5XgXgXkX5XgXrXgXgXkXgXgXgXhXkXkXhXgXrX5XgXrXrXrXrXkXrXkXkXkXkXrXrXjXkXkXkXrXrXhXkXwXkXgXkXkXlXrXrXkXkXkXkXgX",
"mXmXmXmXmXmXmXmXmXmXmXmXmXmXmXmXNXmXmXmXmXNXmXmXmXmXmXmXNXmXmXmXmXNXnXNXMXMXNXMXNXMXMXmXMXVXNXmXMXNXmXmXMXMXBXNXMXMXBXNXMXNXMXMXBXMXBXMXBXNXBXBXBX"
};
