/* XPM */
static char *kurt__5_1674912832[] = {
/* columns rows colors chars-per-pixel */
"73 73 176 2 ",
"   c #0B0C0B",
".  c #05090C",
"X  c #0E100F",
"o  c #060B11",
"O  c #0C0F12",
"+  c #131413",
"@  c #161815",
"#  c #181917",
"$  c #14161A",
"%  c #15191D",
"&  c #1C1C1D",
"*  c #1E201E",
"=  c #20211F",
"-  c #1C1E22",
";  c #161B21",
":  c #1E2124",
">  c #1E232A",
",  c #232424",
"<  c #262826",
"1  c #292927",
"2  c #24262A",
"3  c #26292C",
"4  c #2B2C2B",
"5  c #2E302E",
"6  c #30312E",
"7  c #252B32",
"8  c #2C2D32",
"9  c #302F34",
"0  c #2E3134",
"q  c #2E333A",
"w  c #323334",
"e  c #373936",
"r  c #383A37",
"t  c #343639",
"y  c #38373C",
"u  c #36393D",
"i  c #3B3C3D",
"p  c #3E403D",
"a  c #343740",
"s  c #363B42",
"d  c #3C3E42",
"f  c #3E4144",
"g  c #3D4249",
"h  c #424345",
"j  c #464847",
"k  c #494947",
"l  c #44464A",
"z  c #46494C",
"x  c #4A4B4D",
"c  c #444750",
"v  c #454A52",
"b  c #4B4D52",
"n  c #4B4E59",
"m  c #504F55",
"M  c #4E5154",
"N  c #4D5259",
"B  c #535355",
"V  c #565857",
"C  c #54565B",
"Z  c #58575D",
"A  c #55595C",
"S  c #5A5B5C",
"D  c #5E605F",
"F  c #545662",
"G  c #555A62",
"H  c #5B5D63",
"J  c #5B5D69",
"K  c #605F64",
"L  c #5D6065",
"P  c #5E626A",
"I  c #626365",
"U  c #666867",
"Y  c #696A67",
"T  c #62656B",
"R  c #66696C",
"E  c #6A6B6C",
"W  c #6E706F",
"Q  c #646671",
"!  c #666A72",
"~  c #6A6D73",
"^  c #6B6D79",
"/  c #6E7175",
"(  c #6D727B",
")  c #737475",
"_  c #767877",
"`  c #73757C",
"'  c #767A7D",
"]  c #7A7A7C",
"[  c #757682",
"{  c #757B83",
"}  c #7A7D84",
"|  c #7C7E8A",
" . c #7D8185",
".. c #7D828A",
"X. c #838486",
"o. c #878986",
"O. c #82848B",
"+. c #85898D",
"@. c #8A8B8C",
"#. c #8E908D",
"$. c #90928F",
"%. c #848591",
"&. c #858B91",
"*. c #898C94",
"=. c #8B8F98",
"-. c #8C9195",
";. c #8E939A",
":. c #929395",
">. c #93959B",
",. c #95999C",
"<. c #9B9C9D",
"1. c #999B96",
"2. c #A0A29F",
"3. c #959AA3",
"4. c #9B9DA2",
"5. c #9DA1A5",
"6. c #9FA3AB",
"7. c #A4A4A5",
"8. c #A2A5AA",
"9. c #A5A9AD",
"0. c #AAABAC",
"q. c #A3A7B0",
"w. c #A4ABB2",
"e. c #AAADB3",
"r. c #AEB1B6",
"t. c #ADB2B9",
"y. c #B4B5B5",
"u. c #B6B8B6",
"i. c #B9BBB7",
"p. c #B2B6BA",
"a. c #B6B9BD",
"s. c #BBBCBC",
"d. c #BFC1BE",
"f. c #B3B7C0",
"g. c #B5BBC3",
"h. c #BBBEC2",
"j. c #BABEC9",
"k. c #BEC1C5",
"l. c #BEC3CB",
"z. c #C2C3C4",
"x. c #C7C9C6",
"c. c #C8C8C6",
"v. c #C3C5CA",
"b. c #C6C9CD",
"n. c #CBCCCC",
"m. c #CED0CE",
"M. c #C3C7D0",
"N. c #C5CAD1",
"B. c #CBCDD2",
"V. c #CBCFD8",
"C. c #CED1D3",
"Z. c #CED3DA",
"A. c #D3D3D4",
"S. c #D6D8D5",
"D. c #D9D9D7",
"F. c #D3D5D9",
"G. c #D6D9DB",
"H. c #DBDBDC",
"J. c #DCDEE2",
"K. c #DFE1E6",
"L. c #DFE4EA",
"P. c #E3E3E3",
"I. c #E6E8E7",
"U. c #E8E8E6",
"Y. c #E5E6E9",
"T. c #EBEBEC",
"R. c #EEF0ED",
"E. c #F1F3EE",
"W. c #EEEEF0",
"Q. c #EFF0F2",
"!. c #F4F4F4",
"~. c #F7F9F6",
"^. c #F9F9F7",
"/. c #F6F7F9",
"(. c None",
"). c None",
/* pixels */
").).).).).).).).).).).).!.!.V b Y V 2.c.2.9 & 9 Z Z Z I K 9 y Z A.@.i.T.E.o.i.2.h 4 m I x U K b 2 , m B.z.| x o.4 7.c.!.).^.).).).).).).).).).).).",
").).).).).).).).).).).).!.I.k Y D x :.d.A.:.4 y k K K y h h 1 & h 9 # o.I + r 6 4 9 i y b K H m 4 z h.J.7.O.w X.p :.n.^.^.).).).).).).).).(.).).).",
").).).).).).).).).).).).!.W.j Y S x @.9.y.Y y 9 m Z m x , h y y S h k 9 i k k p 9 k t 4 h z z h 8 x } z.<.[ 4 X.p #.c.^.).).).).).).).).).).).).).",
").).).).).).).).).).).(.E.!.S x ] h :.u.n.X.- , , 2 9 4 9 l Q m K I K Z W S Y B m C d t 9 8 8 9 - d 0.v.<.~ x @.4 0.n.^.).).).).).).).).).).).).).",
").).).).).).).).).).).).^.!.] 5  .x ] z.d.Z.,.7 9 9 d Z J Z K K Z K Q K Z W Z K Z H Z K B d 2 2 l n.z.z.r.l E ) 4 s.B.!.).^.).).).).).).).).).).).",
").).).).).).).).).).).).).!.0.& o.U D 9.l.;.p p 9 l Z Z Z Q Q ^ ` [ Q K K ` ` [ ` ! K F H c 8 2 y K h.v.O.m X.Z z s.G.).(.).).).).).).).).).).).).",
").).).).).).).).).).).(.).!.A., b #.D 1.e.W z 5 9 Z K Z [ | [ | | O.%.Q K O.| @.O.} ` Q ! A l 0 , x | z.` K o.4 / x.P.).).).).).).).).).).).).).).",
").).).).).).).).).).).).^.!.U.p 5 .._ ..) z ; 7 b b J ` | [ %.| | %.[ ^ [ %.| ` ....} ..^ K A g - 3 Z X.} X.K + O.A.T.).).(.).).).).).).).).).).).",
").).).).).).).).).).).(.)./.!.O.@ D  ...V 7 p g G J [ { ....{ ..[ %.%.[ [ | | [ | | | | } ` P H d 7 9 ^ O.] l , A.s././.).).).).(.).).).).).).).).",
").).).).).).).).).).).).).T.).} % j ' R 7 p g L [ [ ....| { { ..| | | | | | %.| [ [ | [  .} ' L J d q g O.` 4 4 c.J.W.).).).).(.).).).).).).).).).",
").).).).).).).).).).(.).).W.E 4 A _ ( q q 7 A ( [ { { ..........] | | | [ [ | | O.| %.| +. .} ) T n 9 - b *.] y 4 9.T.H.T.).).).).).).).).).).).).",
").).).).).).).).).).).).A.d : S /  ./ ' p R ....{ ..{ [ [ [ ! { | ^ ^ [ [ [ [ [ ~ ~ ^ Q } X.] O.O.O.g V } ` } H b & } U.Y.!.(.).(.).).).).).).).).",
").).).).).).).).).!.!.c.5 9 E H ......{ J ........{ ..{ ..! G P Q [ m [ [ J [ Q K J [ [ O.` O.} } O.` Z ` } O.} H B , S Y.J.(.).).).(.).).).).).).",
").).).).).).).).(.).y., 5 V K Y G G ! { ........[ ....w.3.....! J K F [ Q J F J ^ | | p.>.[ } } O.} } { O.! U H I m K % M K.C.T.).).).).).).).).).",
").).).).).).).).!.d., 1 I H E Z P  ...............[ P 6.l.l. .{ J J J ^ F F F [ ` O.h.l.O.B *.+. . ... . .+.` T V B R C , S C.H.~.).).).).).).).).",
").).).).).).).).m.9 4 h p V S ) ................P q 7 > g 3.g...^ J J J J J J | 4.a.O.4 - 2 l +.+.' O.{ | ` ` } R J x l 8 : E K.Q.).).).).).).).).",
").).).).).(.).T.h , 9 1 k I K Z k K @.&.' } } ..g > s 7 > q w.t.{ P G F Q J ^ O.g.&.% 7 % > - ^ O.[ } ......J F F G b g < 4 X @.D.(.).).).^.).~.).",
").).).).).).(.A.c.W + m I S h , b z.C.O.' &...;.G ..{ 7 7 ; ..N.{ G N P J H ! >.v.g 0 3 z O.P C ;.( { { w.Z...s 7 g L A f e 9.x.U.P.(.).^.).).).).",
").).).).^.!.J.^.A.w x B K m 6 & d +.N.} .... .w.l.Z.L.w.g ; g l...J n Q T c ! 6.s.t : R N.K.B.t.3...{ ( w.l.n 7 > g N ! R e I ~.c.c.).).).).^.^.).",
").).).).).^.D.P.y , d K x 9 4 K 9.z.z.*.O. .+.k.d.5.L v v > p d.=.g v ! F c T e.{ : 2 x x } e.r.q.{ ....6.l.l...g 7 a G M 5 : o.n.H.).).).).).).).",
").).).).).).P.@.:.k m k 4 9 4 y ,.Z.d...` L ,.t.g 7 7 p q 7 7 w.6.g g ^ G a ~ q./ : : < i 7 2 } f.&.n { ..g.Z.[ 2 - d 4 B h _ @.i.D.^.).).^.).^.).",
").).).).^.!.^.W.1.i x l l , K v.k.k.d. .` g ( N.w.> V 5.7 P % ..;.g g G G a P p.l : B g 0.. b B.3.g J ....V.l.V.w.l 3 z B V h K.!.A.W.).^.).).).).",
"(.).).^.).C.H.U.y Z Z K $ a K ` l.l.m. .~ N > R t.' : ..N...X ..;.g G ! F C g 4.t 0 C.C.S 9 e.>.N s ^ ^ t.l.Z.w.P T 4 t S D p D ).u.A.^.).).^.).).",
").).).).).T.^.W k Y K 8 8 y 4 *.k.d.l.w.P > p N ( d.U @ g 7 ; L k.! G g F n 4.t.3 : 0 4 2 *.4.T s 7 7 ..l.l.l.l.G - 3 , x D S w i.z.^.^.^.).).).).",
").).).).).).n.y K Z B p , - 4.J.l.l.l.w.;.L % g 3.k.l...p q g 7 G P G G G G ! g q g 7 g e.K.r. .d a ( 3.e.h.a.b.Y.~ - y f V S p ) H.E.^.).).^.).).",
").).).).(./.>.9 W I D Z , y K Z 5.l.l...' P f 7 G 3.8.G.N.k.t.! N G R ! P G G g =.l.k.V.l.6. .q t A [ ` r.b.B.O.M Z 2 i S D B S h d.P.^.).^.).).).",
")./.).).^.!.C k x B B h 9 9 $ a N.C.b.r./ v : > g U ..8.d.w.....! L G N G P ! ....5.f.6.t.{ L g 2 - l 4.N.z.h.4.+ 8 8 4 I S V h i $.S.).).).^.^.).",
").).).).!.W.h , i V K y 1 9 - X.Z.b.k.a.t. ./ L p g ' ' ..' _  .L P L P P P G ( ! {  ...` L 7 u J *.3.r.p.F.Z.B.d - y , V S B 5 @ ] D.^.).).).).).",
"(.).).(.^.n.m h y E B i Z h - e.N. .k.l.t.+. .D : p R  .'  .5. .{ P P P N G  .........{ ^ F g 8 [ [ 4.b.v.:.7.P.I - k d h S I & M W c.!.).).).).).",
").).).).!.K.C.k B I S S Z , 9 >.x 2 p.d.b.5.' B G !  . .W / d.....! P P G G  ...5.w.^ ....` K b ! ;.l.a.F.>.$ R ` & x ) H V ~ w _ T.n.U.).^.).).).",
").(.).).T.(.F., m k K K S 2 9 4 3 b l.G.r.k.b.t.9... .;.V A J...{ ! G G G G  ...q.l.g } O.} 3.6.t.h.p.f.A.,.$ , y , j B H I S t V ).c.P.^.).^.).).",
").).).).P.).z.4 p k K S K y , y 7 V C.-.M p.b.p.,. .' 1.p G Z.,...! P P N G ( ..t.t.a ^ { } | >.h.B.,.l v.0.- 4 & , l S B V i i k ).n.U.).^.).).).",
").).).).W.m.d.= 1 p D I S 9 1 i $ b :.: M k.l.p.5.9.+._ % I J.8.{ ! L L N R  ...h.p.q s &.4.4.g.x.b.9.O H O.- a h , k T I S y + B c.0.).).).).).).",
").).).).).!.h.w y h D K K k h m 2 t y : x b.p.b.x.k.,.l % ` H.<. .( P v A P ....k.k.0 0 ^ a.v.J.p.p.0.4 3 g 4 9 Z d m Z S Z w h Z d.H.^.(.).).).).",
").).).).).).A.@.k h S k K K V V 9 4 : 3 M ! M v.m.G.#.% : O.C.>. .{ / G G ' { ' h.B.g : d r.v.B.r.d ~ : 9 , , t K m V Z b B , W $.C.I.).).).).(.).",
").).).(.!.U.P.T.k y B 1 S I S S y - 4 p > + I B.a.F.L w & *.B.+. ... .R '  .{ ( 5.N.M 7 3 8.v.v.0.8 $ 4 t 2 , z ~ m Z l 9 x : >.).u.I.).(.).).).).",
").).).).).W.U.).B 9 k 1 B D k K j 3 j V , 2 z B.d.y.' f - 7.v.X. ...( U L ( ..{ ,.K.P % L ;.k.b.4.3 3 9 Z a - Z C b R h 2 k & 8.^.z.).(.).).).).).",
").).).(./.).J.!._ 1 4 , h S r V C y B C w , h n.b.y.7.4 9 u.7.| ' A M ( R A A  .O.v.' 4 M d.l.b.<.2 , y K m d Y j x S w , 9 , z.H.d.^.^.).).).).).",
").).).).(.).D.m.7.= & , 9 m 1 h V k E x y 3 h x.b.S._ * m h.@.~ M R W g P ! N G ` 9.e.4 q p.l.B.@.2 4 h Z Z D B w y l 4 t & i n.7.).).).(.).).(.).",
").).).).(.(./.P.A.1 4 , 1 h = 6 S E b Z y 4 h a.n.k.C . K h.O.K V g 7 p 7 p N M P ,.l.0 % ..B.S.@., 3 l m m I x , 4 w = e = U m.K.).).(.).).).).).",
").).).).).).)./.P.K * x 5 , 4 1 h S z x x y , 8.n.z.d 2 7.A.] K g p < > 0 7 g b M 9.C.T o ' b.m.W * k D j V D 1 6 1 = 6 p * 0.d.~.^.).).).).).).).",
").).).).).).).(.T.d., :.e 1 4 4 , d x 2 U k & +.F.e., , :.A.0.F g g g g g t M g  .g.B.Z * x k.l.p 5 D k 6 D * 6 1 6 * I D j d.m.^.^.).).).).).).).",
").).).).).).).).I.T.E 7.I , 4 w 8 & t w V M , k A.<.t & E A.z.O.f V p g u 0 g x 9.b.r.0 0 M k.9.5 5 D p 6 p < 1 < 6 + u.Y d.x.R.).).).).).).).).).",
").).).).).).).).).D.P.P.s.@ 6 4 , w 4 4 , V 4 4 d.$.W 9 h n.z.v.W M V g g M M 5.b.k.,.% V _ z.#.* p k 5 * 5 = 6 e @ j E.d.d.P.~.).^.).).).).).).).",
").).).).).).).).).!.D.W.)._   o.L # 4 4 4 i 5 X ) A.@., 4 <.z.d.k...D 0 g ~ 5.C.k.C.B $ x x.x.h * p < < e 1 1 1.p X x.!.m.x.^.R.).^.).).).).).).).",
").).).).).).).).^.).).H.m.D.p D ).V , 5 0 4 w , i i.7.= , x n.D.S.L.J.d.k.G.J.S.n.,., & z S.@.= 5 < 4 5 = * 2.E.  1.S.u.u.^.^.^.).).).).).).).).).",
").).).).).).).)./.!.).E.A.z.P.] Q.H.h * < 1 5 4 & I c.1 , # i K W '  .p D _ ) U M 2 4 4 V z.5 < 0 5 > * * W E.d.2.x.i.U.!.~.^.).).).).).).).).).).",
").).).).).).).)./.).).).).).A.I.I.y.u.& 4 , 5 0 9 1 @.y 2 4 = 4 ..1. .D L #.o.U , 4 0 , _ S # w < 4 w * D x.m.U.u.S.!.^.~.).).^.).).).).).).).).).",
").).).).).).).).).).).).).).!.U.n.7.H.o.* 4 1 1 4 1 6 p 1 1 4 1 @.D.P.D.P.P.d.V 4 4 1 1 m 4 1 1 w < * 7 h.0.c.y.T.^.).^.).^.).).).).).).).).).).).",
").).).).).).).).).).).).).).^.!.T.).!.S.h i p & 6 4 1 6 1 1 1 1 = k W X.] Y p = 4 , 4 6 1 , , 4 4 M , o.z.T.!.!.^.).).).).).).).).).).).).).).).).",
").).).).).).).).).).).(.).).).).).).^./.#.V 0.1 1 1 6 6 # 1 4 1 i & @ # = 5 = 6 4 4 1 2 1 1 4 4 k 7.e k.H.).).).).).).^.^.).).^.).).).).).).).).).",
").).).).).).).).).).).).).).).).^.(.).T.A.] ^.I @ 1 6 1 6 1 1 1 1 1 6 5 6 1 1 1 = 4 1 1 5 2 2 = z.C.o.k.W./.).!.^.).^.).).).).).).).).).).).).).).",
").).).).).).).).).).).).).^.).).).).).).D.D.^.c.= 6 1 6 6 1 1 1 1 1 1 1 6 1 4 1 6 6 = 6 & 4 1 k (.W.h.A.).).).).).^.).).).).).).).).).).).).).).).",
").).).).).).).).).).).).).).).).(.).).).R.T.0.D.Y X r 6 = 4 = 1 4 4 1 5 1 1 1 6 1 6 = 1 w 9 # 0.0.A.y.T.).).(.).^.).).).).^.^.).).).).).).).).).).",
").).).).).).).).).).).).).^.^.).).).^.).^.m.D.T.1.@ k y.6 = 6 1 6 1 1 1 1 6 1 1 = 6 # Y <.= p d.n.F.T.).).).).(.).).^.^.^.).).).).).).).).).).).).",
").).).).).).).).).).).).).).).).).).).).).).(.T.n.1 Y ^.A.k # 4 1 1 5 1 5 1 1 5 6 = _ ).U., K i.W.).!.).).).).).).^.).).).).).^.).).).).).).).).).",
").).).).).).).).).).).).).).).).).).).).).).).).U.h u.0.A.E.m , 6 4 4 , 2 1 , 1 & :.P.0.J.] W A.^.).).).).).).).).^.).^.).).).^.).).).).).).).).).",
").).).).).).).).).).).).).).).).).).).).).).).).T.n.s.D.W.P.^.I & 6 , , 1 = 4 = y.W.v.).H.H.z.P.).).).).).).).).).).).^.).).).).).).).).).).).).).",
").).).).).).).).).).).).).).).).).).).).).).).).T.d.A.).).U.C.^.Y = 5 5 1 9 4 u.T.9.).).).K.i.(.).).).).).).).^.).).^.).).).).).).).).).).).).).).",
").).).).).).).).).).).).).).).).).).).).).).).).).^.^.(.).).U.A.^.x 4 9 8 4 @.W.9.).(./.^.).).^.).).).).).).).).^.).).).).^.).).).).).).).).).).).",
").).).).).).).).).).).).).).).).).).).).).).).).).(.).).).(.(.T.T.P.9 9 , E (.e.).).).).).(.)./.).).).).).^.).).).).).^.).).).).).).).).).).).).).",
").).).).).).).).).).).).).).).).).).).).).).).).).).(.).).).).).H.W.0.# y !.s.W.).).).).).).(.).).^.).).).^.).^.).^.).).).^.).).).).).).).).).).).",
").).).).).).).).).).).).).).).).).).).).).).).).).^.).).).).).^./.Y.(.h <.J.A.(.).).).).^.).).).).).).).).).).^.^.).^.).^.).^.).).).).).).).).).).",
").).).).).).).).).).).).).).).).).).).).).).).).).).(.).(.).).).(.!.P.c.J.r.).!.).).(.).).).).).).).).).).^.).).^.).).).).).).).).).).).).).).).).",
").).).).).).).).).).).).).).).).).).).).).).).).).).).).).).).).(.).P.!.n.S.).).).).).).).).).).).).).).).).).).).).).).).).).).).).).).).).).).).",
").).).).).).).).).).).).).).).).).).).).).).).).).).).).).).).).).^.).D.x.).(.).).).).).).).).).).).).).).).).).).).).).).).).).).).).).).).).).).",
").).).).).).).).).).).).).).).).).).).).).).).).).).).).).).).).).(.(.).).).).!.).).).).).).).).).).).).).).).).).).).).).).).).).).).).).).).).).",
").).).).).).).).).).).).).).).).).).).).).).).).).).).).).).).).).^.).(.).).).).).).).).).).).).).).).).).).).).).).).).).).).).).).).).).).).).).",
").).).).).).).).).).).).).).).).).).).).).).).).).).).).).).).).(.).).).).).).).).).).).).).).).).).).).).).).).).).).).).).).).).).).).).).).).).",
").).).).).).).).).).).).).).).).).).).).).).).).).).).).).).).).).).(.).).).).).).).).).).).).).).).).).).).).).).).).).).).).).).).).).).).).).).",
").).).).).).).).).).).).).).).).).).).).).).).).).).).).).).).).).).).).).).).(.).).).).).).).).).).).).).).).).).).).).).).).).).).).).).).).).).",
").).).).).).).).).).).).).).).).).).).).).).).).).).).).).).).).).).).).).).).).).).).).).).).).).).).).).).).).).).).).).).).).).).).).).).).).).",
").).).).).).).).).).).).).).).).).).).).).).).).).).).).).).).).).).).).).).).).).).).).).).).).).).).).).).).).).).).).).).).).).).).).).).).).)."
};
