/* XPM */
static char *_4b244123d6c4837aca59eda5c269e775B5fgcrcriQtaz3G[] = {
/* columns rows colors chars-per-pixel */
"73 73 190 2 ",
"   c #060605",
".  c #11100E",
"X  c #0B0E12",
"o  c #0E141B",
"O  c #0D1015",
"+  c #131413",
"@  c #161816",
"#  c #181916",
"$  c #13161A",
"%  c #16191C",
"&  c #1B1C1C",
"*  c #201F1D",
"=  c #1E201E",
"-  c #20211F",
";  c #1B1D22",
":  c #171A21",
">  c #1F2124",
",  c #1B222A",
"<  c #232424",
"1  c #262825",
"2  c #282927",
"3  c #24262A",
"4  c #26292C",
"5  c #2B2C2C",
"6  c #2E302E",
"7  c #30312F",
"8  c #252B33",
"9  c #2B2D32",
"0  c #262630",
"q  c #2E3133",
"w  c #2E333B",
"e  c #333434",
"r  c #363836",
"t  c #393937",
"y  c #33353A",
"u  c #36393C",
"i  c #3A3B3C",
"p  c #38373C",
"a  c #3E403E",
"s  c #40423F",
"d  c #3C3E42",
"f  c #363A42",
"g  c #3E4144",
"h  c #3D4249",
"j  c #424344",
"k  c #43454A",
"l  c #46494C",
"z  c #4B4C4D",
"x  c #484849",
"c  c #4E504E",
"v  c #464A51",
"b  c #4C4E53",
"n  c #4E5155",
"m  c #4E535A",
"M  c #535455",
"N  c #53555A",
"B  c #56595D",
"V  c #5A5B5C",
"C  c #58585A",
"Z  c #62615F",
"A  c #565A62",
"S  c #5B5D63",
"D  c #5C5F69",
"F  c #525661",
"G  c #605F64",
"H  c #5E6165",
"J  c #5E6269",
"K  c #5F6670",
"L  c #626364",
"P  c #63656B",
"I  c #65696C",
"U  c #6B6C6D",
"Y  c #686868",
"T  c #6E706B",
"R  c #666A72",
"E  c #6B6D73",
"W  c #6A6E79",
"Q  c #626571",
"!  c #706F75",
"~  c #6E7174",
"^  c #6E727A",
"/  c #737373",
"(  c #73757C",
")  c #75797E",
"_  c #7A7C7D",
"`  c #78777A",
"'  c #777781",
"]  c #767A83",
"[  c #7A7C84",
"{  c #7C7E89",
"}  c #7D8185",
"|  c #7E828A",
" . c #778087",
".. c #828384",
"X. c #82848B",
"o. c #85898D",
"O. c #8B8C8D",
"+. c #868887",
"@. c #8E908D",
"#. c #838691",
"$. c #868A91",
"%. c #8A8D93",
"&. c #8E9195",
"*. c #8F9299",
"=. c #939494",
"-. c #92959A",
";. c #96999D",
":. c #9C9C9D",
">. c #989896",
",. c #9EA09E",
"<. c #A0A29D",
"1. c #969AA2",
"2. c #9B9DA3",
"3. c #9397A0",
"4. c #9EA1A5",
"5. c #9DA3AA",
"6. c #9FA8AF",
"7. c #A3A4A4",
"8. c #A4A6A9",
"9. c #A6A9AC",
"0. c #ABACAC",
"q. c #A8A9A6",
"w. c #B0B2AF",
"e. c #A5AAB2",
"r. c #ABADB2",
"t. c #ADB1B5",
"y. c #ADB3BA",
"u. c #B2B3B4",
"i. c #B8B7B5",
"p. c #B3B6B9",
"a. c #B5B9BC",
"s. c #BBBCBD",
"d. c #B8BAB7",
"f. c #C0BFBD",
"g. c #BEC0BE",
"h. c #C0C0BE",
"j. c #B6BAC1",
"k. c #BBBDC2",
"l. c #BEC1C5",
"z. c #BDC2C9",
"x. c #C3C4C4",
"c. c #C3C6CA",
"v. c #C6C9CD",
"b. c #CBCCCC",
"n. c #C8C8C6",
"m. c #D0CECF",
"M. c #CED0CD",
"N. c #D0D0CE",
"B. c #C5CAD1",
"V. c #CBCED2",
"C. c #CED1D4",
"Z. c #CDD2D9",
"A. c #D1D1D2",
"S. c #D3D3D3",
"D. c #D8D9D7",
"F. c #D4D5D9",
"G. c #D5D9DA",
"H. c #DBDBDB",
"J. c #D7D8D5",
"K. c #E1E0DE",
"L. c #DDDEE1",
"P. c #D2DBE2",
"I. c #DDE0E2",
"U. c #E3E3E3",
"Y. c #E9E9E7",
"T. c #E5E5E8",
"R. c #EBEBEC",
"E. c #E7E9EB",
"W. c #EEF0ED",
"Q. c #F1F1EF",
"!. c #EEEEF0",
"~. c #EFF0F2",
"^. c #F1F1F2",
"/. c #F6F6F6",
"(. c #F4F4F4",
"). c #F7F9F6",
"_. c #F9FAF7",
"`. c #F5F5F9",
"'. c #F7F8FA",
"]. c #F8F8F8",
"[. c gray98",
"{. c #FBFBFB",
"}. c #F8F9FB",
"|. c gray99",
" X c #FDFDFD",
".X c #FEFEFE",
"XX c white",
"oX c #FFFEFF",
"OX c #FDFDFF",
"+X c None",
/* pixels */
".X.X.X.X.X.X.X.X.X.X.X.X.X.X.X{.Q.{...7 z T.n.]. X X/.(.{..X.X.X.X.X.X.X.X.X.X.X.X.X.X.X.X.X.X{.{.^.L 2 ` K.R..X.X.X{..X.X.X.X.X.X.X.X.X.X.X.X.X.X",
".X.X.X.X.X.X.X.X.X.X.X.X.X.X.X/./.m.x V p >.n.Y. X].{.{..X{..X.X.X.X.X.X.X.X.X.X.X.X.X{..X.X.X/.{.:.e Y z f.m..X X{..X.X X{..X.X.X.X.X.X.X.X.X.X.X",
".X.X.X.X.X.X.X.X.X.X{..X.X.X.X.X/.T C V x t m.m.(..X X X{..X.X.X.X.X.X.X.X.X.X.X.X.X.X{..X.X{.{.U.x i C M T H.U..X{..X{..X.X.X.X.X.X.X.X.X.X.X.X.X",
".X.X.X.X.X.X.X.X.X.X.X.X.X.X/.{.m.x ` f.G t _ R.^.(. X X.X.X.X.X.X.X.X.X.X.X.X.X.X{..X.X.X.X/./.@.< Z b...C q.H.{..X.X{..X.X.X X.X.X.X.X.X.X.X.X.X",
".X.X.X.X.X.X.X.X.X.X.X{..X.X^.R./ C f.m./ x j n.H.(. X/. X X.X.X.X.X.X.X.X.X.X.X.X.X.X.X X].Q.H.x j G J.0.L ! m.H..X.X.X.X.X.X.X.X.X.X.X.X.X.X.X.X",
".X.X.X.X.X.X.X.X.X.X.X{..X.X^.b.t ..<.m.>.e j Y ^.K.K.]. X.X X X.X.X.X.X.X.X.X.X]..X{.].Q.(.^.U a j O.H.s.=.k i.D..X{..X.X.X.X.X.X.X.X.X.X.X.X.X.X",
".X.X.X.X.X.X.X.X.X{..X.X.X.X^...M ..f.` M e Z t 5 7.Y.H.R.]..X.X.X.X.X.X.X.X.X.X X.X(.(. X0.7 7 Z 5 k _ k.O.C P D.^..X.X.X.X.X.X.X.X.X.X.X.X.X.X.X",
".X.X.X.X.X.X.X.X.X.X{..X{.(.R.j ..U :.f.# * a C d 9 / D.R.^..X X.X.X.X.X.X.X.X.X X(.].].Y * a V k e % 7.q.U ` j n.D..X.X.X.X.X.X.X.X.X.X.X.X.X.X.X",
".X.X.X.X.X.X.X.X.X.X{..X/..Xs.e ..Z <.n._ 7 x G C M e p H.S.T.`..X^..X.X`.}.}.`.~.`.U.M e b C G C 4 / C.9.V ) e 8.H.{.{..X.X.X.X.X.X.X.X.X.X.X.X.X",
".X.X.X.X.X.X.X.X.X.X.X.X.X.XO.a U z =.f.G e j U G C Z c e n.}.`.`./.L.Y.!.`.`.{.}.T.b p U M C G n < ~ l.7.H ~ x X.G.!.{..X.X.X.X.X.X.X.X.X.X.X.X.X",
".X.X.X.X.X.X.X.X.X.X.X.X{.{.V C ! G 2.m.O.* 2 i Z Z M ! G e G 7.K.,.U.`.T.r.T.7.Z p x U N N G j 4 @ ) v.8.B S H V F.U..X.X.X.X.X.X.X.X.X.X.X.X.X.X",
".X.X.X.X.X.X.X.X.X.X.X.XQ.Q.j U G z :.m.m...5 d C C C j k e $ * v 3 f r.k : k 0 + 0 k p n I b j 4 ( C.C.&.B n / d A.F..X.X.X.X.X.X.X.X.X.X.X.X.X.X",
".X.X.X.X.X.X.X.X.X.X.X.XQ.R.j T G M :.0.w.! p j M C c p # k p p N p d 9 f p b p p k 9 f j n B f q H 9.l.$.B V ~ e V.F..X.X.X.X.X.X.X.X.X.X.X.X.X.X",
".X.X.X.X.X.X.X.X.X.X.X]././.M C ` j X.i.n.M # e 2 2 e p 9 G G M C G S F Q S G F G M 0 0 0 0 9 0 < H Z.p.-.y E B z b.U..X.X.X.X.X.X.X.X.X.X.X.X.X.X",
".X.X.X.X.X.X.X.X.X.X.X X X{.` e ..x ` f.n.F.O.< 0 p j C G G C E S E N G G E G G F G G S M f 0 0 [ F.v.s.O.j o.p E A.~..X.X.X.X.X.X.X.X.X.X.X.X.X.X",
".X.X.X.X.X.X.X.X.X.X{..X].(.<.# ` G P u.n.#.j e 0 p G U G ! G E ! ^ G G ! ( E ' E G Q G N k 9 8 k o.c.a.E L %.; O.A.OX.X.X.X.X.X.X.X.X.X.X.X.X.X.X",
".X.X.X.X.X.X.X.X.X X.X.X.X!.z.3 H _ M -.t.J u 9 k M G Q ! ' { X.{ { ] F { { | { ' ( R D P A h 0 i L r.2.M O.G * 8.m. X{. X.X X.X.X.X.X.X.X.X.X.X.X",
".X.X.X.X.X.X.X.X.X.X X.X{.`.I.g e } _ _ ..g 3 y M C G ! [ | X.#.] { ] ] ] { { { | [ [ ( S D N 9 4 j ( %.' ..x p m.m.}.{.]. X X X.X.X.X.X.X.X.X.X.X",
".X.X.X.X.X.X.X.X.X{. X}.{.E.E.o.< Y +.[ v q 8 u G U ( [ { X.X.{ { { ] { { { ]  .{ ] { | W R S b w w k ' { G < ..L.T.`.{..X.X.X.X.X.X.X.X.X.X.X.X.X",
".X.X.X.X.X.X.X.X{..X.X.X`.E.OX| X m | ~ f y h P G ! [ { { ' ' X.{ { { { | | { ] | | { [ #.#.( D N f 0 ' X.x 0 ` !.H.`.`..X.X.X X.X.X.X.X.X.X.X.X.X",
".X.X.X.X.X.X.X.X.X].{.{..XE.E ; B ~ E u > f H ( ' ' | #.| { | | { { { { { | ' { { { #.] { [ X.' G f 0 0 ! ' G 0 M L.F.^..X.X.X.X.X.X.X.X.X.X.X.X.X",
".X.X.X.X.X.X.X.X{..X~. XU.g > J ) )  .^ h E $.] { ] ' ^ W W K K { D { ]  .K ] ] W Q W W X.[ { { #.' k ( ' [ ` Y 7 7 F.H.R.{.{.]..X.X.X.X.X.X.X.X.X",
".X.X.X.X.X.X.X.X].(. Xx.9 9 L I o. .~ ) K $.|  .{ { | | ] Q D D K ' F | D K ] A F R ' ] [ { } } ' X.! ! { X.{ ` C 9 < i.H.E. X.X.X.X.X.X.X.X.X.X.X",
".X.X.X.X.X.X.X.X X Xw.; e I V E B I  .( &.| |  .] | 2.e.1.| K ] F F ' ] F K F A ' { 3.e.| [ ..| X.X.! [ ` U G G G G e < :.H.Y.{..X.X.X.X.X.X.X.X.X",
"{..X{..X.X{..X X^.s.< 5 C G S S I ) } | | | |  .| K A y.z.z.|  .F F D W D D D ( ) 4.Z.y.H J o.) _ } } } &.} ( V V Z C t 5 i.m.Q..X.X.X{..X.X.X.X.X",
".X.X.X/..X.X]. XA.5 2 i j n G Y ) ~ ~ o.|  .| | ~ , , , F 6.y. .K K D J J D I ..p.y.B q > 3 V  .| } } } ..^ +.P M V z r 7 - i.E..X.X.X{..X.X.X.X.X",
".X.X.X.X{..X{.R.x < e 4 b G P C c H ,. .| | |  .w , , 8 8 h z.6.' K D D A A E 2.l.l $ 6 4 = q  .} }  .[ 2.P l B Y U z 5 5 7 r x.R.{..X.X.X.X.X.X.X",
".X.X.X{.]..X{.Y.n...# E S M j < h v.l.o. .|  . .m 5. ., 8 , 6.z.W A F A F C ` p.0.9 u e ~ 9.A ~ | ) | +.l.j.B 3 d V Y C 5 G m.A.H..X.X.X.X.X.X.X.X",
"{.{..X.X.X.XH.R.v.9 j C G z 7 9 g &.z. . .} | g.z.P.P.y.8 , ^ z.' N m D C S ' s.o.< 4 ;.I.I.l.g.@.| o.} B.$.h u * b G b x 4 b.K.0.R.]..X.X.X.X.X.X",
".X/..X.X.X.XR.D.p < j G d 9 0 C p.V.l.&. .} | 5.6.| h w w , h z.[ v v G b b [ k.c , a l h @.6.u.-.&._ ;.p.V.p.V 9 7 x V p 3 0 l.b..X.X.X.X.X.X.X.X",
".X.X.X.X/..XY.=.q.x M p * 5 2 j ;.z.u.@.A R ,.6.h o h h o 8 h 6.X.d b G k d ` i.a : = g a X r t.9.H H &.8.j.8.j * 9 9 p z b 0.=.A.U..X.X.X.X.X.X.X",
".X.X.X.X.X{.`.{.=.j M z p 9 ! x.C.v.l. . .l ^ z.6.o K | h K , 6.#.f N Q b d ( 8.> n H @.~ o &.v.I h } _ r.c.c.F.%.e 5 z G x ..{.^.J..X.X.X.X.X.X.X",
".X{..X X XK.m.U.i V G x < p M ! y.l.l.+.S m , S t.] : 1.V.R o %.' k G Q R m W %.> J Z.4.= ~ t.U w h I } g.z.C.~ m a % v T M 6 z.b.x..X{..X{..X.X.X",
".X.X X.X XU.^._ j G Z e < 5 9 8.c.l.c.4.D $ 8 D ] y.R ; ; , ; ] r.E m S G b t.%.& > 3 $ H 9.+.H a % z 6.z.z.g.g.h o a 8 M B g / A.U..X.X{..X.X.X.X",
" X.X.X{. X/.H.5 C C M a 2 5 r.n.v.k.z.4.*.H w m *.z.Z.{ v m v y b G Q Q G S F f n V g } z.v.;.m 6 B o.;.y.g.z.l.g.w o v M H B r c.J..X.X.X.X.X.X.X",
".X{..X X X].=.7 Z Z b C < e j i r.c.z.o.J B y : A *.j.P.B.c.k.J F G b A D Q b N e.V.B.Z.y.&.H % u B T | Z.g.0.c h a a m I V ~ 6 _ H..X'..X.X{..X.X",
" X.X X.X{.{.G 2 t C Y z < 0 # x v.k.c.u.o.d > y m Q $.e.r.1.( ( D S A P D A R | } o.a.8.-.P k 9 4 h ) y.z.z.V.m % q > g L B g a H S.H..X{..X.X.X.X",
"{..X{.{.{.Y.x < s C Y j * p $ X.G.F.k.c.a.-.X.J , l I o.#.( ' ] R D P N D G R { ( [ ] ' ] d 9 D ( &.t.g.u.D.B.&.= w a g Y T g 3 5 v.R..X.X.X.X.X.X",
".X{..X.X/.m.` z d Z C x M p ; t.u.G u.V.2.$.( g 3 v R } ' ' -.X.] D B L S P ( ( %.{ ( X.P b 9 w ~ } 4.C.g.~ 6.g.4 a m l H M i x [ y.I..X.X.X.X.X.X",
" X X.X XR.R.U.j x V V C G e p ` p f k.k.V.9.o.D R E } *.G *.c.{ } E J F F R ' ! k.1.R | | ] R J ) 9.M.z.P.a = ) h w B B C I a 5 I.L.V..X.X.X.X.X.X",
" X.X.X.XY..XU.4 z x C V C 9 < 5 ; C c.j.*.k.j.j.5.X.[ o.h [ B.#.] ^ B P N R [ $.V.&.v X.[ o.&.r.z.g.-.z.Z.H 1 1 9 4 M B H h c r S. Xc..X X.X.X.X.X",
".X]..X XY.F.A.5 5 s G C G e 0 9 ; b L.G k m.j.r.X.X.X.} 9 } C.1.( ( S D J I [ $.F.1.3 ( _ [ 2.8.z.P.c c Z.H , 8 , 8 H I H a q = k.b.S. X.X.X.X.X.X",
".X{..X.X/.F.V.2 2 p G C G f 9 j 0 d ` X N v.F.j.k.j.*.P o X.F.1.' / F D A E [ %.C.5.% N %.p.k.z.Z.M.I o T h 6 h r a H B U u 6 4 a.s.E..X.X.X.X.X.X",
"{..X.X X X!.b.j s p G C G z k b 9 e % & S s.#.l.k.z.%.d : 3.B.1.( ( S D A E [ $.v.*.9 4 [ y.c.V.;.z.B 8 1 6 4 h l g H N Y u a a s.V..X.X.X.X.X.X.X",
" X.X{..X X!.F.0.b p G i C S C C 3 i 3 < 9 y B v.V.B.I : 0 1.C.{ [ ^ E D ^ } *.#.V.e.0 9 B p.C.v.A h a = 1 1 6 c I V H 4 L r n d.x.A.{..X.X.X.X.X.X",
".X X.X.X.X^.R..XC e C 2 S P C D f 4 i l 9 ; I v.k.c.S k ; r.V.{ [ *.o.I [ [ ( ( l.a.> w N Z.c.B.T 8 8 a h 1 8 V c V B 5 j q c .XV.C.`.{..X.X.X.X.X",
".X.X.X X.X`.E.{.! < a < M G d G x < l V 3 < I F.v.9...0 y k.r.' %.Q S J n E | ( 4.V.y 9 o.t.c.F.I = 4 h V 4 g B a L C 2 s 1 C _.b.E.{.{..X.X.X.X.X",
".X.X X X.X XI.H.O.* 5 0 j S 5 N M y H M q q M c.k.V.} O m j.%.{ S A J ] W N m ) %.V.P $ [ V.z.F.B , a c V a Z h 6 V g 6 7 - _ D.r..XOX.X.X.X.X.X.X",
".X.X.X.X.X.X^.b.u.& 7 5 9 c < p J M Y H e = n x.a.V.N $ ' f.{ G A J J v N Q m P [ a.[ $ b c.t.V.B 1 4 c Z V V a 1 a 1 1 = @ <.g.^.{..X.X.X.X.X.X.X",
".X.X.X.X.X.X{.Y.E.j < 0 2 5 5 5 c V c n g 6 a p.x.x.j % :.c.` C d 9 9 9 0 9 k v ^ p.p.: y p.c.b.c 6 a h a Z M a 6 - a 1 a = g.M.{..X.X.X.X.X.X.X.X",
".X.X.X.X{..X.X{.(.+.& G * p 2 2 q H r x V g 5 :.b.9.4 9 8.c.X.x d v d 9 f v u d } z.j.3 ; ;.G.a.6 a c g a c a a - 1 = c 1 T J.W..X.X.X.X.X.X.X.X.X",
".X.X.X.X{..X.X.XE.G.e :.x * e 5 @ a c 1 H z < @.G.=.% q ;.m.p.k F d w v h f D v 2.Z.r.y ; o.V.7.= g Z a a a = 1 a = a ,.6 g.M.(..X.X.X.X.X.X.X.X.X",
".X.X.X.X.X.X.X.X].T.q.0.=.* e 2 6 6 a - x c = Z L.! d * E v.v.;.k m k b f B 9 [ v.T.` $ M ..F.G @ h a = 1 1 a - 6 # @.i.,.M.W._..X.X.X.X.X.X.X.X.X",
".X.X.X.X.X.X.X.X XK.K.].U.2 * C 6 = 1 = 6 c 6 a 0.0._ < z a.i.c.| m m f d A X.k.V.V.A O ` 0.r.5 6 a a 1 1 1 6 M r 2 g.|.g.g._.{..X.X.X.X.X.X.X.X.X",
".X.X.X.X.X.X.X.X X].R.K.Q.f.  +.q.. 1 7 1 a 6 1 ! A.+.3 & #.T.l.S.e.X.I o.r.F.c.C.7.< * ` J.` * a a = 1 1 @ <.<.  =.).g.M.|._._..X.X.X.X.X.X.X.X.X",
".X.X.X.X.X.X.X.X]. X/.R.<.N.=.x _...= = 1 1 6 - e i.<.& * x -.k.k.v.k.e.V.V.j.w.r.b 9 5 +.n.p * a @ 1 a = T ).c _ g.,.J.).)..X_..X.X.X.X.X.X.X.X.X",
".X.X.X.X.X.X.X.X{. X.X X XJ.K.f.K.Y.T = 6 1 1 6 > M 7.* e < & d M ) h X a H V r 5 7 2 5 7.Z * 7 2 - 6 = V K.U.g.g.n.~._..X_.'.OX.X.X.X.X.X.X.X.X.X",
".X.X.X.X.X.X.X.X.X X X.X.X(./.D.K.>.J.r 6 6 a r 5 & Y k ; 4 e d c.l.g.4.g.g.g.c 2 7 5 7 G 7 5 7 t 6 - s n.<.J.h.D.)..X.X/.OXOX_..X.X.X.X.X.X.X.X.X",
".X.X.X.X.X.X.X.X.X X{..X{.{.{.Q.M.M.D.0.# 1 6 - < r < e 2 3 3 & Z d.g.M.g.w.I - 7 5 7 7 7 5 5 2 # 6 2 =.g.N.x.Y..X.X~..XOXOXOXOX.X.X.X.X.X.X.X.X.X",
".X.X.X.X.X.X.X.X X.X.X.X_.{.{..X(.{.Y.Y.c M Z 1 & < i 3 5 q 5 < 4 5 5 6 r 7 6 6 2 2 2 2 * 2 t < c Z x M.D._.)..X.X.X|.|.OX}.OXOX.X.X.X.X.X.X.X.X.X",
".X.X.X.X.X.X.X.X.X.X.X.X.X.X.X.X{.{._.U.w.V D.6 e i = q 4 q q 5 = 1 6 1 1 6 = 1 7 - t * 7 7 - . N./ =.h.{._.{.{._.OXOX/.OX.X.X}..X.X.X.X.X.X.X.X.X",
".X.X.X.X.X.X.X.X.X.X.X.X.X.X{.{.{..X.X(.D.w._._ + 6 2 > q < q 5 r 6 1 6 6 = 6 1 * t t * - - - / {.w.0.K._..X{.{.OX'._.OXOX.X'.OX X.X.X.X.X.X.X.X.X",
".X.X.X.X.X.X.X.X.X.X.X.X.X{..X.X{.{.|._.Y._.n.M.r 2 6 & > 6 q 6 1 r 6 6 1 1 1 1 7 7 2 2 t 7 - h.K.K.0._..X{.{..X_.OX.X.XOXOXOX.X.X.X.X.X.X.X.X.X.X",
".X.X.X.X.X.X.X.X.X.X.X.X.X{..X{.{.|.|._.Q.M.q.U.L + j n > 3 6 9 6 2 2 1 6 6 = 6 7 - # a s # Z N.w.h.Q.Q.{.{.{..XOX.X}.OXOX}.OXOX.X.X.X.X.X.X.X.X.X",
".X.X.X.X.X.X.X.X.X.X.X.X.X.X.X.X.X.X.X.X.X^..XY.>.+ ! /.Z + 7 2 2 7 * 7 2 7 7 < 2 * Z _.+.. >.h._._._.{.{..X.X.X.X.X.X.X.X.XOXOX.X.X.X.X.X.X.X.X.X",
".X.X.X.X.X.X.X.X.X.X.X.X.X.X.X.X.X.X.X.X.X/..X^.x.< u.U.^...+ 5 2 2 7 * 2 * < 2 * / K.H.n.2 q.N.{.{.{.{.{..X.X.X.X.X.X.XOX.XOX.X.X.X.X.X.X.X.X.X.X",
".X.X.X.X.X.X.X.X.X.X.X.X.X.X.X.X.X.X.X.X.X.X.X{.H.>.h.s.H.(.:.& 2 2 2 7 7 2 2 * =.(.f.h.D.>.0.Y.{.{.{..X.X.X.X.X.X.X.X.XOXOXOX.X.X.X.X.X.X.X.X.X.X",
".X.X.X.X.X.X.X.X.X.X.X.X.X.X.X.X.X.X.X.X.X.X.X.XU.b.h.`. XJ.{.7.2 2 2 2 2 2 * <.Q.w._.{.K.N.N.{.{..X.X.X.X.X.X.X.X.X.X.X.X.XOX.X.X.X.X.X.X.X.X.X.X",
".X.X.X.X.X.X.X.X.X.X.X.X.X.X.X.X.X.X.X.X.X.X.X.X{.A..X.X X Xb. X<.# 7 - 5 - +.Q.w./.{.{._.Y.K.{..X.X.X.X.X.X.X.X.X.X.X.X.X.X.X.X.X.X.X.X.X.X.X.X.X",
".X.X.X.X.X.X.X.X.X.X.X.X.X.X.X.X.X.X.X.X.X.X.X.X{..X.X(. X.X^.b._.` . t * Z _.i./._.{.Q.{..X.X_..X.X.X.X.X.X.X.X.X.X.X.X.X.X.X.X.X.X.X.X.X.X.X.X.X",
".X.X.X.X.X.X.X.X.X.X.X.X.X.X.X.X.X.X.X.X.X.X.X.X{..X.X.X.X X.X XJ.Y.s - 7 K.f.K._._._.{.{..X_..X.X.X.X.X.X.X.X.X.X.X.X.X.X.X.X.X.X.X.X.X.X.X.X.X.X",
".X.X.X.X.X.X.X.X.X.X.X.X.X.X.X.X.X.X.X.X.X.X.X.X.X^..X.X/. X X].Y.Q.f.. i.J.b.{.{._._.{.{._._..X.X.X.X.X.X.X.X.X.X.X.X.X.X.X.X.X.X.X.X.X.X.X.X.X.X",
".X.X.X.X.X.X.X.X.X.X.X.X.X.X.X.X.X.X.X.X.X.X.X.X.X.X.X.X.X.X.X.X{.H.W._ K.i._._..X{..X.X{.{..X.X.X.X.X.X.X.X.X.X.X.X.X.X.X.X.X.X.X.X.X.X.X.X.X.X.X"
};
