/* XPM */
static char *_7a9cff767ab49e2f5c2b70506da0275TfkFQTw0jLTB2Jjj[] = {
/* columns rows colors chars-per-pixel */
"73 73 206 2 ",
"   c #141514",
".  c #1A1916",
"X  c #1C1C1B",
"o  c #171717",
"O  c #090908",
"+  c #201E1B",
"@  c #1F211F",
"#  c #22211E",
"$  c #1D1E21",
"%  c #211F22",
"&  c #1E2122",
"*  c #242424",
"=  c #2A2625",
"-  c #262827",
";  c #2A2926",
":  c #252629",
">  c #2A2728",
",  c #26292A",
"<  c #2C2B2B",
"1  c #312D2C",
"2  c #2F312E",
"3  c #32312E",
"4  c #2D2D31",
"5  c #332D31",
"6  c #2E3233",
"7  c #2B3638",
"8  c #333433",
"9  c #383534",
"0  c #363836",
"q  c #3A3937",
"w  c #343539",
"e  c #36393C",
"r  c #3B3C3C",
"t  c #38373B",
"y  c #403E3F",
"u  c #3E413F",
"i  c #41403E",
"p  c #3D3D42",
"a  c #303B41",
"s  c #403F44",
"d  c #3D4144",
"f  c #3E434A",
"g  c #434344",
"h  c #44454A",
"j  c #45494B",
"k  c #4B4B4C",
"l  c #484848",
"z  c #534F4C",
"x  c #51524F",
"c  c #4C4D52",
"v  c #464D51",
"b  c #514F55",
"n  c #4E5154",
"m  c #4D5259",
"M  c #4E5859",
"N  c #535355",
"B  c #595956",
"V  c #55555B",
"C  c #58575E",
"Z  c #555A5D",
"A  c #5B5B5D",
"S  c #575956",
"D  c #61615F",
"F  c #565963",
"G  c #5C5C63",
"H  c #5C5D69",
"J  c #555762",
"K  c #605F65",
"L  c #605E69",
"P  c #5D6164",
"I  c #5E626B",
"U  c #5F696B",
"Y  c #626265",
"T  c #63646B",
"R  c #656A6C",
"E  c #6C6C6B",
"W  c #68676C",
"Q  c #6C726E",
"!  c #646671",
"~  c #666A74",
"^  c #6B6D74",
"/  c #6C6E7A",
"(  c #676C79",
")  c #6E7175",
"_  c #6E727A",
"`  c #737473",
"'  c #797976",
"]  c #72757D",
"[  c #747A7D",
"{  c #7B7C7C",
"}  c #767875",
"|  c #70706E",
" . c #827D79",
".. c #7E807F",
"X. c #81817E",
"o. c #6F7682",
"O. c #737682",
"+. c #757A85",
"@. c #7A7C85",
"#. c #777D89",
"$. c #7A7D8A",
"%. c #7D8284",
"&. c #7D818C",
"*. c #7D8391",
"=. c #848584",
"-. c #82858C",
";. c #85898D",
":. c #8C8C8C",
">. c #888888",
",. c #828691",
"<. c #848A93",
"1. c #8B8D92",
"2. c #878E99",
"3. c #8E9194",
"4. c #8D939B",
"5. c #949494",
"6. c #92959B",
"7. c #949A9D",
"8. c #9C9D9C",
"9. c #989697",
"0. c #92918D",
"q. c #A2A09E",
"w. c #8D96A1",
"e. c #959CA2",
"r. c #999DA2",
"t. c #9B9DA9",
"y. c #9291A1",
"u. c #9CA2A5",
"i. c #9CA3AA",
"p. c #97A1A7",
"a. c #A3A4A3",
"s. c #A9A9A6",
"d. c #A2A5AB",
"f. c #A4AAAD",
"g. c #ABACAC",
"h. c #A8A7AA",
"j. c #B3B1AE",
"k. c #A4ABB3",
"l. c #A7ADB6",
"z. c #ABB1B5",
"x. c #ACB3BB",
"c. c #AFB8BD",
"v. c #B4B4B3",
"b. c #B2B7BB",
"n. c #B4BABC",
"m. c #BCBCBB",
"M. c #B9B9B7",
"N. c #AFB1AE",
"B. c #BEC0BF",
"V. c #C1C1BF",
"C. c #ADB6C2",
"Z. c #B2BAC2",
"A. c #BBBEC2",
"S. c #B2B6C1",
"D. c #B7C3C6",
"F. c #BCC2C4",
"G. c #BCC4CB",
"H. c #BEC9CE",
"J. c #B6C2CA",
"K. c #BECAD2",
"L. c #BBC7D3",
"P. c #C3C4C3",
"I. c #C9C8C6",
"U. c #C2C6CB",
"Y. c #C5CACD",
"T. c #CCCDCC",
"R. c #D0D0CE",
"E. c #C4CDD3",
"W. c #CBCED2",
"Q. c #C6CFD8",
"!. c #CAD2D5",
"~. c #CCD5DB",
"^. c #C7D2D8",
"/. c #D3D3D3",
"(. c #D2D6DB",
"). c #D3D9DB",
"_. c #DFDFDF",
"`. c #DCDCDB",
"'. c #D8D8D6",
"]. c #DFE1DE",
"[. c #E1E1DF",
"{. c #D4DCE1",
"}. c #CED7E0",
"|. c #E1DFE0",
" X c #D5E1E1",
".X c #E6E6E6",
"XX c #E3E3E3",
"oX c #EAEAE9",
"OX c #ECECEC",
"+X c #E8E8E6",
"@X c #F0F1EF",
"#X c #F1F1F1",
"$X c #F5F5F5",
"%X c #F4F4F4",
"&X c #F9F9F7",
"*X c None",
"=X c #F9F9F9",
"-X c #FDFDFD",
";X c gray99",
":X c #FEFEFE",
">X c None",
",X c #FEFEFF",
"<X c #FEFEFD",
"1X c #FEFEFE",
"2X c #F6F6F8",
"3X c #EFEFF1",
/* pixels */
">X>X>X>X>X>X>X>X>X>X>X>X>X>X>X>X;X>X>X>X>X>X>X>X>X>X>X>X>X>X>X>X>X>X>X>X>X>X>X>X>X>X>X>X>X>X>X>X>X;X;X>X>X>X>X>X>X>X>X>X>X>X>X>X>X>X>X>X>X>X>X>X>X",
">X>X>X>X>X>X>X>X>X>X>X>X>X>X>X>X>X*X>X*X>X>X>X>X>X>X>X>X>X>X>X>X>X>X>X>X>X>X>X>X>X>X>X>X>X>X>X>X>X*X>X=X*X>X>X;X>X>X>X>X>X>X>X>X>X>X>X>X>X>X>X>X>X",
">X>X>X>X>X>X>X>X>X>X>X>X>X>X>X>X>X>X&X>X>X*X>X>X>X>X>X>X>X>X>X>X>X>X>X>X>X>X>X>X>X>X>X>X>X>X>X>X>X>X;X>X;X>X>X>X>X>X>X>X>X>X>X>X>X>X>X>X>X>X>X>X>X",
">X>X>X>X>X>X>X>X>X>X>X>X>X>X>X>X>X>X>X3X3X;X;X>X>X>X>X>X>X>X>X>X>X>X>X>X>X>X>X>X>X>X>X>X>X>X>X>X>X*X>X$X#X#X;X>X>X>X>X>X>X>X>X>X>X>X>X>X>X>X>X>X>X",
">X>X>X>X>X>X>X>X>X>X>X>X>X>X>X>X*X>X$XOX.X.X=X>X>X>X>X>X>X>X>X>X>X>X>X>X>X>X>X>X>X>X>X>X>X>X>X>X>X>XOX#X#X_.@X>X;X>X>X>X>X>X>X>X>X>X>X>X>X>X>X>X>X",
">X>X>X>X>X>X>X>X>X>X>X>X>X>X>X>X>X;XXXl =.+X'.>X>X>X>X>X>X>X>X>X>X>X>X>X>X>X>X>X>X>X>X>X>X>X>X>X;X$X$X9.l T.XX>X>X>X;X>X>X>X>X>X>X>X>X>X>X>X>X>X>X",
">X>X>X>X>X>X>X>X>X>X>X>X>X>X>X>X#X;X>.k < ;.XX.X>X>X>X>X>X>X>X>X>X>X>X>X>X>X>X>X>X>X>X>X>X>X>X>X=X;X8.< k ` _.{.;X>X>X>X>X>X>X>X>X>X>X>X>X>X>X>X>X",
">X>X>X>X>X>X>X>X>X>X>X>X>X>X>X>X#XR.k N s g T.W.>X>X>X>X>X>X>X>X>X>X>X>X>X>X>X>X>X>X>X>X>X>X>X>X3XXXl r N N j.'.*X>X>X>X>X>X>X>X>X>X>X>X>X>X>X>X>X",
">X>X>X>X>X>X>X>X>X*X>X>X>X>X*X#X=X` N 1.` < =.`.`.>X>X>X*X>X>X>X>X>X>X>X>X>X>X>X>X>X*X>X>X;X>X#X&X:.< Y :.A Y ).`.>X>X>X>X>X>X>X>X>X>X>X>X>X>X>X>X",
">X>X>X>X>X>X>X>X>X>X*X>X>X>X*X$XB.k ;.W.3.s r I./.#X>X*X>X*X>X>X;X;X>X>X>X>X*X>X>X>X>X*X>X>X>X3X`.g r >.).:.n d.(.*X;X;X>X;X>X>X>X>X>X>X>X>X>X>X>X",
">X>X>X>X>X>X>X>X*X>X*X>X>X>X$X$X` G d.).g.p l Y OX{.oX>X>X>X>X;X>X>X>X;X*X>X>X>X>X>X*X>X>X>X+X>X' l 0 7.(.g.W P R..X>X>X>X;X>X>X>X>X>X>X>X>X>X>X>X",
">X>X>X>X>X>X>X>X>X>X>X>X*X>X#X/.d { n.m.h.r V t | [.XXXX*X;X>X;X;X;X>X>X>X>X>X>X*X;X>X>X3X#XoX' < A 8 a.v.P.-.h v.T.;X>X>X>X>X;X>X>X>X>X>X>X>X>X>X",
">X>X>X>X>X>X>X>X>X*X>X>X>X*X*X>.c -.7.h.- ; y K * 1 h.oXXX*X;X;X>X>X>X>X>X;X>X>X>X>X*XOX;XM.8 X V k ; - 3.g.] J ' R.OX>X>X>X>X;X>X>X>X>X>X>X>X>X>X",
">X>X>X>X>X>X>X>X>X>X;X*X>X=X$Xl ~ I ;.(.) X r A N r < ^ +XT.#X;X;X>X>X>X>X>X>X>X>X>X.X;X{ : y b G s o A `.3.L O.s /.{.>X;X>X>X>X>X>X>X>X>X>X>X>X>X",
">X>X>X>X>X>X>X>X>X>X>X>X>X;X/.8 @.H ;.P.N.u r A K k K t V oX_.3X#XOX*X$X&X>X3X#X#XOX$XW 8 W c G G l r g.P.6.m $.8 v.'.;X>X>X>X>X>X>X>X>X>X>X>X>X>X",
">X>X>X>X>X>X>X>X>X*X>X>X;X;Xa.8 &.v ;.F.%.< > b K F A E r V I.XX>XoX3XXX.X*X#X>XoX/.W 0 Y A G K V 6 * | P.1.V O.g =.`.*X>X;X>X>X>X>X>X>X>X>X>X>X>X",
">X>X>X>X>X>X>X>X;X;X>X;X$X>X{ l O.h 5.Y.P.k X 2 c G G b T r X r 5.:.| +X$X` =.q.r X 8 Y N A G N w % s m.W.r.h ^ N Y '.oX>X*X>X>X>X>X>X>X>X>X>X>X>X",
">X>X>X>X>X>X>X>X>X*X>X>X$XOXY N ] p $.g.Y.v.l r c G G l < g = * < 8   k N   < 8 < < s 4 g G C N s 8 h.T.n.-.k T Y A T.`.>X>X;X;X>X>X>X>X>X>X>X>X>X",
">X>X>X>X>X>X>X>X>X;X>X;X$X#XY k O.p 1.8.I.R 8 * l l l r < r c t G b N r g N c G r l s : r g l l : 8 B P.k.<.h ^ A N R.`.>X>X>X>X>X>X>X>X>X>X>X>X>X",
">X>X>X>X>X>X>X>X>X>X>X=X;X>X>.3 ;.s / n.F.v.l < * : < < p h W C b T G K Y G T N V T c p t < : % < r s.I.g.<.p ;.q E '.OX>X;X>X>X>X>X>X>X>X>X>X>X>X",
">X>X>X>X>X>X>X>X>X>X>X>X>X=Xj.+ %.K V z.F./.m.q < : l K T G m T W K L K C T I ! T J C T C l < 8 3 a.'.B.n.R F =.: 5./.2X>X>X>X>X>X>X>X>X>X>X>X>X>X",
">X>X>X>X>X>X>X>X>X;X;X>X>XOXR.* G ;.m 3.W.6.8 3 = r V G V / ] / $._ O.H F ] _ O.^ ] ^ L G C s > ; 0 :.T.p.m @.T X v.T.>X;X>X>X*X>X>X>X>X>X>X>X>X>X",
">X>X>X>X>X>X>X>X>X>X>X;X;X%X.Xl t -.W +.z.[ b * r V H ~ ( / ,.#.$.-.$.W I $.*.$.$.*.o./ ^ F C p ; g E z.%.U 2.h 8 V.'.>X>X;X>X>X>X>X>X>X>X>X>X>X>X",
">X>X>X>X>X>X>X>X>X>X>X>X>X%XOX` X ` <.@./ g * ; h C H / *.$.$.$.$.$.$.o./ &.*.$.$.+.$.,.^ H G k < : w ~ &.&.O.$ D R.`.*X>X>X>X>X>X>X>X>X>X>X>X>X>X",
">X>X>X>X>X>X>X;X>X;X>X>X;X#X3Xm.X s O.-.H 4 8 k J T $.#.$.$.$.$.$.$.$.$.$.*.-.$.$.*.$.*.$.$./ F N 0 ; S -.@.v   s.T._.>X>X>X>X>X>X>X*X>X>X>X>X>X>X",
">X>X>X>X>X>X>X>X*X>X>X*X;X#X=X>.$ b @.! 4 , d G ^ $.@.$.$.$.$.<.$.,.$.$.$.$.*.$.$.$.,.O.$.,.O.^ T g 3 * G O.G & ' XX`.=X=X>X;X>X>X>X>X>X;X>X>X>X>X",
">X>X>X>X>X>X>X>X>X>X>X%X2XoXY + V @.] s p 4 H $.$.#.*.@.#.$.$.$.$.O.$.$.$.&.O.$.$.$.$.@.$.$.#.-.O.! 7 w h O.+.A * S _.|.OX>X*X>X;X>X>X>X*X>X>X>X>X",
">X>X>X>X>X>X>X>X>X;X#X%X/.r > D ( ,.$.<.h T ,.$.$.,.$.<.o.H L I $.! ! *.,.~ ! $.! I H o.,.$.$.,.*.<.! h ,.O.&._ Y < < I.`.XX>X;X>X>X>X>X>X>X>X*X>X",
">X>X>X;X>X>X>X>X;X;X*XV.: < K L $.O.+.O.! &.$.$.$.+.$.O.&.@.~ J H o.J O.O.G / L F I O.,.o.$.$.$.$.$.,.~ O.+.] &.E Y e @ g.XX3X*X>X>X;X>X>X>X>X>X>X",
">X>X>X>X>X>X>X;X$X*XM.. 3 T C ^ H ! O.$.&.&.#.,.$.$.-.k.A.-.] ] J L V / / V L J ~ ,.$.S.S.*.2.&.*.$.$.#.,.$.H H ! G K e o a.XXXX>X>X>X;X>X>X;X>X>X",
">X>X>X>X>X>X;X*X$Xm.: : A K G J ! -.$.2.&.+.&.@.,./ s +.b.W.4.$.! J H L L K G L +.<.E.n.-.f I ;.@.$.$.&.@.,.<.( J J P A 8 # r.`.OX>X>X;X>X>X>X>X>X",
">X;X;X>X>X>X>X*X/.4 : 8 8 c G / @.] ( $.#.&.&.-.$.a : $ , ) G.4.@.L H G F K K O.1.G.[ 6 & * 6 ` *.$.*.$.$._ / #./ G c e 0 * * m._.*X>X*X>X>X;X>X>X",
";X>X;X>X>X;X=XOXS < 4 < h Y G Z k Y e.4.+.-.&.,.n @ ; @ 3 o ;.E.*./ G G G J W $.G.i.  < - 2 $ f *.O.&.&.2.p.Q f n Y G c 3 > 8 g Y.+X;X>X>X;X>X>X>X",
">X>X;X>X>X;X*XoX[.5.: V T A d & 7 k.~.4.#.,.O.2.Z 8.a.S ; & j ~.y.! J G K V G 1.~.I & 2 g 7.f.Z 2.&.&.#.*.~.x.j $ p V Y G * ' .X.X/.;X>X>X*X>X>X>X",
";X>X>X>X>X=X/.+X`.- l A K N 8 2 p ) H.p.O.&.&.x.H.E.).Y.S - e c.y.! c V G c H 4.Z.f @ k F.).).H.Z.&.&.&.w.E.[ g 0 - k W V c * m.XXg.=X*X>X>X>X;X>X",
">X>X;X>X>X>XOX{.u 3 8 N l ; ; g 7.W.J.e.O.+.,.i.i.e.M 6 0 - - 8.d.T s K T h G 7.z., 2 9 2 j 3.p.i.<.&._ e.D.!.u.l ; < g Y 8 8 w I.I.>X*X;X>X>X>X>X",
">X=X>X>X=X%X%Xq.h.D l l - < : 0 ;.U.n.<.O.m <.G.R o & x = # + ' l.m w G P e c i.:.o # # k 3 o C G.4.Z / *.z.H.4.u # ; : q b l g.9.'.XX;X>X*X>X>X>X",
">X>X;X>X;X&X%X;Xf.e K k u - A F.Q.G.K.*.&.m c i.!.d - z.z  .# D d.k g G K h h e.| # ' l j.3 6 F.f.m M &.&.K.H.Y.T.Q : w z A g 3.>X3XR.>X>X>X;X;X>X",
"*X>X>X>X*X|.P.oXp V K B < 2 N Z x.H.H.p.R Z , d 3.f.& A I.a.# k 7.V c G G c m 6.A   0.R.| @ 8.i.d 7 v P 7.K.J.Z.P M 3 > N K V 8 `.m.m.*X*X>X>X>X>X",
">X*X>X>X>X3X%X:.p K K q * * : 7.E.J.H.H._ , , x [ u.u.& X X o e U.-.G G K F &.A.h X & o @ 1.f.O.Z , @ ) D.G.J.K.i.6 : * 8 K T p ' W.XX>X>X*X>X>X>X",
">X;X>X>X>X#X.Xr m T C s 9 + 1.(.G.H.J.k.y.[ e r @.x.!.c.U d C 8 d G G F F H G h 4 C g D d.E.Z.,.g 8 / w.t.L.G.G.).8.< < g V G Z 0 I./.>X>X>X;X>X>X",
";X>X>X>X$X>Xg.< T C L V 3 1 j 8 4.H.E.e._ T g * 8 @.u.G.E.!.Y.@.V A G G G G C Z ] U.Y.Y.E.k.,.h * r T / w.E.E.7.e j 2 2 V G N E 0 0._.%X>X>X>X=X>X",
">X>X>X;X>X&X` < s C T N * * * 8 x.E.H.G.4.c 4 : g G +.7.n.k.,.,.) F F G H G C ~ &.*.i.Z.t.#.Z h : < h <.H.A.E.G.0 & - * c Y G p 3 D T.&X>X*X>X>X>X",
">X*X*X>X#X$XV X 6 A K h * 0 * G E.Q.L.E.G.e.$.` p 4 E [ +.O.#.$.$.I J G H F P +.&.O.+.+.o.( 7 w | @.e.J.K.K.E.^.} & 8 - p G G w # u '.XX=X>X>X>X>X",
">X;X>X>X%X'.E A q A Y c h l o 3.~.~ p.E.x.2.&.G & a T O.,.( t.,.&._ F H H J / &.&.p._ *.O.~ h * V [ <.n.H.k._ D.a.X r z j L G p k | m.'.>X>X>X*X>X",
">X>X$X;X3X_.#Xk 9 W G V T y + X.u & z.H.E.C.<.! U +.&.&.O.P Q.2.$.@.H G H J O.&.,.~.T / ,.&.O.! W &.C.K.E.n.& 0 =.: q W V K W p q @X'.I.;X;X;X>X>X",
">X*X>X>X+X&X@Xq g V J G G y < % * e n.Y.f.x.E.Z.i.2.&.*._ v H.f.#.&.G F G F +.$.t.E.Z U <.$.2.k.C.Q.Z.i.!.F.r * % < 1 K K J V c ; `.@XR.;X;X>X*X>X",
">X>X>X=X3X.X{.3 8 6 H G Y r * 1 1 : F.p.7 z.H.Z.w.&.&.*.m d E.z.+.$.H G F F O.#.i.~.v j &.#.*.2.x.H.J.a ;.!.r * 1 = 9 A G K w w * R.`.R.;X;X*X>X>X",
">X>X;X>X&XT.I.1 * r G C K s * y 3 < >.< < v.~.J.x.C.p.{ 8 p E.c.$.$.G G F J +.+.k.~.M - [ y.C.C.D.E.H.e @ >.8 ; g > t K G G r * # V.N.@X>X;X>X>X>X",
"*X>X>X>X>X&X{.r g > G G K c s A = < - 2 2 n.i.Z.K.E.d.P   M Y.c.@.@.T H G P +.&.l.^.P   b i.K.H.D.p.P.u ; * - ; N l h K N W 5 y 9 v.'.>X;X>X;X>X>X",
">X>X>X>X>X3X{.a.Y ; Y p C C V K 9 2 < * < A 6 Z.L.E.i.< & Z ~.l.O.<.O.H F o.*.+.k.E.Q @ > 7.!.G.H.e A 8 * < < 1 G G V K p Y < N s.V.R.>X;X;X;X>X>X",
">X>X;X;X>X#X.X*X| = A * V G G K r : < g ; @ 8 F.J.!.;.0 & ~ }.i.+.&.,._ _ <.&.%.p.^.%.X 8 @.!.D.G.h . < s ; ; q G V Y A : N 1 N $XR.R.;X*X>X>X;X>X",
"*X>X;X*X>X>XXX>XX.X g * c K h G N * g V = ; 0 n.K.E.3.A   ;.K.*.#.*.I F J U &.+.&.K.4.& k 1.D.K.Y.g # = N k : k K s K N : g > Y ;XV.OX;X*X>X*X>X>X",
">X>X>X>X>X*XXX|.s.o 6 4 t K 5 l D r N V 8 - 2 n.K.H.b.g @ u.C.+.#.m F _ ) C v @.%.k.x., 0 g.H.K.G.8 1 < c F t B V 4 G r : < o >.`.m.&X<X>X>X$X>X>X",
">X>X>X>X>X>X#XI.T.< : ; ; N 4 3 Y N N Y 8 * 6 i.E.^.7.X 0 B.e.+.m G ) N N ^ P m %.4.K.d   X.~.K.Z.4 ; ; K G V D e < x 8 ; * * v.g.`.>X*X>X>X>X>X>X",
">X>X>X>X;X*X>XoX.Xk - ; ; 8 < = l Y G n g 3 & 7.K.^._ o Z Y.4.P m d 4 6 6 < d n M *.E.U   A ^.K.k.< ; g C V L c ; < 8 ; * = r P.P.>X&X>X>X>X*X>X>X",
">X>X>X>X>X>X*X=XoX5.o x 2 = < ; < N V p G g * ..^.H.c o ` ).i.H h t q ; < q 0 g Z e.~.6.. r D.~.3.X h V s c B 3 = < = ; x . ..V..X$X>X>X*X>X>X>X>X",
">X>X>X>X>X>X>X;X+X[.; X.S # = ; ; 8 k < N N # A Q.G.g   R !.Z.( c s p g i q r k T z.}.] . 3 c.K.Q & k G < l g # 3 = = i 5.# I.T.*X>X>X>X>X>X>X*X>X",
">X;X;X>X>X>X>X>X&XOX8.0.8.. 9 = < ; 2 ; p B : 0 J.b.r 8 g F.H.l.p Z w h g 8 N d p.H.E.Z = 0 7.~.g @ N l > < 3 1 * 3 # :.q.:.T.[.>X>X>X>X>X>X>X>X>X",
">X>X;X>X>X>X>X>X;X[.[.`.OX3 = q = ; = < : k q . 4.n.=.u @ i.E.Q.4.c v h j m j ;.K.E.x., 3 %.z.k.# 0 b > > < 3 # u = # '.OXT.V.<X*X*X>X>X>X>X>X>X>X",
">X>X>X>X>X>X>X;X;X>X_.+X;Xv.O E q.. 1 = < < i X n F.v.0 $ W !.A.Y.b.{ v j ) z.Y.D.~.{ & 2 u.!.P . u 3 = 1 ; . 0.{ O 9.;X'.m.;X;X*X>X>X>X>X;X>X>X>X",
">X>X>X>X>X>X>X>X;X>X>XXXV.'.=.= <X0.. 1 ; < ; < * 9.Y.e : ; f.!.Y.~. XY.G.).~.E.E.z.0 < : n.f., ; ; # < < @ } ;Xq E /.M.V.&X>X>X>X>X>X;X>X>X>X*X>X",
">X;X>X>X>X>X>X>X>X;X;X;XOXI._.9.R.<XE . 9 - 8 : * u B.g = > 2 d M _ ) 7 7 ) [ Z k 8 = ; e B.x @ = 3 ; 3 # B oX[.0.T.j._.>X>X>X;X>X>X>X*X>X>X>X>X>X",
">X>X>X>X>X>X>X>X;X;X>X;X>X;X+X'.%Xq.'.i # 1 ; ; < @ R R o 9 - @ ..e.e...) 7.e.;.- = 1 . D ) . 2 ; - 3 # 3 V.B.+XI.I.&X>X*X;X>X;X>X>X>X>X>X;X>X>X>X",
">X>X>X>X>X>X>X>X>X>X;X;X>X>X=X3XT.n./.m.@ < * 1 ; 1 < y = = ; * B V./.`.{.).!.R # 2 = = i < 1 < ; # ; + q.M.V.M.XX*X>X>X*X>X>X>X>X>X>X>X>X>X>X>X>X",
">X>X>X>X>X>X>X>X>X>X>X>X>X>X>X*X*X>X#XoX} ; S . ; 1 = ; = 1 = ; . y K T R P d X ; ; 3 - = 1 < = + z 9 B V.[.;X&X&X>X>X>X>X>X>X>X>X>X>X>X>X>X>X>X>X",
">X>X>X>X>X>X>X>X>X>X>X>X>X>X>X>X>X>X>XoXI.u B.9 = ; < 1 ; = ; 3 y + + + * * * 1 1 # ; 1 1 # = 1 1 m.i s.I.<X;X<X>X>X;X>X>X>X>X>X>X>X>X>X>X>X>X>X>X",
">X>X>X>X>X>X>X>X>X>X>X;X;X>X>X>X;X&X>X*XXXX.XXq.. 1 = < ; 9 # = 1 5 = 1 < = < = = < ; 3 = 1 5 . X.&XX.M.[.<X&X;X;X>X>X>X>X>X*X>X>X>X>X>X>X>X>X>X>X",
">X>X>X>X>X>X>X>X>X>X>X>X>X>X>X;X>X>X>X>X'.|.&XXXl # < < < < < 1 = = 1 ; < < 1 ; 1 1 = = 1 = 1 1 /.&X'.v.;X>X>X>X>X>X>X>X>X>X;X>X>X>X>X>X>X>X>X>X>X",
">X>X>X>X>X>X>X>X>X>X>X>X>X>X>X>X>X*X*X;X*X.Xs.T.0.# 1 3 # 3 1 # 1 = 1 = # = = < + 1 5 + 1 1 . =.m.V.V.[.>X;X*X>X>X>X>X;X>X>X>X>X>X>X>X>X>X>X>X>X>X",
">X>X>X>X>X>X>X>X>X;X>X>X>X>X>X>X>X>X>X>X$XOX/.oXR.= # I.B . 3 < = 1 1 ; ; 1 1 = 1 1 . z T.9 + s.V.+X`.>X*X>X>X;X;X>X>X*X;X>X>X>X>X>X>X>X>X>X>X>X>X",
">X>X>X>X>X>X>X>X>X>X>X>X>X>X>X>X>X;X>X;X>X;X;X@X[.z i &X%X| + < 1 = 1 ; ; 1 ; < 1 + D +X&XB y M.'.;X&X>X>X>X;X>X;X>X>X>X>X;X;X>X>X>X>X>X>X>X>X>X>X",
">X>X>X>X>X>X>X>X>X>X>X>X>X>X>X>X>X>X>X>X>X>X;X;X@XE 9.V.m.;X=.# < ; 1 ; 1 ; ; < # ` %Xj./.v.S V.%X;X;X>X>X>X>X>X>X>X>X>X>X>X>X>X>X>X>X>X>X>X>X>X>X"
};
