/* XPM */
static char *c16fec1c2a1940e2f8579883f750b2deUvZK9Y3zozr7J4e2[] = {
/* columns rows colors chars-per-pixel */
"73 73 253 2 ",
"   c #0E0604",
".  c #180905",
"X  c #1C120C",
"o  c #181509",
"O  c #1C1412",
"+  c #1B1B15",
"@  c #1D1D1D",
"#  c #171819",
"$  c #10100E",
"%  c #250805",
"&  c #360A09",
"*  c #23130C",
"=  c #26170C",
"-  c #36130C",
";  c #251B15",
":  c #221D1D",
">  c #281818",
",  c #371516",
"<  c #330E13",
"1  c #1D221D",
"2  c #17231A",
"3  c #102118",
"4  c #23211D",
"5  c #2A231B",
"6  c #38251B",
"7  c #1E1E22",
"8  c #1C1722",
"9  c #221D22",
"0  c #2A1D24",
"q  c #251B26",
"w  c #1C2222",
"e  c #1A2922",
"r  c #0F2620",
"t  c #232123",
"y  c #2B2424",
"u  c #26262A",
"i  c #372826",
"p  c #372F32",
"a  c #480B0B",
"s  c #4C1717",
"d  c #521212",
"f  c #691619",
"g  c #781B18",
"h  c #680E13",
"j  c #5D251D",
"k  c #6D1C25",
"l  c #463328",
"z  c #4D3A34",
"x  c #762729",
"c  c #5A2021",
"v  c #52443B",
"b  c #65443C",
"n  c #564D44",
"m  c #6B5850",
"M  c #786458",
"N  c #756F68",
"B  c #88171A",
"V  c #96161B",
"C  c #A91919",
"Z  c #B6191B",
"A  c #B70B1E",
"S  c #A4231E",
"D  c #971D26",
"F  c #8A1622",
"G  c #A91824",
"H  c #B41B23",
"J  c #BC1B24",
"K  c #B81A29",
"L  c #B31D32",
"P  c #96272A",
"I  c #902B2F",
"U  c #AA2529",
"Y  c #B6252A",
"T  c #A92832",
"R  c #B52A35",
"E  c #BA2936",
"W  c #AA3639",
"Q  c #B63337",
"!  c #A8352B",
"~  c #CD1B1D",
"^  c #C8141B",
"/  c #D4141D",
"(  c #D41C1E",
")  c #DB1A1E",
"_  c #DA141C",
"`  c #CF0C1A",
"'  c #E2171E",
"]  c #C8221B",
"[  c #D5211D",
"{  c #CB1421",
"}  c #C41C25",
"|  c #CD1C23",
" . c #C31C2B",
".. c #CD1E2A",
"X. c #C51528",
"o. c #D51624",
"O. c #DB1622",
"+. c #D41D24",
"@. c #DB1B23",
"#. c #D41C2A",
"$. c #DB1B2B",
"%. c #D9162C",
"&. c #D71B32",
"*. c #CD132A",
"=. c #E31524",
"-. c #E11924",
";. c #E4172A",
":. c #E41D34",
">. c #CD2124",
",. c #C5232C",
"<. c #CB232C",
"1. c #C7282B",
"2. c #D32124",
"3. c #D92126",
"4. c #D4222A",
"5. c #DA222B",
"6. c #D82A2C",
"7. c #C72735",
"8. c #DB2433",
"9. c #D52735",
"0. c #C73439",
"q. c #DA3235",
"w. c #E4222C",
"e. c #E42434",
"r. c #B4423D",
"t. c #884032",
"y. c #C94B3D",
"u. c #B53943",
"i. c #AC3D43",
"p. c #C33A43",
"a. c #D93043",
"s. c #BC4A53",
"d. c #B95656",
"f. c #B44B4A",
"g. c #866C5A",
"h. c #B66A5D",
"j. c #89746B",
"k. c #8F766B",
"l. c #B07270",
"z. c #965145",
"x. c #C94447",
"c. c #CA5055",
"v. c #C9645D",
"b. c #CC5C64",
"n. c #C56A68",
"m. c #D5686A",
"M. c #C97475",
"N. c #D57676",
"B. c #D76A6F",
"V. c #E87171",
"C. c #E65960",
"Z. c #998578",
"A. c #A78B7A",
"S. c #D48377",
"D. c #EE847B",
"F. c #8C7B81",
"G. c #DD7B83",
"H. c #E57A82",
"J. c #F97C8C",
"K. c #978883",
"L. c #AB968A",
"P. c #AD9A90",
"I. c #B3A39A",
"U. c #B6A9A4",
"Y. c #D5928E",
"T. c #E78786",
"R. c #E89399",
"E. c #FA9698",
"W. c #F9918B",
"Q. c #C7AA99",
"!. c #FCA69B",
"~. c #EDA89D",
"^. c #C5AEA5",
"/. c #C9B3A5",
"(. c #D7BAAA",
"). c #D0B9B2",
"_. c #EBA9A4",
"`. c #FCA8A7",
"'. c #EABBAB",
"]. c #FEB6AA",
"[. c #FDBAB6",
"{. c #EFB3B5",
"}. c #EC9AA2",
"|. c #D6C3B7",
" X c #ECCAB5",
".X c #ECCCBA",
"XX c #E8C5B7",
"oX c #F4C5B4",
"OX c #F4C9B5",
"+X c #FBCBB6",
"@X c #FFC5BC",
"#X c #F4CCBB",
"$X c #FCCDBC",
"%X c #FAC4B6",
"&X c #ECD3BD",
"*X c #F5D2BD",
"=X c #FCD2BD",
"-X c #F7D6BB",
";X c #EAC2AD",
":X c #DBC2C1",
">X c #E9CDC6",
",X c #F3CEC2",
"<X c #FECEC2",
"1X c #FFC8C8",
"2X c #EBD4C7",
"3X c #F4D3C2",
"4X c #FDD3C3",
"5X c #FDDAC5",
"6X c #F4D6CB",
"7X c #FDD4CA",
"8X c #F5DACD",
"9X c #FDDBCB",
"0X c #F5DAC3",
"qX c #FFD5D3",
"wX c #FCDDD3",
"eX c #FFDCDC",
"rX c #F7D9D7",
"tX c #ECD9D3",
"yX c #FFE1CD",
"uX c #FEE3D4",
"iX c #FEE4DB",
"pX c #F6E4D7",
"aX c #F3E9DE",
"sX c #FFDEE2",
"dX c #EBECE7",
"fX c #FFE4E3",
"gX c #FEEDE4",
"hX c #FEEDEB",
"jX c #F5EAE7",
"kX c #EBF6EC",
"lX c #FEF3E5",
"zX c #F3F3EC",
"xX c #FEF3EC",
"cX c #FEFBED",
"vX c #F4F7EB",
"bX c #FDEDF3",
"nX c #FEEEFD",
"mX c #F5ECF3",
"MX c #EDF4F2",
"NX c #ECFBF5",
"BX c #EDFCFB",
"VX c #E9F8F9",
"CX c #F5F6F6",
"ZX c #FDF4F4",
"AX c #F3FAF5",
"SX c #FDFAF4",
"DX c #F5F6FA",
"FX c #FCF4FB",
"GX c #F2F9FA",
"HX c #F3FBFB",
"JX c #FCFBFC",
"KX c #E8EBF1",
"LX c #DEF1F7",
/* pixels */
"BXHXFXhXJXvXvXNXSXAXVXBXBXBXJXJXJXAXAXSXAXSXSXSXZXZXCXZXFXZXDXJXMXBXBXAXCXZXFXFXbXFXZXbXZXZXZXFXFXnXFXDXGXBXNXBXBXVXAXJXDXFXFXFXDXJXZXDXZXAXCXCXCX",
"BXHXFXbXgXcXvXkXdXJXHXVXLXVXDXmXCXCXAXAXZXAXZXZXCXZXFXJXJXFXDXCXHXHXHXCXCXCXmXZXZXFXFXZXZXFXDXFXZXFXFXDXHXHXHXNXAXHXDXDXDXDXFXDXDXAXCXAXJXDXJXCXCX",
"VXkXjXZXxXcXcXxXSXdXdXHXBXJXnXFXFXFXFXFXJXFXFXJXFXFXCXCXDXMXMXGXAXMXMXMXCXCXJXJXGXDXDXDXHXGXGXGXJXDXDXZXAXDXZXZXZXFXZXFXCXAXHXNXDXZXDXDXCXDXDXCXCX",
"NXJXbXqX_.R.Y.{.qXxXSXlXtXjXhXbXhXhXbXbXbXbXbXbXbXFXmXCXDXDXJXHXCXCXSXSXJXAXMXdXJXAXGXBXBXBXBXDXCXDXCXJXSXFXZXZXZXZXbXZXZXAXAXNXAXDXSXDXZXAXSXDXCX",
"dXZX{.s.E A K 7.u.B.[.gXSXSXxXgXbXZXZXZXFXFXZXFXZXZXJXJXJXSXCXjXzXjXjXdXdXAXAXJXAXHXGXDXJXDXDXFXGXCXZXJXZXZXZXZXSXZXSXvXAXAXvXZXAXDXCXAXCXCXDXDXCX",
"SXZXR.F L :.:.` :.A R B.T.M.n.N.M.M.M.M.M.M.M.M.Y.Y.Y._.%X7XiXxXxXZXZXFXxXxXvXvXAXAXCXGXDXDXFXDXDXCXDXZXZXDXFXDXAXNXAXNXSXxXZXxXZXCXZXAXAXJXZXAXCX",
"kXSX1Xl.R 7.:.;.=.%.<.E Y G K J  .} } } }  .J Y K H G H T Q p.x.V.J.`.1XsXhXxXcXAXvXAXAXGXDXFXDXHXHXCXDXFXFXDXAXNXNXNXNXAXxXxXbXZXJXZXDXZXAXCXCXZX",
"kXSXcX7Xb.T ..%.;.;.o...<.9.8.;.@.-.=.-.-.-.-.@.O.#.$.5.#.+.| } X.K Y E s.N._.<XgXlXxXxXZXZXxXAXNXBXHXCXFXFXDXAXNXVXNXNXAXZXZXZXZXDXAXSXDXDXCXJXDX",
"NXNXkXlXxXV.U 4.%.%.+.#.#.#.-.-.) ) ) ) ) ) ) ) ) @.( @.2.( +.>...,.,.,.<.,.E T c.G.[.sXZXxXlXvXNXNXHXAXDXCXmXDXHXBXGXGXGXGXCXCXCXCXCXCXCXCXCXCXCX",
"BXAXkXlXlXS.S 4.%.%.%.#.#.#.#.+.+.+.[ ( ) [ @.) +.) @.@.@.+.+.2.<.>.<.4.#.$.%.&.&.L T s.Y.<XlXcXcXMXdXAXJXJXJXDXFXFXFXFXGXMXVXMXCXCXCXCXCXDXCXCXCX",
"FXFXhXxXxXN.Z #.=.=.=.%.#.>.4.>.>.>.....3.>.#.#.+.%.#.#.+.#.#.#.>.] >.+.3.#.$.$.{ 9.a.L G T b.E.fXhXZXhXdXMXGXFXFXFXnXFXDXNXVXVXCXCXAXZXCXAXZXCXCX",
"nXnXZXlXlXm.J @.;.;.$.@.#.#...>.>...4.#.#.#.#.#.$.#.$.#.&.$.#.#.| [ ( +.@.@.@.$.%.#.#.X.#.<. .U c.}.sXxXxXZXSXCXmXFXnXnXFXBXVXVXHXCXCXDXCXCXDXCXCX",
"nXnXCXxXgXh.H >.+.+.>.>.#.-.=.%.$.#.#.#.#.$.$.$.$.%.&.%.&.%.&.$.#.) @.@.-.@.#.@.o.{ *.#.>.4.4.9.J H c.}.fXZXxXzXZXFXbXZXFXJXJXCXCXCXCXCXCXDXCXCXCX",
"nXnXAXvXpXd.Y ] 2.2.>.>.+.-.=.=.@.#.#.$.$.%.$.#.$.$.%.$.$.#.$.%.@.-.-.@.O.@.@.@.e.3.@.| | #.| #.$.8.H G c.[.gXhXZXSXAXCXCXFXJXmXCXCXCXCXCXCXCXCXDX",
"FXGXNXlX9Xu.| -.@.( >.>.2.+.-.-.@.) ) @.@.@.@.@.@.@.+.+.+.+.+.3.%.#.2.+.+.+.+.+.^ +.#.3.5.+.+.3._ / +.q.Y T G.fXfXSXSXNXMXAXZXZXZXDXCXDXCXCXCXCXCX",
"DXGXNXlX7XQ ~ =.-.+.>.] 2.( +.@.[ ( [ ) ) ) ) ) +.@.+.3.>.2.+.+.+.+.#...#.5.#.5.#.+.@.| { @.#.+._ _ @.o.| ,.E i.1XiXSXvXkXMXZXZXCXCXCXZXDXAXCXCXZX",
"nXFXNXcX[.G e._ ) @.>.>.+.@.+.+.2.[ ( ) ) @.-.@.@.+.| | #.#.+.$.#.#.#.#.#.#.#.+.+.....+.#.+.#.@.@.-.) +.@.+...,.T T.fXxXxXJXNXHXAXJXZXZXMXKXMXHXZX",
"nXFXkXcX`.Z 8.) @.+.2.>.@.#.+.2.2.| +.+.@.@.@.@.@.+.+.+.#.#.%.#.+.#.2.| +.4.| 2.>.#.+.+.| #.@.@.#.@.+.+.+.@.@.+.7.T M.eXZXjXJXBXAXMXmXFXJXBXMXMXxX",
"nXFXkXcXT.H 5.@.@.+.>.#.@.O.+.+.+.@.+.+.2.>.2.[ +.+.+.+.+.+.| | 2.+.+.[ >.>.>.>.>.2.2.+.+.2.+.+.>.2.+.@.2.2.>.+.^ 9.G b.sXZXgXCXHXMXbXFXFXDXGXCXZX",
"FXFXkXcXm.J 5.O.@.+.| 2.@.@.+.#.+.@.+.2.| >.| >.2.@.+.+.+.+.2.+.2.( 2.( >.[ 2.[ [ +.[ ( +.( @.+.>.2.+.+.~ [ 2.2.6.{ a.D d.sXhXhXvXAXJXFXmXFXJXHXAX",
"FXFXAXxXc. .4.O.@.( | +.@.$.+.+.>.>.+.#.#.$.@.#.3.2.>.+.2.) ) @.) ) @.( @.) 2.( ( ) ) O._ =._ _ +.+.2.+.) ) @.2.o.8.#.a.G c.sXbXjXkXZXFXnXnXDXMXNX",
"FXSXSXiXf.,.#.@.@.@.2.+.$.@.+.+.+.2.@.#.@.-.O.@.#.| +.2.3.3.-.@.@.+.@.@.+.#.@.@.@.@.@.O.=.%.=.=.+.+.+.@.@.) ) @.~ #.o.#.&.L s.eXZXZXmXZXJXnXmXJXVX",
"FXFXSX7Xu...+.@.@.@.+.@.O.$.@.@.@.=.-.@.+.#.#.4.#.#.#.%.%.+.3.5.#.4.#.#.#.#.4.&.$.&.%.$.%.:.&.%.+.+.@.=.=.' ) ( 3.^ ~ #.9.Y Y b.eXZXZXdXFXFXmXJXNX",
"FXZXZX%XQ ..~ @.@.@.+.@.$.@.#.@.=.' ) +.2...>.....#.#.9.<.7.7.7.E R E R E R E E E E E 7. .p.7.a.<.#.%.@.-.@.@.+.+.( | 4.| <.9.G G.sXJXdXJXJXnXmXNX",
"ZXbXSX~.E #.5./ ) @.+.+.@.@.#.@.) [ [ ~ | 5.#.&.&.&.p.L T I f j s s s s s d s d s c c c x x I t.Q 0.,.1.>...#.&.@.$.3.~ >.>.+.<.T R.nXjXMXJXjXFXZX",
"CXhXZXY.Y #.3.( @.@.+.+.#.@.#.+.[ 2.[ >.1.1.7.7.L G F h d - = ; ; ; ; ; ; 5 5 ; ; > < = > , , s f B P ! Q E <.*.O.$.#.#.2.+.+.$.7.i.1XSXAXMXJXZXZX",
"CXhXbXM.K %.3.( ) @.@.3.#.#.@.@.) @.2.1.1.! P f a - < % ; > 4 4 4 @ : @ 7 @ + : : > 9 > 0 > 0 , a a s j x I E &.&.&.%.$.;.+.+.3.8.G M.xXSXvXJXZXFX",
"CXhXhXd. .O.+.+.@.@.+.+.+.+.#.#.@.3.1.R P j s = ; + 7 w e e 2 # w 9 q w w q 7 t 7 7 9 9 q 0 q 0 , & * = - k P E 9.&.#.%.@.@.+.@.o.<.P _.SXvXZXJXZX",
"CXxXsXi.7.%.+.) ) ( +.+.+.+.+.#.4.7.T g a * + 2 e e 7 @ 2 r r 3 @ 0 9 9 9 9 9 9 9 9 q 0 q > q > 5 4 + + ; < s h G p.9.<...5.+._ _ e.Y W fXhXvXJXZX",
"CXZX1XW &.=.+.( ) @.( +.#.>.4. .E D h & * + 2 r 3 @ # 9 @ w e w : 9 9 9 9 9 9 9 q u 0 t 0 q 0 9 2 w w t 1 + ; - d D Q 7.<.>.3.-.) ( q.V R.xXzXMXCX",
"zXSX{.T &.=.$.( @.+.( +.<.4.| K x s < * y u e # t q 0 0 0 > : + : : 4 4 t 4 : 4 + + @ + ; @ @ 9 8 7 q 7 w w 1 4 < s x U ,.#.#.-.) _ $.<.u.eXlXNXNX",
"AXZXR.L 8.%.@.+.2.) @.+.4.,.Y P s > > > @ # 7 7 q q q > > 0 > y : : + 1 1 + 1 + 1 4 : + + @ @ 8 u 7 t w 7 2 3 2 1 . a x Q <.o.-._ ) / 9.L E.SXkXMX",
"DXnXJ.A q.+.~ +.>.[ ) _ *.u.x < > > : : : 9 9 9 q : 9 9 : : : : 7 7 7 w 7 @ @ 2 w : @ : @ w @ q # u 8 2 2 4 6 X 4 ; ; , I W ^ -.( ( 3.|  .x.fXhXCX",
"BXbXC.` 8.| o.5.>.[ ' ) 7.I c 8 t : : : : : 9 9 9 9 9 : : @ 4 : w 7 w w 7 7 7 7 7 1 9 w 9 : w 9 u 8 w 3 2 = o i y 4 # 5 s I 1./ @.~ >.2.#.0.[.hXbX",
"NXgXc.` 5.+.#.#.2.2._ 2.R g < 8 9 4 9 : 9 7 q w 9 9 7 : 9 4 : 1 7 7 7 7 @ 7 @ @ 9 4 9 1 9 @ : 9 $ u w 2 + = l :Xm # 7 5 % g 0.| +.+.>.5.#.K D.ZXxX",
"SXeXu.#.3.+.4.| 4.| +.1.D a < q 9 : : 1 9 7 q 7 9 9 9 w 9 @ @ 1 4 4 : : : @ : + : : : : : 4 1 9 q 7 2 $ 5 = L.hX^.q w : - d D 7.4.+.| 4.#.J s.fXZX",
"SX7XR #.3.@.4.| 5.X.<.Y d - 0 q 9 + t 1 7 7 q 7 7 7 q w 4 7 @ : : 4 : : : : ; : : : 4 : 9 4 : : u 8 2 5   m 3X>XfXm $ + i & h p...+.+.| #...R 1XZX",
"cX{.U 9.+.@.+.| 5...7.F & + p 8 9 1 @ w 7 w w w w 7 7 7 7 1 1 : : ; ; + : : : : : : : : : : : 4 $ u 1 o l ;X9X9XrXU.$ # i & f P ,.#.5.~ %.9.R }.SX",
"xX~.G #.5.( ~ @.o.9.T d = 2 t 8 7 : w : 7 @ w 7 7 w 7 t 9 : @ : : ; : ; : : 4 9 9 w 9 : : 9 : 9 y > 4 o U.0X-XOX2XrXn 3 q > , k 7.+.5.~ +.4.L G.SX",
"lXY.L #.5.+.~ #.*.a.I a e r 8 t : 1 : 1 t @ 7 w 7 9 7 @ 9 : : 9 : + : : 4 9 9 w 7 7 7 7 7 4 9 : y O ; L.0X0X-XyX6XpXP.$ 0 q O k E | 5.3.$.#. .B.ZX",
"lXM.K %.5.2.+.+.%.9.k < w r 2 7 + 4 + + $ p r w 1 t + O u 5 O   z p 7 u @ @ 7 8 w 8 7 7 9 @ + 9 ; o Z.pX&XOX9X$X7XXXaXn $ 1 @ s T 6.^ +.+.$. .c.gX",
"gXn. .%.4.>.~ @.:.L d 8 e # # 4 5 ; + 1 I.K.+ # 4 ; ; i ; . z P.dXI.$ 7 u u 8 @ 7 7 7 8 9 u 9 ; = I.8X2X5X5XoX$XOXwXtXI.+ e y % D 7.5.5.( #.4.u.iX",
"uXv.} %.5.>.[ ( #.E s # e u u 5 * = z |.jXi X i O 5 *   z P.>XtXdXK.O 9 9 # # u q # 7 u 4 X ; p ^.2X,XXX9X4XoX9X#X9X6XpXN $ q , B 1.2.w./ | 9.R 7X",
"yXd. .%.5.+.[ ~ X.T s # w q ; . 6 Z.pXpXm * ; X . ; b P.2X8X2XtXsXz p > t 9 0 # q 7 ; ; . 5 j..XwX0X0X0X#X=X7X$X7XOX9X8X2Xv X < g E ^ ( 3.| 5.E 7X",
"qXi. .&.%.@.[ ] q.D - t 9 . 6 b (.0X/.n   = l v Z.^.tXpX7X6X9XyXK.  ; O 5 y y ; o X ; l k.).yXyX;X5X9X*X#X4X4X$X<X5X#X,XuX).v . h Y 2./ 6.>.+.R <X",
"1Xu.7.*.;.@.[ ] ,.F s 8 O 6 Z.0X*XyXQ.A.Q.|.2X0X2XwXuX,X.X5XOXI.- . % = * . * i z M I.(.0XuXyXOX5X=XoXOX5X$X#X9X#X9X$X4X#XiXQ.b a U e./ 2.>.| R 1X",
"1Xi.p.*.;.' [ ] 0.B % p F.:XyX+XyX;XuX0X9X8X|.0X6X6X3X X#XuX4XY.k.Z.g.k.A.L.U.|.pXrX8XuX5XOX-X5X+X+X5X9X#X,X9X#X4X4X<X4X$X#XuX(.z.P 5./ [ >.| 0.7X",
"1XT 7.*.=.) [ ] K u.L.>XrX6X5X=X;XyX*X.X-X8X9X0X8X.X3XwX4X%X=X4X5X6XlX8XuXrX8XwX6X3X*X*X=X=X=X+X=X$XOX4X5X3X*X4X4X4X$X$X5X=X.X9X].! 4.#.>.] +.p.wX",
"@XU &.;.2.>.2.3.Z V.4X9X,X>X3X=X#X=X=X=X9XXXuX.X6XeX>XXX9X$X+X=X#X3X#X3X#X3X*X#X=X5X4XOX-XyX;X5X.XuX,X(.-XyX0X3X,X4X<X7X,X3X-X4X].S ] 5.3.2.#.c.fX",
"1XT :.;.>.>.3.3.Z C.4X-X-X-X-X=X5X5X4X$X#X#XwX3XM >XfXgX<X#X=X=X<X<X4X3X0X-X*X=X4X+X$X=X=X-XyXyX8XpXL.k.yX;X=X4X<X6X,X7X3X*X-X=X!.! 1.3.@.5.K b.hX",
"<XW &.%.2.>.+.2.~ c.=X=X$X5X4X=X-XOXOXyX4XlXk.).K.i k.Z.8X9X5X=X4X4X3X-X*X*X-X=X5X+X$X9X=X XuXP.M n o |.g.A.gXOX6X7X7X7X*X*X4X=X!.Y 6.[ O.9.C G.ZX",
"<XW ,.O.2.2.( 2.} x.4X+X$X4X$X*X*X9X5X X&X3X/.6 m * p z M &X-X0X4X<X4X4X4X3X3X=X4X=X<X5X*X3XQ.l N v 6 = v yX(.-X<X4X7X4X<X=X4X4XW.C 6.[ @.9.G `.xX",
"1Xf.Y @.+.+.[ 2.2.0.@X$X@X<X<X0XyX#X*XyX Xg.L.j.. X I.).  U.yX0X4X4X,X=X3X-X4X=X$X5X<X,X3XuXM   |.N o ; Z.m g.yX#X4X4X4X<X<X4X4XD.Z [ w.$.Y W 7XxX",
"9Xd.H #.@.3.] 2.2.1.`.4X@X<X#X7X X5X#X.X0X/.6 X ; i 4 p X M pX X*X<X$X3X4X-X*X3X4X4X$X,X6X8Xl = r r $ . o g.yX-X*X3X4X<X<X<X<X$Xm.Z [ ' $.C h.iXxX",
"iXn.J $.3.@.~ >.#.,.D.<X@X4X#X0X,XuX9X X7XwX:Xj.y O > O o n yX2X4X<X4X=X*X3X=X3X4X<X0X,XqXXXl > r w e m |.yX-X-X-X*X#X4X4X<X<X%Xy.] -.O.e.G Y.cXxX",
"gXn.J $.5.3.~ 2.@.Z m.1X<X5X3X3X4X.X<X5X#X7X6XfXk.$ 9 y X v pX&X4X=X4X3X4X*X3X=X,X#XqX,XwX|., * 8 w $ I.yX;X-X-X4X-X*X4X4X<X@X[.Y [ ;.O.9.U '.cXxX",
"fXR.K :.5.~ ( 2.#.} p.].9X4X3X3X<X<X<X4X4X4X6XtXF.O > q ; z pX6X,X<X4X=X*X4X*X*X4XOX7X7X>X8Xl * 8 p * ^.8X*X-X=X*X-X0X4XOX4X7XT.C 6.' o. .s.gXlXxX",
"hX[.L *.#.~ 3.( / q.A W.4X#X#X5X4X<X$X4X<X6X7X7X).X , i % P.wXXX$X<X4X4X4X*X4X5X,X<X7X,X3XwXM   p . z eX9X#X$X-X-X0X#X5X4X%X$Xc.Y ( ( 3.L E.xXzXZX",
"hXeXa.*.4.| 2.( +.9.Z x.7X$X=X5X<X<X<X$X<X4X1X7XqXz % % % ).qX7X<X<X5X4X.X;X X4X<X<X7X#X6X8X^.l . % F.iXoX$X4X-X-X8X*X4X$X<X!.U ] ] ..C c.eXbXCXZX",
"xXhXB.L q.+./ @.+.^ 8.H !.$X=X$X<X$X4X<X$X4X5X6XeX).b l Q.uX X4X4X<X<X4X.X'.;X=X5X#X4X<X,X,XwXL.m F.7X7X%X5X$X-X3X0X0X$X%X7Xv.S ^ q.7.B R.bXbXbXCX",
"SXhX`.T 7.#./ @.+.^ 5. .x.1X4X+X4X4X=X=X=X$X4X4X,X8X,X7XqX X9X#X<X$X#X4X*X.X#X4X4X+X$X4X4X#X9XuX1XuXwX#X9X4XOX0X,X.X5X@X@XE.Y 1.>.q.U d.eXnXnXFXGX",
"AXhXrXi.K $.w.@.( +.#.8.J V.5X+X=X4X=X$X=X=X3X4X7XqX>X3X9X7X#X=X7X<X$X4X4X=X=X4X$X$X4X4X4X0X X9X9X3X#X#X=X=X5X4X3X,X4X1X1Xp.C 6.6.Z P `.hXbXFXnXGX",
"AXzXZXY.Y %.e./ +.4.$.@.#.0.!.=X=X-X-X=X=X$X=X3X,X.X3X3XOX5X$X4X4X4X4X4X4X=X$X+X=X=X4X$X4X4X#X X&X X4X5XOX4X5X#X8X4X4X[.V.Y ~ 3.6.C B.fXhXFXnXnXVX",
"HXdXZXqXp.X.w.( ( +./ :.#.~ f.=X=X-X=X=X=X$X$X4X4X0XqX3X5X*X5XOX$X4X4X4X-X=X4X=X4X$X4X$X$XOXyX-X0X#X-X=X$X7X XwX<X<X<XE.U 1.@.@.Y W 7XZXZXJXmXFXBX",
"HXkXgXhXE.Y ,.#.+.@.@.@.5.Z U d.-X-X+X+X$X=X5X7X5X<X#X4X4X3X-X5X-X-X0X-X*X4X4X4X4X4X<X4X4X=X=X4X5X4X4X4X4X3X$X4X$X<XE.Q Y w.) 4.I {.FXhXbXFXZXFXBX",
"NXAXSXgXfXT.V 1.3.+./ ` | 6.1.Y v.-XyX+X4X=X$X[.#X4X5X9X4X.X*X3X-X#X*X5X5XOXXX<X<X%XoX<X4X$X#X=X#X<X5X4X*X3X4X$X<X`.x.} >.~ e.G R.mXFXbXZXFXmXAXCX",
"HXKXJXjXxXiXn.U 1.5.w.;._ _ 3.1.S v.+X$X].=X5X5X9X3X&X&X0X4X=X$X5XoX'.+X4X7X5X9X'.#X<X4X4X=X=X=X5X<X*X0XyX=X$X@XE.7.X...<.1.Y B.mXFXFXbXFXFXzXCXCX",
"HXKXBXHXjXxXeXh.U } $.;.' ;.w.^ 1.Y Q !.uX%XoX-X&X&X&X0X*X$X$X4X=X+XoX'.oX<X$XoX_.@X7X$X+X=X=X-X$X7X5X X X4X].W.J 8.*.&.a.P d.uXZXbXbXZXZXmXDXAXCX",
"FXJXVXHXAXdXcXwXn.W J #.-._ -.;.) 3.7.Y V.4X$X=X0X-X-X-X5X4X=X@X%X$X=X%X'.'.'.'.<X4X<X$X$X4X=X=X$X+X+X-X-X].v.Z *.%.e.&.D n.uXxXZXbXFXJXCXCXCXMXCX",
"FXJXVXVXHXMXjXZXgXR.u.U <.+.( O._ @.^ <.Y r.!.+X=X=X+X+X+X$X$X$X4X$X+X$X4X$X$X=X<X$X4X9X=XoX+X+X@X$X5X+XS.! S ] e.O.&.G m.eXxXvXZXZXZXDXCXSXAXMXNX",
"FXnXFXmXCXJXCXjXfXZXqXN.! U ,.2./ 5.5.| 1.Y S v.W.[.4X9X=X+X<X9X5X$X=X-X0X0X-X4X9X4X$X$X=X5XyX4X1X`.V.! S ] 6.] 2.,.T T.qXhXJXkXCXZXCXmXCXJXJXMXCX",
"FXFXFXFXFXmXGXJXCXxXhXhXeXT.f.R >.+.( ~ >.6.1.J Y x.V.!.[.].Y.h.S.~.=X5X-X4X5X=X_.S.z.t.h.!.].W.C.7.C 1.6.~ ~ 6.4.7.W.gXZXmXMXHXMXJXAXCXMXMXCXAXCX",
"ZXZXZXbXFXFXDXGXBXGXAXhXxXhXeX`.C.] 2.+.3.@.[ [ 2.,.Z U f.W g g B V d.].oX~.%XB.P B B V B U 0.J J | <.<.-.' ) 2.>.Q [.lXlXAXHXBXGXCXCXCXAXCXCXMXHX"
};
