/* XPM */
static char *d54f19134da14885f9d5c8ab00e8bddboOr0GS9AxnwccjSr[] = {
/* columns rows colors chars-per-pixel */
"73 73 256 2 ",
"   c #0C0806",
".  c #170904",
"X  c #19140A",
"o  c #1D1C1D",
"O  c #191816",
"+  c #0C1710",
"@  c #270B09",
"#  c #370B0B",
"$  c #27140B",
"%  c #34140D",
"&  c #221D1D",
"*  c #2A1C1B",
"=  c #271815",
"-  c #351614",
";  c #370B12",
":  c #1C221C",
">  c #152419",
",  c #152513",
"<  c #27221B",
"1  c #362419",
"2  c #1E1E22",
"3  c #161F20",
"4  c #221D22",
"5  c #2B1A24",
"6  c #341920",
"7  c #1C2223",
"8  c #172322",
"9  c #232223",
"0  c #292526",
"q  c #352825",
"w  c #35362D",
"e  c #4A1317",
"r  c #551415",
"t  c #4B0C0D",
"y  c #67181A",
"u  c #751419",
"i  c #541E25",
"p  c #721B27",
"a  c #4B342D",
"s  c #742830",
"d  c #5B221D",
"f  c #57463B",
"g  c #644437",
"h  c #772E4B",
"j  c #594D4B",
"k  c #69534E",
"l  c #766758",
"z  c #6F5372",
"x  c #766F69",
"c  c #415F79",
"v  c #981819",
"b  c #8D1418",
"n  c #A7181A",
"m  c #B7171B",
"M  c #AD1013",
"N  c #93231A",
"B  c #A8241D",
"V  c #BA241B",
"C  c #BE240A",
"Z  c #841723",
"A  c #981926",
"S  c #961E39",
"D  c #A91B28",
"F  c #B81A26",
"G  c #B4192F",
"H  c #88262A",
"J  c #982729",
"K  c #922E37",
"L  c #A8252A",
"P  c #B82529",
"I  c #A92734",
"U  c #BC2D35",
"Y  c #B72836",
"T  c #A93538",
"R  c #BA373A",
"E  c #B4322D",
"W  c #CC1C1D",
"Q  c #C7181B",
"!  c #D41B1D",
"~  c #D9181D",
"^  c #D30E1A",
"/  c #E2191D",
"(  c #C8231B",
")  c #D2211C",
"_  c #D62516",
"`  c #C7250C",
"'  c #C31C24",
"]  c #CD1D23",
"[  c #CD1D2A",
"{  c #C61827",
"}  c #D41623",
"|  c #DB1522",
" . c #D51D24",
".. c #DB1B24",
"X. c #D41C2A",
"o. c #DB1B2A",
"O. c #DA162B",
"+. c #CB1E32",
"@. c #D41B32",
"#. c #D91A34",
"$. c #D30E24",
"%. c #E21624",
"&. c #E21B24",
"*. c #E31B2C",
"=. c #E3162A",
"-. c #E6182E",
";. c #C42325",
":. c #CD2224",
">. c #CC232B",
",. c #C6272B",
"<. c #D22123",
"1. c #D3222B",
"2. c #DB232A",
"3. c #D92427",
"4. c #CB2433",
"5. c #C62936",
"6. c #D72534",
"7. c #C2333A",
"8. c #D13531",
"9. c #E2222B",
"0. c #E52435",
"q. c #E7313B",
"w. c #E02216",
"e. c #BA4638",
"r. c #C3453B",
"t. c #943349",
"y. c #AA3B41",
"u. c #B43145",
"i. c #9C3165",
"p. c #C93844",
"a. c #E32D46",
"s. c #C71F42",
"d. c #B6484B",
"f. c #B24D53",
"g. c #8A4574",
"h. c #8D756D",
"j. c #96675A",
"k. c #C9575B",
"l. c #D65355",
"z. c #CB4C4B",
"x. c #CF635A",
"c. c #CD5965",
"v. c #D26E6F",
"b. c #E86C6D",
"n. c #E5565C",
"m. c #978678",
"M. c #A78979",
"N. c #CA877C",
"B. c #F3897B",
"V. c #3D7BAC",
"C. c #327295",
"Z. c #5374A4",
"A. c #E67B86",
"S. c #D77B81",
"D. c #964580",
"F. c #23A0B8",
"G. c #548DB2",
"H. c #6892B7",
"J. c #5B97AC",
"K. c #2F9BD1",
"L. c #0AABD8",
"P. c #29A5D7",
"I. c #04ABEA",
"U. c #00B2E7",
"Y. c #05AAF4",
"T. c #13A8ED",
"R. c #239CDC",
"E. c #5092C9",
"W. c #52A3D5",
"Q. c #0DC1E6",
"!. c #AF978F",
"~. c #B9A49A",
"^. c #A5A196",
"/. c #B8ACA8",
"(. c #9E908D",
"). c #DA8588",
"_. c #D48D8F",
"`. c #F1918E",
"'. c #C3AB9E",
"]. c #FFA89C",
"[. c #EFAB9C",
"{. c #CFB6AB",
"}. c #FBA8A7",
"|. c #E5BCAB",
" X c #FEB5A9",
".X c #FCBAB7",
"XX c #F0B1B1",
"oX c #D892A3",
"OX c #DAC7BD",
"+X c #E5C3AC",
"@X c #F8C9AD",
"#X c #EEC9B5",
"$X c #EDCCBA",
"%X c #EAC6B8",
"&X c #FEC3B5",
"*X c #F4CBB5",
"=X c #FCCCB5",
"-X c #FEC4BB",
";X c #F4CCBB",
":X c #FCCDBC",
">X c #F2C4B6",
",X c #F5D2BD",
"<X c #FCD2BD",
"1X c #FCD5B6",
"2X c #F2D3B4",
"3X c #FDB8C6",
"4X c #95CEDE",
"5X c #E7CCC2",
"6X c #FEC5C4",
"7X c #FDCDC2",
"8X c #FECDCB",
"9X c #F9CBC6",
"0X c #EBD3C7",
"qX c #F5D3C3",
"wX c #FCD3C2",
"eX c #FDDAC4",
"rX c #F4D5CA",
"tX c #FDD4CA",
"yX c #FDDBCB",
"uX c #F5DAC9",
"iX c #FFCCD3",
"pX c #FCDDD2",
"aX c #FCD8D7",
"sX c #EAD9D5",
"dX c #FDE1CB",
"fX c #FFE3D3",
"gX c #FFE5DA",
"hX c #FCE8D9",
"jX c #E4E0D7",
"kX c #F7D9E3",
"lX c #D1E3F1",
"zX c #ECEAE9",
"xX c #FFE5E3",
"cX c #FDEBE4",
"vX c #FEEDEC",
"bX c #FCE7E7",
"nX c #EAF7EB",
"mX c #FEF3ED",
"MX c #FEFBED",
"NX c #F6F4EA",
"BX c #FDEDF2",
"VX c #F9ECF5",
"CX c #EDFBF5",
"ZX c #ECFCFB",
"AX c #EAF7F5",
"SX c #F4F6F5",
"DX c #FDF4F3",
"FX c #F3FAF5",
"GX c #FEFAF4",
"HX c #F5F6F9",
"JX c #FDF4FB",
"KX c #F4FBFC",
"LX c #FDFAFC",
"PX c #ECEDF5",
"IX c #D3CFD2",
"UX c #B0B7D3",
/* pixels */
"VXLXAXMX.XF o.%.....X. ..... .] ..~ ~ / &.&.%.&.....X.X.o.o.O.O.=.O.O.o.o.X.O.X. .X.X.X.X...X.X.X.[ :.X...%.=.X.U  XxXxXDXDXJXHXSXSXGXJXKXZXAXCXvX",
"JXJXnXMX}.F X.%.~ ..:. ...o. . . . ...&...%.~ ..| ....X.X.X.o.o.o.o.X.....X.X...X. .X.X.X.X.o. .X. .X. ...| o.X.p.A [.vXvXGXPXLXCXCXPXNXHXZXKXAXDX",
"JXHXnXMX`.m 2.| ..~ <.<..... .<. . . . ... ... . . . .<.<.] :.<... . ... . .]  .:. . .<.}  . . .3.o..... . . .:.Q p.A ).DXvXLXnXCXFXSXVXHXLXKXAXDX",
"JXFXnXMXv.F o.| &... . .....X. . .<. .<. . . .<. . . . . . .<.<.] <.<.<.<.) <.:. .<.<.) <. .~ 3...o.| |  .<.:.<.o.X.@.D S.vXvXGXnXKXLXLXJXPXHXCXCX",
"JXJXFXMXk.F 2.| .. . .<.X.X...] ..1. .X.X.:.:.:.<.:.<. . .! ~ ..<.) ) :.) ) :.) W )  .! ! ~ | .. ... .:.:.! <. . .o.O.@.Y v.aXDXnXnXSXJXJXVXHXKXCX",
"JXDXGXcXd.' o.~ .... . .o... . . . . . . .X.[  .:.<.:. .....~ %. .W ] ] :.W W :.!  . .! ..~ ........ .] <.) ! <.} =.O.-.#.G v.xXGXDXDXJXJXJXJXHXCX",
"JXVXGXyXR { 3....... . ...o. . . . . .....o...X.X.X.X.X. .X..... .:.[ 1.>.X.:.X.X.X.o.o.o.*.=.o.X. ..... . . .! 3.^ O.=.X.[ p.v.kXBXJXSXVXJXJXHXZX",
"JXBXGX6XY {  .....~  . .X.X. . .) ! .. . . .X.o.o.@.X.+.4.,.Y Y U Y U U U U U U U 5.5.5.4.4.6.@.[ >.X....... . .~ 9...X.1.] 1.G }.aXGXFXPXHXJXJXCX",
"DXDXDX[.P 6...! ~ .. . . . .o.../ / ) W ] >.1.X.#.#.@.5.U K H s p y y d y y y y p p p H K t.t.T R 5.>. .X.o.*.*.| 2.:.;.;.,.1.;.I }.JXzXKXLXPXLXSX",
"DXmXDXoXG 2. .! ~ 3. . . .X. . ./ ~ 3. .;.,.5.5.u.G S Z y r % @ - = - - % ; % ; $ ; t % ; e e r Z A L E 5.6.O.$.| ..1.:.:.(  .1.+.f.xXmXCXZXJXVXJX",
"JXvXDXv.F o.!  .~ ..<. . .X... . .~  .X.5.5.L H y t - % $ = * * * * < * & & & 5 * 4 * = 5 ; - - t r d s K I @.a.O.O.X.1. .! ! 3.1.A ).mXNXFXLXVXJX",
"GXvXBXk.F o.! <.) ....3.X. .o.X...<.>.Y L p r % @ = O O : 4 : 7 7 7 7 7 7 2 3 2 4 9 4 4 4 4 5 * = $ $ % e u I s.4.@.X.[  ...&.....5.T XXmXSXSXLXJX",
"SXmXxXd.+.*.} <.! .. . . .X...o.O.@.Y H e $ O + 2 9 & 9 2 : > > 8 3 3 3 3 3 8 3 3 2 3 3 2 2 2 o , , : < = - r u I 5.@.X. ...&.%.~ 6.P f.vXbXGXSXSX",
"DXDXiXy.@.-.W <.)  . . .X. .X.X.5.I y t = O > 3 3 o & & & 2 8 8 7 7 2 2 3 7 7 7 7 7 8 7 7 7 4 3 > 8 : : : O % t u D 5.6.X. .%.~ &. .>.I }.DXGXAXHX",
"DXLXXXI @.*. .) ....3. . .X. .,.K i # @ < 0 2 2 4 5 5 = * & & : & & & o & & o o 2 2 4 o & & o o 4 5 9 9 2 < < * ; r H P 4.X.!  .~ ! O.+.u.BXDXCXZX",
"SXDXoXI X...! <...) ~  .[ [ Y T t = * 0 < o 2 4 4 4 4 5 * * & = * 5 * 4 & & 4 & 2 & < 4 4 & & 5 5 5 4 4 : 7 > > < ; r H R ,.( 3.W o.O.+.Y }.DXnXCX",
"FXDXA.$.@.] } .. .! ~ ~ W R t.; * * & & 2 2 4 2 2 4 & 4 & & = : 7 2 2 2 4 7 4 : 2 4 4 & 2 9 o 4 4 2 2 o < < < = O 0 = t K L >.! ..1.X.1.,.c.vXmXSX",
"FXvXb.Q 1.:.} o. .) ~ _ ,.J i 5 4 o 4 o 4 4 2 4 4 2 2 : & : : : 2 2 2 7 2 2 2 2 2 : 4 7 & o 9 2 2 2 7 : , X < * 4 3 9 = e T 8.! .. .] :.' p.&XmXDX",
"DXvXl.{ 1.W 3. . .3._ <.E u ; 5 4 4 4 4 4 4 4 4 4 9 4 o o : : o 2 2 2 2 7 & : & & : & o & o 2 2 o 0 + > X < - !.j   0 5 # H 5.] ..} :.1.[ P ).DXvX",
"MXaXp.+.3. .3.] ] <. .;.J t @ 0 4 & & 4 4 4 4 4 4 4 2 & < o & & 4 : & < & o & & & & & & 2 < o < 4 o > + 0 = h.DX~.= 2 2 % t L 4.o.! 1.<.1.F f.DXDX",
"GXtXY X.....3.:.1.] 1.L y ; 5 4 4 4 4 4 4 4 4 4 4 4 4 9 & : & & & = < & & < = & & & < o & & & 4 0 o , , , f rXaXaXj + > 1 # u 7.1...1.' 2.F y.iXDX",
"MX.XY X.....:.W 1.>.5.A # * 0 2 4 4 4 4 4 4 4 2 4 4 4 4 & < = & & & = & & & : & & & 4 & & & & & 5 5 , , , '.pX-XaX!.+ 8 O - r I [ ..3.W 2.>.T }.GX",
"MX[.P O...~ :.:.X.4.P y $ o 7 7 4 4 4 2 4 4 4 2 4 2 4 & & & : < = & < < & & 4 4 & 2 2 & < 2 4 & & O < X m.dX1XtXiX5Xw 8 O 6 e Z 4.! ) :. .1.Y A.GX",
"MX_.F ..&. .( :.{ 5.A r * > 8 7 2 < 4 2 2 7 4 7 & 7 2 o & & = = < & & o & & 7 2 2 4 2 7 4 4 & & & < . x dX2X1X<X9XaXm.O 7 O 5 y 5.W  .1. .1.{ v.DX",
"cXN.V *.2.! ) :.2.5.y ; 9 8 8 > o 9 O : + 8 0 : O 9 < O : < < X & & 5 O 0 2 2 9 2 2 2 2 2 2 9 & <   l 0XeX;XwX<X%XgXsX0 = o & e L  .3.! 2. .F k.cX",
"MXx.{ =.o.) ) :.{ 5.p = 7 > > 9 9 = < X x (.+ < O 9 O < < X = x {.^.O o 9 4 3 3 2 2 2 4 4 2 O = . h.0XyXwX<X2X<XeX%X0X!.  w O ; L :.<.W  .1.6.u.gX",
"hXv.{ O.o.:.) ) 0.I e O 7 > X < X X < ^.jXj O , , < X X q l ~.sXzX^.  0 4 5 5 2 4 2 O o 5 * & = m.jXpX|.wXeX*XeXqX$XqXgXj . 9 - b P 1.3.W ] 2.U pX",
"fXf.{ O.2. .) ) [ I e O : 0 < $ X l OXcXm.X = < < . 1 h.'.dXcXsXDXj 4 0 O O 2 2 0 O * q X   j {.dXuX9XwXwX:X*X<X#XfX,XyX|.q O - u U 1...<.Q 1.U 8X",
"uXd.G O.o..._ ! 6.b ; o 2   $ 1 M.dXuXk   $ $ 1 f M.5XuXfXrXwXyX~.X 1 = 5 0 0 < O = X @ f ~.yXhXuX#X,XyX:X;XwX,X,XeX:X>XcX~.< @ u U W ^ 3.<.X.U 7X",
"9Xe.Y +.o.| ~ ` 8.A - 0 o X l |.fXhXm.j.h.M.'.{.hXdXqXtXeXqX>X|.1 . $ . X @ . $ q a h.'.dXfXqX*XeX<X;X%X,XyXeX,XwX=XwX:XtXgX!.e t E 2.} >.>.X.U 6X",
"9XT Y 5.-.%.w.Q ;.b @ O j ~.uX<XwX;XtXfXdXuXuXfXqX$XyX,X>XfXwXM.g k k k l l (.!.{.0XpXdX<X2X=X<X&XwXeXyXeX$X*XwX<X:X<XeX#XqXcX!.s J 6.0.( ;.X.7.8X",
"6XT 5.+.6.%.&.W ,.T j./.jXsXyX=X,X#XyX$X,XeX,XqXuXqXuXtX7X=X:XeXhX7XyXpXgXrXgXyXuXuX,X*X<X<X1X=XwX:X;XwX$XwXyXwX<X:X:XyX;X;XwXpX}.E { 9.( :.1.7.tX",
"6XL 6.o.] ! &...F b.tXyXuXqX,XwX*XeX<XeX$XqXaX5XsX5XuXqXwXeX1X<X:X7X7XqXqXqX,X,XeX#XwXwX*XeX=X;XyX%XpXuX$X<XwXeX9X9XwXwXqXqXqX:X XB :. .2. .@.p.kX",
"6XI 6.O.:.:.....F x.eX:XwXwX<XwXwXeX,X,XfX%XdXqX(.hXxX0XuXeX|.<X:X7X:XwX,X,X,X,X1XeX=X,XwX<XwXhXrXgX{.h.fXdX#X7X9XwX9XqXwXqX1X<X].E ;.<.2.} @.k.BX",
"6XT 4.X.:.] | ..' l.eX>X:X8X,XeX,X#XyX<X,XtX!.uXh.j ~.5XfX>X<XeXwX7X<X7X,X,X,X,X;XyX:X:XeX;XyX{.(.h.1 '.'.M.uXdXwX9XtX9XwX,XwX<X].E :. .*.X.P v.BX",
"6XT ,.1. . ... .' z.eX:X-X7X,XqXdXqX;X2X$XcXM.a h.. q % h.gX,X*X7X7XwX,X,XqX,X,X;X:X7XeX:XyX|.f f w 1 g 1 $XdX+X7XtXwXtX7X<XwXwX`.P <.....1.L [.DX",
"8Xd.F :.3. .!  .' 7.:XwX-X7X9XuX,XyX>XdX|.h.;Xk . . ~./.@ '.fX#XwX,XwX,XeXqX<XwXtX>XeX7XwXdXm.  IXx X = m.M.j.dX,X7XwXwX7X:XeX7XB.C 3...} 8.J 7XDX",
"tXf.F X. ... .<.<.U  XyX-X:X;XqX;X;XyX|.hX!.- a q = j k   h.fXqXwX7XwXwX,XwXwX<XwX7X8X#XyXuXa X w 7 7 X % g #X2X:XqXwXwXwX7X8X:Xb.m 9.%.o.P f.gXmX",
"gXf.P X.....W  .1.F `.wX&X8XuXqXeXyXeXtX%XpX!.j $ * =   * k 0X5XqX7X,XwXwX<X:XwX7XwX7X5XpX%X= 1 8 3   a m.1XdX1X,X,X,XwXwX7X:X-Xr.` &.=.o.P v.FXmX",
"mXv.F X...3.W 3.2.m b.7X&XwXwXqXqX7XwX7XwXyXaXaXx . 5 0 . f jXuXqXqXqXwX,XwX<X7X7XtX8XuXuXOX1 = 7 0 & !.fXdX+XeX,X,X,X7XwXwX7X&X7.) ..=.@.L |.MXmX",
"mX).{ #.O. .! ] } >.z..XeXtX,XwX7X7X,X7XqXwXrXsX(.. 5 * X k gX5XwX,X,X;X<XeXwX:XtX-X8XuXuX5Xw < 4 0 5 '.$X;XeX2X,X,X,XqX<X:XyX`.V ! ^ -.{ d.gXMXDX",
"mX}.G -.O.] <.<. .1.M }.=X$XdX,XwXwX7X:X:XuXuXaX~.X 6 5   h.0X0XqXwXeXeXwX,XwXwX:X7X8X9XqXsXk   5   i 0XgXyX1X<X2XdX$XeXyX&XwXx.V <...[ Y A.DXNXBX",
"MXiXU O.6.Q 3.! 2.} m b.:X*XdX,XwXwX7X<X,X9XuXtX{.a - $ - {.0XyXqX7XwXwX;X%X;XeX;XwX:XwXqXfX!.$ = @ h.9X>X;X#X2X,XdX$X<X:X:X XE Q 3.{ P u.iXJXSXDX",
"cXmXc.{ 6.] 2.W ..^ 6.P  XeX=X<X7X,X,X7X7XwXwXrXmX!.$ % h.uXuX;XwX:XqX7X;X|.+X<XwX:X:X7XtXyX0Xm.i k %XaX:XyXyXwX$XdXuX*X&XwXv.D  .W 8.I v.VXbXJXSX",
"NXDX`.D 6.X.2.! !  .} F x.<X=X1XwXwX:X<X<X<XwXwX%XgX{.{.yXyX,XwXeX7X:XtX,X%X#X<XeX:XwX;XeXqXyXrX0XrXpXwX;X=X=XyX,XqXwX-X7X].U P 2.Q U T iXBXVXJXHX",
"SXvXiXT F 1.3.! .... .] 5.`.yX<X<XwXwX<X<X:X7XwXuXuXpX5XuXwXwX:X7X7X:XwX,X,X,XeXwX:XyX>XtX,X;XyXrXuX;X7XfXwX;X,XqXuX:X8X7Xl.F <.! 8.v _.JXBXJXJXHX",
"FXNXvX).G O.<.~ 2.~ o.} 1.z. X1X<XwX<X<X<X<X<X,XtX%XyXtX7X7XeX:X:X:X:XwX,X,X,X<X;X<X<X=XwX<X*X;X,X,X,X,X*X<X,XqXrXrX:X6X`.P W 3.! 5.f.aXBXJXVXJXZX",
"FXNXMX-Xu.>.X. . .....! ! P x.wX:X,X<X<X<X:X<X7X:XyXqXwXeX;X1X<X7X8XtX7X,X2X1X,X1X<X=X<X<X:XeX,XdX#X<XyX*XyXtXyX$XtX:X}.P ,.} :.5.L .XDXDXJXVXLXZX",
"GXcXNXDXS.I a.$.$.-.W Q 8.( P b.,X,XwXwX:X:XwX:X7X7XqXwXeX,X,X,X7X8X8X:X:X1X1X@X=X1X1X*X=XwXdX<X,X,X;XtXtX8X,XqX$X<X Xz.^ 0.Q 5.s oXJXvXvXLXJXDXHX",
"cXNXGXDXkXS.A a.=.=.~ ^ Q ( >.P `.=XwX:X7XwX<X,XwX7X;X;X,X<X<XyX8X7X:XwX<X@X@XeX@X@X1XeXeX*X#XwX2XdXyX;X>XwXuX;X<X:X7.' *.| a.v S.sXJXDXBXDXSXGXFX",
"DXNXLXzXLXiXu.Y -.-.-./ <.( Q U N B.wX<X:X,XqXdX;X,XwXeXwX<X=X*XwX@X+X;XuXyXqXtXeX-X>X7XtX8XtXiXyX2X;XyXyXtX:X7X Xe.' $.O.o.P k.aXJXDXvXJXDXPXKXFX",
"LXHXHXCXHXLXiXd.m =.=.%.3.>.:.;.U n b.&X:X1XdX+XqXwXwX:X:X<XwXeX1X@X+X+X$XfXrX5X{.%X8X7X6X8X8X9X$XdXyX:X:X:X-X Xr.,.{ 0.a.D y.8XDXJXBXBXLXDXNXHXHX",
"PXLXPXKXKXSXDX6Xk.n ;.8.;.Q *.*.=.-.F R ].<X=XdX2X<X<X=X=X;X1X1X2X1X1X+X|.XX5X|.-XtXtX,X<XyXyXwX,X2X>X:XeX.Xb.7.m q.O.@.G f.3XJXBXDXBXDXJXGXSXSXFX",
"ZXKXZXHXKXPXDXGXgXv.T L P 1.=.%.^ %.*.F E v. X=X:XeXeX<X<X=X1X2X1X1X1X1X:X.X3X9XtXwX,X<X1X1X2X;X1X<XeX:X`.z.F Q -.^ @.F d.6XDXBXvXDXLXDXSXSXHXFXFX",
"KXAXKXAXPXLXDXzXzXMX.Xf.L { @.-.0.%...9.;.V r.b. X&X:X=X=X<XeX1X<X;X1X<XtX8XwXeX2X,XyXdX1X1X1X1X<X&X`.l.,.P :.X.=.-.[ k.tXLXzXLXSXJXLXSXnXSXKXFXHX",
"ZXKXKXHXLXJXvXGXFXjXmXxX}.c.Y G Q ! .. .1.:.F P E x.]. X<X:X X_.}.8XyXwX.X:XwXwXwX[.v.f.N.@X=X XB.z.;.' 1.:.] ..*.} b.aXmXnXKXHXFXSXJXHXFXSXHXAXAX",
"FXFXCXFXDXDXDXSXFXnXDXvXBXkX3X`.n.( ` 3.W  .2.<.,.F P R k.d.J u S y.v.9X&X].=X`.y.p b A A y.l.P ,.{ [ X.<.3.3.3.:.,..XcXcXNXKXAXAXHXHXFXHXFXFXFXHX",
"DXSXDXGXGXDXJXGXnXFXJXvXDXxXBXgXz.;.;.3.!  .o.| ..X.:.,.P n v L A S b e.z.e.e.N N A G D b n { [ X.X... . .<.:.:.;.E z.iXmXmXAXZXHXFXHXFXHXFXHXSXFX",
"DXmXmXDXGXSXFXHXLXHXHXzXDXbXcX}.7.Q ( :.W :.3.} ..=.=.X.Q M n D D I v v ( ` C N v B D G D n F X.] X...o.<.:.:.:...W m v.gXvXHXZXZXFXHXHXHXAXSXSXFX",
"DXDXmXMXNXFXCXCXLXzXLXHXSXGX9Xy.' ^  .] W :.3.! %.%.%.o.X.F M v b n N V ( ` ,.B B v M n n D Q [ :.] X.X.X.:.:.<.~ | 1.D `.vXLXnXHXHXFXHXHXHXSXHXHX",
"DXDXDXmXMXFXFXKXKXAXKXHXbXBXA.D o.-.9.3.W :. .! | ..O.o.Q M n B B N b I Y s.s.S A v m m M M ..o.:.,.>.:.1...| | ~ *.-.{ I .XDXnXFXHXHXHXHXHXHXDXSX",
"JXJXFXDXSXSXSXHXKXKXZXNXmX XI { o.=.*.....!  ...! ....X.Q n n D N y s z g.D.D.h s b M Q M m =.o.:.:.>.[ | =.*.| ....o.6.D c.aXGXDXHXHXFXJXHXSXHXDX",
"ZXZXZXCXZXSXVXJXJXHXPXmXxXv.F 0.{ ] ] .. .....2... .] :.,.>.m v H z Z.G.K.W.P.E.c k Z M B V [ $.1...| *.=.=.o.:.;.' 1.1.4.D `.GXBXJXHXHXSXHXDXSXHX",
"ZXZXZXZXHXJXVXJXVXPXDXvX.Xv >. .>.>.[ 1.2. .} 2... .W ( >.,.U S z G.K.R.Y.Y.I.I.K.H.z K T 7.+.6. .| %.%.=.=.X.<.V ,.:.[ [ +.z.aXBXHXHXFXJXJXHXHXDX",
"CXCXDXDXHXHXVXJXSXGXnXmXl.M 6.3.[ >. . .:.;.,.+.| ..` ` ) 4.s.g.E.K.T.T.T.Y.Y.I.T.R.E.Z.t.u.$.X.....o...o...X. .1.Q 6.W o.1.' `.BXzXKXFXVXHXLXAXDX",
"nXCXDXJXHXHXJXJXFXNXMX&Xp.| .. .O.X.~ ~ ) :.4.+.| / ` ` 3.Y i.Z.K.U.Y.Y.Y.Y.I.I.Y.T.E.Z.t.u.{ X. .X... ... . . .} ! 9. .2.o.Q n.xXmXFXSXJXHXZXAXDX",
"nXCXmXDXHXHXJXJXSXNXFXv.P 0.!  .o.X.) _ ! ..+.@.O...w._ ..Y g.E.R.L.I.Y.I.I.I.I.Y.T.K.H.oXu.[ 3... . . . ... . .]  .2.} 3.2.Q P .XGXSXSXJXHXAXZXJX",
"CXCXmXSXHXHXHXDXNXNXNXf.F 6.^  .o.%.) ~ ..O.#.#.O.| / / $.d.H.K.P.I.U.U.I.U.U.U.Y.T.P.H.BXk.F 3.X. . . . .X. . . .3.} .. .o...F ).DXNXPXJXHXZXZXSX",
"FXmXDXJXHXHXHXHXSXmX3XT ;.X. .3.o.| ) ! ~ %.#.#.#.=.&.%.m S.4XF.L.Y.Y.I.I.U.U.L.U.L.F.4XfX[.C (  .X. . . .3. . .2. .W 3.3.} 2.P f.xXDXNXVXJXZXZXSX",
"mXDXSXSXHXHXHXHXGXmX).Y 6.} ........) _ ~ &.#.#.#.o./ ..5.3X4XF.L.Y.Y.Y.I.I.L.I.Q.L.E.lXOX1Xl.V <... . ...X. . .3.} } 2. .} o.;.K 8XDXDXDXJXZXAXHX",
"DXDXSXFXHXHXHXSXLXvXc.+.@... .) <. .) ) <...@.@.o.O.! P b.iXlXW.P.T.T.T.R.P.R.R.P.F.4XlXsX:X`.( :. .3. . . ... . . .o. . . . .,.I }.DXmXDXDXZXZXHX",
"BXBXHXFXFXHXFXSXLXkXp.+.O.X.W  .:.:.<.! ) <.>.X.O.2.( L `.aXVXUXZ.V.V.V.V.Z.Z.Z.C.J.UXsXfX<X&X8.<. ...X. ...X. .}  .2.] ..2.} 6.G S.xXmXDXSXZXZXFX",
"BXDXSXFXHXHXFXSXGX6XY #.-.X. . .:. . . . .:.1.1... .V e.@X:XiX3Xt.s s h s h s h i h.iXwXqX1X].;.:. . ... . . .o. . . . ... .1.1.G c.vXNXDXJXFXZXHX"
};
