/* XPM */
static char *_7517269d25248c5c236f14366fc8b4aeISztX8xinGPJ4bJ[] = {
/* columns rows colors chars-per-pixel */
"73 73 256 2 ",
"   c #170702",
".  c #1A1408",
"X  c #0F1012",
"o  c #250904",
"O  c #241407",
"+  c #271A16",
"@  c #331510",
"#  c #3B2516",
"$  c #2B201D",
"%  c #021129",
"&  c #092A29",
"*  c #342A26",
"=  c #1E1B1B",
"-  c #4E362D",
";  c #743233",
":  c #4B221F",
">  c #584632",
",  c #7D4E3A",
"<  c #784D36",
"1  c #785438",
"2  c #714E30",
"3  c #05364F",
"4  c #712F48",
"5  c #6C3A68",
"6  c #094D5A",
"7  c #154572",
"8  c #325875",
"9  c #306B72",
"0  c #076475",
"q  c #54544C",
"w  c #765446",
"e  c #6D504F",
"r  c #786352",
"t  c #50576F",
"y  c #70516E",
"u  c #4B6A71",
"i  c #726E6F",
"p  c #426257",
"a  c #9A1A1A",
"s  c #8C160F",
"d  c #A81A19",
"f  c #B7161A",
"g  c #AE0D19",
"h  c #9A241B",
"j  c #B7231A",
"k  c #961B2C",
"l  c #A91A27",
"z  c #BD1C24",
"x  c #B81B28",
"c  c #B11A34",
"v  c #952C31",
"b  c #A72627",
"n  c #B72628",
"m  c #A92535",
"M  c #B62736",
"N  c #B03938",
"B  c #CD1C1D",
"V  c #C7191A",
"C  c #D41C1D",
"Z  c #D81A1B",
"A  c #CF0C19",
"S  c #E1171D",
"D  c #CC251C",
"F  c #D4221B",
"G  c #CB1C23",
"H  c #CD1D2B",
"J  c #C51A25",
"K  c #DB1623",
"L  c #D41D24",
"P  c #DB1B23",
"I  c #D41D2A",
"U  c #DB1B2A",
"Y  c #D71627",
"T  c #C91C33",
"R  c #D81C33",
"E  c #D50E26",
"W  c #E11923",
"Q  c #E31928",
"!  c #E61B34",
"~  c #CD2224",
"^  c #CC232B",
"/  c #C52629",
"(  c #D22223",
")  c #D3232C",
"_  c #DB232B",
"`  c #D92426",
"'  c #C92634",
"]  c #D72634",
"[  c #C63638",
"{  c #D43436",
"}  c #E5222C",
"|  c #E42635",
" . c #F0263E",
".. c #854A39",
"X. c #815238",
"o. c #884C2C",
"O. c #A44138",
"+. c #943650",
"@. c #B02F45",
"#. c #9A1E42",
"$. c #C83847",
"%. c #DA3748",
"&. c #8E4E4A",
"*. c #B74E4E",
"=. c #8D536C",
"-. c #8F736F",
";. c #9F635C",
":. c #C44646",
">. c #D05053",
",. c #EA596B",
"<. c #D16F72",
"1. c #EC6F72",
"2. c #D35A5F",
"3. c #CB423A",
"4. c #3E857D",
"5. c #96857B",
"6. c #B38E7D",
"7. c #EB887C",
"8. c #CE847B",
"9. c #34718E",
"0. c #357EAC",
"q. c #506E90",
"w. c #6A7092",
"e. c #6B6799",
"r. c #986D8F",
"t. c #EC7384",
"y. c #3291B0",
"u. c #19A8BC",
"i. c #35A3BC",
"p. c #258798",
"a. c #4A86A6",
"s. c #4888B7",
"d. c #4E91B6",
"f. c #6690AF",
"g. c #5598A8",
"h. c #139CD4",
"j. c #289CC8",
"k. c #3899C8",
"l. c #259CD8",
"z. c #3293D0",
"x. c #05A9DA",
"c. c #16A7D9",
"v. c #01B3DB",
"b. c #13ACCA",
"n. c #2AA2C9",
"m. c #35A2C9",
"M. c #24A6D9",
"N. c #37A6D5",
"B. c #21B6D4",
"V. c #0C9EE7",
"C. c #02ACE4",
"Z. c #03A6EB",
"A. c #02ACEB",
"S. c #0AABEC",
"D. c #0AA7E5",
"F. c #15A8E5",
"G. c #01B2E4",
"H. c #01B2EB",
"J. c #08B3E9",
"K. c #02ABF3",
"L. c #02ACFB",
"P. c #06A7F6",
"I. c #01B2F4",
"U. c #05B3FA",
"Y. c #15ADF0",
"T. c #28A8E6",
"R. c #36A8E5",
"E. c #2798E8",
"W. c #4B98CE",
"Q. c #4FABD3",
"!. c #6EB0D3",
"~. c #599CD7",
"^. c #73CCF1",
"/. c #69C6DD",
"(. c #00C2E5",
"). c #A9958B",
"_. c #AF8F8C",
"`. c #A8A69F",
"'. c #D08D8A",
"]. c #F18F92",
"[. c #FDA597",
"{. c #E9AB99",
"}. c #F996A5",
"|. c #D5B3AB",
" X c #FCAAA7",
".X c #FBB7AA",
"XX c #FDB8B7",
"oX c #EEB1AE",
"OX c #CB97A1",
"+X c #DEC5B6",
"@X c #EBC8B7",
"#X c #FFC4BC",
"$X c #F4CCBB",
"%X c #FCCDBC",
"&X c #F8C7B6",
"*X c #ECD3BA",
"=X c #F5D1BD",
"-X c #FCD2BD",
";X c #FCD7B8",
":X c #F1C9AB",
">X c #DAC09D",
",X c #95B3CE",
"<X c #95B8DD",
"1X c #EDBCCB",
"2X c #92D7F2",
"3X c #B3D0EB",
"4X c #B4F0FE",
"5X c #A4D4DA",
"6X c #D3D2CE",
"7X c #E9CBC6",
"8X c #F5CDC2",
"9X c #FECEC2",
"0X c #FDCBCA",
"qX c #EBD3C8",
"wX c #F5D3C3",
"eX c #FCD3C3",
"rX c #FDDAC5",
"tX c #F4D4CA",
"yX c #FDD5CA",
"uX c #FEDBCB",
"iX c #F3DAC7",
"pX c #E8DBD7",
"aX c #FEDCD2",
"sX c #FCD5D6",
"dX c #FACDD5",
"fX c #FCE3CA",
"gX c #FDE4D7",
"hX c #EEE8D8",
"jX c #D0DAE9",
"kX c #F0D9E4",
"lX c #D9FDFF",
"zX c #D0EBF1",
"xX c #E8E9E6",
"cX c #FFEDEB",
"vX c #FBE8E6",
"bX c #ECF7E9",
"nX c #F3F4ED",
"mX c #FDF3EC",
"MX c None",
"NX c #FAF6E7",
"BX c #FEEDF3",
"VX c #FAECF7",
"CX c #ECFBF5",
"ZX c None",
"AX c #ECFCFA",
"SX c #EAF6F7",
"DX c None",
"FX c #FCF4F4",
"GX c None",
"HX c #FDFAF4",
"JX c #F6F6F9",
"KX c #FCF4FB",
"LX c #F3FBFB",
"PX c #FBFBFB",
"IX c #EAEAF5",
"UX c #DDE9D4",
/* pixels */
"XX@.( Q ` C ( ( A ,.;X*XeX%X=XeXeXrX%X&XyX8X@XgXi `.cXvXtXwX&XrX9XwXwX-XwX=XeX-XrX&XaX8X8XaXqXhXpXpXi ).gX>XiX=XrX%XrX%X&XeX%X%X.Xj D ` ~ ^ x ,.KX",
"#XN ~ U L ( P ( C 2.-X*X-XeX=XrXrXoXrXrX$XgX-.).).  e e qXtXrX%X9XeXeXwX=XeX=XeX%XyX&XyXyXqXqX5.* * $ ).2 ).gX=XrX%XyX9X9XrX%XeX[.j D ~ ) ^ x t.KX",
"8XN J _ B ( C ` Z :.%X=X-XeX-XeXeXuX&XrX$X+X+X# - o q e - 8X=XeXeXeXwX=X=XeXeXeX%XyX&XyXtX7XOX+ |.q + . w gX6.rX9X9XeX%XyXrX&XrX].j ~ C _ ( m  XFX",
"uXN J ] V ~ C Q Y ' .XrX=XeX-X-X-XeX$X$X=Xr -.i X . `.`.  ).gXwXwX-X-XwXwX=XeX-XyX8XyXeXtXtXr   ).q . # 1 > 6.rX%XrX8X$XrX-X&XeX1.D ~ L } J N aXFX",
"gX*.J ] V ) A Q K / [.rXwXwX-XeX-XrXfX=XiX@Xq   * X =   . r iXwXeX-X-X-X-X-X-XeXeX&XaX8XsXqX- O = X + + @ 6.gX$X=XyX8X8XeX$X-XeX>.D F P } z *.NXmX",
"NX;.n _ D ~ Z W K / t.yX%XeX$XeXrX|.$XfX*XiXfX).- . $ *   q mX@X%X-X-X-X-X=X-X-X%XyXyX8XaX|.- + = X + 5.@XNX=XyX9XyXwXeX9X-XrX#X3.V F L Q n '.MXNX",
"NX8./ Q ~ ) C Z U J >.XX#XrX=XrXrXeXfX$XrX@XqXFXr.X = + + - gX*XeX%X-X-X;X-X-XwXeXyX8XwXtX+X- . $ = . ).gXwX@X%XwXyXwXrX-XeXeX[.n B P Y H $.eXNXNX",
"NX'.z P ( ( P C ~ J [ XX#XrXwXrX$XrX@X=X$XaX@XpX).  $ + O e iXiX-X-X-X-X-X=X-X-XeX$X0X8XtXaX>   = $ + +XtXeXrXrXyX=X$XrX%X-X&X7.j ` } I x >.MXhXSX",
"HXXXT ! L P _ V ) / g ].XXrX*XwX=XeX-X-X9XeXtXtX|.@ $ $   ).tXwXrX%X&X-X;X=X;XeXeXwXeX8XtXtX-.  * . q qXwXwX@XrXyX=XrX&X9X9X.X*.j ` Q I b XXmXbXCX",
"MXvX$.R E P L ( / J I $.#X#X@XfXeXeX9X-X-X9X9XtXgXe o   - @XtX$X%X%X-X-X:XoX:X=X-X-X9X8XeXgX|.e   # _.gXaX%XeX-X*XrX&XrXXX9X[.h n B U ] *.vXmXGXCX",
"GXmX1.x R K B ~ D ^ ( x ].eX:X=XeX%XeX%X%XeX9X9XsXqX-.e |.gX$XuX%X-XeX-X:X+X@X;X-X%XeX9X8XaXqX|.-.`.aXwX9X@XuX=X=X$XrX%X#X#X>.d n B T M }.DXFXnXCX",
"CXmX Xc ] I L G ~ ^ G ] [ XXfX:XeX9X9X9X-X9X9XyX7XsXsXgX0X8XrX&XeXeXeX-X;X$X$XrX-X$X9XrX8XwXuXtXvXaXaX@XrX$XeX*XrX@XrX#X%X7.j / / [ x :.DXvXFXFXCX",
"GXmXvX*.x ] ( ( ( A I I J 1.eX&X%XyX%X-X-X9X9XeX8XtXaXtXuXwX$X-XyX%X&XwXrX-X=X;X-X%X-XrX9X$XeXwX8X7X$XeXrX-X&X;X;XrX&X#X X[ D ~ J M @.XXFXKXVXJXCX",
"GXFXFX}.l T B ` ` L L ) ( n [.eXeXeXeX-X%X-X%XeXaXoXtXwX=XrXrX-X%X%XeXwX=X=X=X-X-X-X%X%XeX%X$XwXtXaX9XyX%X%X;XrX*XrX%X$X2.f ` L H a '.mXcXKXKXJXJX",
"JXDXHXyX2.z G P P } L ] I V 3.[.eXwXwX-X-X-X-XeX@XuXuX@XfX=X:X-XeXyXrXwX=X*X=X-X-X-X-X%X-XeX-XwX$XyX%X9X&X;X;X=X$X;X=X7.b ^ K ! ] *.sXcXVXKXPXJXJX",
"PXGXnXHXXXm { E K Z P B ) ( f :.#X-X-X-X-X-X=X=XwXuXiX@XeX;XrX$XeXeX9X9XwXrXwX=X&XyXrX%XeXeX%X9XyX9XeXeX%X-X;X;X%X-X7.b / _ Z Y ' XXHXnXKXPXIXPXJX",
"DXPXxXFXBX].c T Y Q C B F ( G / O..X;X&XfX;X+XfXwXwXtXeX%XyXrX*XwX*XoX9X9X8XuXeXsX7X8XaXiXwXrX%X9XeXeX*X=XeXeX&XrX].n J | E U x XXgXKXFXDXJXJXDXDX",
"FXFXPXJXBXvX].c T L ` B V F } E f >.[.&X&X;XfX*XwXeXrXaXeXeXrXwXqX*X&X9XyXyXtX8XoXXX0XwX*XiXrX-X%X%X$XrXaX9X%XuX<.h ] E E | c ].vXPXPXJXDXJXDXDXDX",
"FXvXPXLXxXPXkXt.b x G ` | Z A | { d n ].%XeX&X;XrX$X@X$XwXwXwXiXrX%X.X{..XuX;X:XoXeXuXrX*X=X%X&XrX-XeX#X#XrX.X2./ H A  .R l '.NXFXPXDXnXDXDXJXDXDX",
"FXFXGXAXAXGXDXVX].*.d ^ ` U ! Y V { / j 2. XyX%X%X-XeXeXrXeX$XwX$XrXrX.X.X:X{.>XeX9X@X$XiX;X;X;X*XrX#X#X0X[.:.d G L  .H g 7.NXbXnXnXIXDXFXDXDXDXJX",
"FXPXGXIXLXLXnXmXmX#X2.a M ' T H I V L ) J [ 1. X#XeX%X&X-XeX-X8X0X8X%XeX;X;X:XfX%X9XrXyXrX*X:X;X;X%XyX X%.f J ' J ^ H d ].mXpXGXGXDXDXPXDXDXDXFXDX",
"PXGXGXLXLXJXnXnXvXmXNX X*.l M c I L Y L L J n [ 1. X9X9X9X%X#XtXyX0X%X%X&X:X;X:X;X%X#X.X#XsXuX%X.X[.:.x U ! Y G ^ j $.[.cXNXGXGXPXJXDXDXDXnXDXPXDX",
"GXbXJXPXVXVXVXPXPXmXgXgXcXXX<.@.J ` C C ] ) / / b N >.1. X[.2.O.O.1..XaX-XeXNX;X7.O.h a @.t.}.t.*.b f | | K Q Q V 3.[.gXvXPXPXVXFXDXDXDXIXDXPXJXDX",
"nXPXJXnXKXKXVXFXBXHXPXmXcXBXcXyX1.V V | V B ] J / / b b n a s h h ; v ].{.8.].O.h s d f g c M c b / _ K Y P W W ` n [.NXNXvXKXVXJXDXDXDXDXPXDXDXDX",
"VXKXJXPXLXGXKXKXVXVXDXnXNXMXNXeX) ` ` ( B ~ V G I L ^ / x d h h h h s a n n l s a a h h l a b [ ^ ( L P L P K S Q V b oXMXnXPXVXJXDXDXDXDXDXDXDXDX",
"VXKXGXAXAXCXKXKXKXKXGXPXbXNXmX<./ P F ~ ~ ~ ~ ( U U U L z d d h h h d n ^ ^ ] T l k a a a d n n H L L L P P Z L Q A ' *.&XFXJXJXPXDXDXDXJXDXDXDXDX",
"KXFXCXZXZXAXKXKXKXPXSXLXmXvXoXb G K L L ~ ~ ( ` K P U I V d a b f f f z T T T x l l l d d d j D ( P P P ( ~ D C Z Q U x 2.vXFXGXDXDXDXDXDXDXDXDXDX",
"KXGXCXCXAXAXKXKXJXLXSXbXmXsX*.x I W P L L D ( P K P Q L f f a h d d k #.+.+.+.#.k k l f f V V D C P W P L ~ / D ` | A ] k ].FXDXDXDXJXDXDXDXPXDXDX",
"DXDXGXCXGXHXJXJXSXLXSXcXmX].g ] Q Q L P L C C P P P I ` H x d l s v e q.s.s.s.q.q ; a f A S I I L P W W L L ~ ~ ~ G Y | ' @.0XBXmXDXDXDXDXDXDXDXDX",
"GXPXGXFXnXFXDXJXAXSXJXFXaX@.J U P ` U L P L P ` P Z L I ~ / x l 4 w.q.k.T.D.T.N.a.t 4 k H ! ! Y P Z P P U L ~ / D V U K ] g <.cXFXDXJXDXDXJXDXDXDX",
"JXDXFXFXFXmXGXPXLXIXKXBX].a ] C ~ ~ L L P P P Q P P L ( H H H +.w.j.l.Y.P.V.P.F.T.W.w.y @.T Q S Z Z L L U U I L J L W W I ' m #XmXDXDXDXDXDXDXDXDX",
"DXKXFXFXFXHXDXGXLXFXBXsX*.x ( ( ~ ~ ~ I ~ L P Z _ Z F L L T @.=.W.F.Z.P.P.P.P.P.Z.T.k.e.+.M L } W Z ~ L U U P L L B } A U ) b <.cXFXDXDXJXPXJXJXJX",
"GXDXFXVXJXKXJXSXZXHXFX}.M ' I B ~ ( R H / / I P S Z V F R @.5 ~.c.Z.S.P.S.Z.P.P.P.D.F.d.r.M ( Z S P L ~ L P Q W C C P P W R ] N 0XPXDXDXDXJXPXSXJX",
"CXDXKXVXKXKXJXGXAXnXcX,.x I ) P L I U H n / ( L Z Z F F ! @.e.z.F.Z.S.S.S.I.L.L.L.x.x.W.1X*.F } W W G ~ ( L P P C F F P W K R M oXGXnXDXKXKXJXAXJX",
"GXGXFXJXKXKXJXSXCXNXsX@.z R L U P P R H ~ ~ L L Z L C F E 2.,Xk.c.C.C.x.C.H.L.P.I.J.u./.VX<.J S W P ~ ~ L I P P ( F L L W K H c <.NXmXDXJXJXLXJXJX",
"GXDXJXJXKXKXJXGXbXMX Xc T I L L Z P I H ^ ~ L L G } A H l }.3Xd.F.I.G.C.A.H.I.A.C.v.p.5XkXXX>.A W Z ~ ~ ( L P P ( ~ ( P W W L n @.sXmXnXJXJXIXPXLX",
"DXDXCXGXKXKXDXGXbXFX1.x ] L B C S W I ( I U P P ( ( Z D O.dXxXd.V.L.S.S.C.H.G.G.S.n.!.UX7XyX7.j L Z G ( L L L L ( ~ L L K P P ^ c XXcXbXDXLXDXKXLX",
"FXDXSXSXJXJXDXFXMXvX$.R ] V L F S S ) H U U K P ) V ` f 1.aXkX!.k.l.W.z.k.n.n.m.z.y.5XhX*XeX Xn ~ ( ` L L L L L ( ~ L U K Q ` ) x }.cXnXGXPXnXJXJX",
"FXGXAXAXDXJXDXFXKXdXM R ] B F F Z Z I ~ U K Q P ~ D ^ M  XyXpX6Xt y 4 +.4 5 5 y y y qX*XrXeXXX$./ ~ L L L L L I ~ I L P W W Z ` E ,.NXbXbXLXDXDXGX",
"FXDXZXAXDXFXDXFXcXXXT E _ F F V F P ( H U K W Z G ^ n 2.yX8X@XgX5 4 : ; 4 4 4 4 4 r.aX:X-X0XOXv M ~ L L P W L I G I U P W K Z C U %.mXNXbXGXnXFXSX",
"KXFXZXZXDXFXnXmXHX{.T E ! U D V F F H ~ I I Q W _ / m <.kXdX=XiX`.q.q.q.9.q.q.e.i 1X7XiXdXjXf.t +.z I P K P C L H I Y K Y Z Z P E %.sXNXbXGXPXDXGX",
"VXJXCXCXDXnXnXmXPX'.T ! Y A D ` F F L ( H H Z S Q x +.-.kXdX=XqXzXf.i.m.j.N.R.s.,X7XpXqXpX3XW.d.&.n R U W Q C L G L ! ! | } F L U $.sXHXMXxXnXPXGX",
"KXJXGXAXGXFXFXmXmX<.x ! ! L ( D D ~ ( I ^ ( Z S P M &.w.6XkXdX=XUX,Xu.c.D.E.R.d.6XiXrXqXkX<XE.~.=.c T ! W W Z ` U R U Y L F B B J M rXMXbXnXHXHXCX",
"KXDXSXGXDXFXnXNXDXt.c R Y ` ] D D D L I I ) F Z ! M y w.,XkXdX&X*X6Xu.v.L.V.l.W.6X:XeXqXIX~.E.~.r.@.T U Q S F F _ U U Y I ) / / [ @.yXmXbXPXGXIXCX",
"JXDXDXDXDXFXmXmXmX_.x %.E B ~ D B D U Y I L C C K M q.f.~.jXqX;X-XUXQ.v.U.U.b./.UX>X;X*X5Xi.x.R.e.+.T R Q W D D V H R R ' ' n n m v @XHXFXPXSXLXCX",
"JXDXDXFXDXnXmXmXMX_.k ] | R ] ) ( C U U U U F F K @.q.W.W.3XpX-X#XpX^.b.K.S.u.5XUX*X;X6X5Xu.v.M.w.+.@.T U Z V D ` _ R R T n n b v &.7XmXcXFXGXLXGX",
"DXDXVXFXDXDXFXcXvX'.m c J E ~ ~ L P U U Q _ D D P @.q.N.z.!.pXqX%XiX3XN.V.M.!.zX*XyXtXjXQ.b.G.l.e.+.@.T U F D / V G Y J x M :.>.].$XmXFXBXKXLXSXCX",
"JXJXDXFXDXDXmXmXcXcX0X}.,.>.@.n x x c M M m N v #.5 0.l.z.~.zX7X;XwXzX!.h.j.,XpXyXaXkX3XB.v.K.T.W.y 5 +.+.N ..N *.>.,.t.}..XtXNXmXmXcXFXFXFXLXLXGX",
"KXKXLXGXGXGXmXmXBXFXFXKXFXBXsXsXoX|.OXy e.e.q.e.q.0.l.F.V.l.3XkX0X%XUX5Xu.B.jXaX%XaX6X<Xj.c.K.Y.l.z.z.0.d.a.d.4XVXVXVXVXVXFXFXcXFXmXFXFXFXJXDXGXDX",
"KXKXLXAXGXFXFXFXcXFXSXZXAXLXKXKXHXPX3Xf.~.W.R.N.l.l.x.S.K.h.!.kX0X8XhX6Xy.d.pX-XrX6XjX!.j.S.K.A.K.P.Y.V.F.B.c.^.lXKXIXJXFXFXFXDXDXDXDXDXDXDXPXDXDX",
"KXKXLXSXGXGXFXBXFXFXSXAXAXSXKXKXbXlXQ.h.D.x.V.V.Y.x.x.J.H.x.Q.jXkX7XuXqXi `.fX;XpXjX2Xi.x.H.H.H.K.Z.Y.V.F.J.x.n.4XLXIXVXnXnXDXPXDXDXDXDXDXJXDXDXDX",
"KXJXGXLXGXGXFXFXKXKXLXLXAXDXnXDXAX4Xc.Z.K.K.L.L.x.x.F.x.v.b.g.,XIX7XfXfX5.6.;X;X6XSXg.y.M.G.v.H.I.Z.S.D.x.x.x.j.^.AXAXKXHXHXDXLXJXJXDXDXDXDXDXDXDX",
"JXJXPXCXCXPXJXKXVXDXGXCXGXDXFXJXlX^.x.L.Z.K.L.L.S.c.V.h.M.i.q.i 7XqX7XhX`.6XfX@XkX6Xt 8 a.i.c.A.U.Z.S.C.C.G.J.c.N.4XAXGXGXHXCXAXDXDXDXDXDXDXDXJXDX",
"HXDXGXCXGXSXJXKXDXDXDXDXGXDXFXAXlXQ.V.I.x.K.L.L.Y.F.V.l.d.q.9 9 `.UXUX6X5X3XhXsXzXf.q.t q.9.j.F.A.C.Z.J.H.A.C.F.M.2XZXCXbXHXLXSXPXDXDXJXPXDXDXDXJX",
"FXGXGXGXAXLXJXJXJXJXJXFXnXDXFXZX2XE.x.v.x.C.A.P.P.Y.D.i.q.t 9.p.g.2XzX2XN.Q.3XIX<Xj.N.y.9.t 9.i.F.S.C.S.I.A.C.x.F./.lXGXnXDXLXLXDXDXDXDXDXDXDXDXDX",
"MXmXGXGXLXLXLXJXDXDXDXDXDXGXPXZX^.c.D.x.v.v.A.K.P.P.h.p.9 q.n.v.b.l.W.z.V.E.~.W.l.F.x.h.y.q.8 a.j.S.x.C.I.I.C.C.P.l.4XAXnXDXLXAXJXJXDXDXDXDXJXHXDX",
"MXnXFXPXLXLXSXJXDXFXnXJXKXLXAXlXk.F.H.H.v.v.H.I.U.c.a.9 9.u.F.x.S.D.F.D.x.x.b.c.S.S.A.x.c.y.9 u y.F.c.S.K.K.J.Z.L.h.2XlXLXnXDXLXJXDXDXDXDXDXDXDXDX",
"MXNXGXJXJXLXLXPXDXFXnXFXKXSXZX4Xz.F.K.K.x.v.H.H.U.c.q.9 p.x.U.U.K.H.K.K.C.C.v.v.S.Z.C.A.U.M.u u p.j.h.S.L.L.S.Z.L.F.!.lXLXHXVXPXJXDXDXDXDXPXDXDXDX",
"GXnXDXJXJXJXPXSXDXHXmXnXSXSXlX^.l.V.P.L.K.A.C.x.S.l.9.q.M.Y.V.P.A.H.A.L.P.K.G.v.x.v.C.Z.L.Y.y.8 9.i.c.S.K.K.Y.Z.L.S.k.4XSXPXDXJXJXDXDXDXDXDXDXJXDX",
"MXGXJXKXJXJXDXGXnXHXFXDXLXZXlX~.h.P.L.L.P.P.C.x.l.z.7 q.N.T.F.T.T.T.T.T.E.T.B.b.b.B.c.F.P.E.R.9.8 y.c.S.K.L.Y.D.K.Z.j.4XZXKXDXJXDXDXDXPXDXDXDXDXDX",
"GXGXHXJXKXKXJXGXnXMXFXJXAXlX4Xm.D.U.K.P.P.P.G.x.N.0.9.~.k.y.p.9.7 7 7 7 7 7 6 6 6 0 9.9.y.j.i.4.p a.b.Z.K.S.S.D.A.H.x.^.ZXDXJXDXDXDXDXDXDXDXDXJXPX",
"CXGXKXKXKXKXJXHXNXmXcXJXAXlX4Xm.J.I.I.K.P.S.A.x.y.9.9.q.6 & % % % X % % % % X X % % % % % 6 4.4.p u M.A.K.P.D.S.H.S.S./.ZXIXPXmXDXDXDXDXPXDXDXDXDX",
"CXGXJXKXKXKXHXnXMXNXmXPXlXlX^.h.x.G.H.A.C.S.L.P.n.9 p $   X . &   . = = . . . X = % . . = % & & q u n.K.Z.P.D.S.G.C.I.R.lXGXGXGXFXGXDXDXDXDXDXDXDX",
"CXPXKXKXKXJXFXDXMXNXnXPXIXlX,Xy.c.x.A.C.G.A.L.F.u.9 q   O O X X . . . O . . . . $ o o o @ o . > 1 u b.A.A.K.Z.A.D.c.l.W.lXLXmXFXDXJXDXDXDXDXDXDXDX",
"GXLXJXKXKXKXFXDXDXnXHXmXBXKXr.w.~.F.U.S.G.H.x.c.m.9.q 2 - O   . . . . . o   o o o   o . @ - 2 w e u u.(.G.A.K.A.R.W.f.e.jXKXFXBXFXDXGXDXJXDXDXDXDX",
"LXLXJXJXVXKXFXDXGXbXPXHXcXBX;.y e.z.y.n.h.D.Y.h.i.9.t w 1 > > > # # # # : # # @ # # > > 2 w X.e y q.u.v.v.F.Y.W.e.e.#.+.xXLXMXmXFXDXDXDXDXDXDXJXDX",
"AXJXJXKXKXKXKXDXGXGXnXFXBXVX;.4 v +.-.w.s.~.R.E.M.p.e , 2 o.2 2 1 w 1 w , w w e w r 1 1 1 w &.e q.0.b.b.N.W.e.r.v @.n *.fXbXbXGXDXDXDXJXDXDXDXDXDX",
"JXLXJXKXKXFXPXDXCXPXbXnXcXKXOX; N ~ b +.5 e.e.s.~.f.y , 2 2 o.o.2 1 2 < , w w < 2 w 2 2 1 1 , e q.f.d.a.a.y +.#.{ ~ j <.fXNXbXbXDXDXDXDXDXPXDXDXDX",
"GXJXJXJXKXKXDXDXbXLXbXPXFXBXdX&.d ` V / $.#.#.=.=.=.&.X.1 o.o.o.1 1 1 , < &.X., 1 r 1 1 1 2 1 < =.-.=.v c M ^ ] M d N XXFXBXKXPXJXDXDXDXDXDXDXPXPX",
"LXPXKXHXFXKXPXDXLXCXbXPXFXkXKXoX3.V f a %.,.c @.v N &.o.2 2 &.X.o.2 2 o.< < , < 2 2 2 X.1 o.&.v *.m l >.,.%.x l m *.oXmXBXVXKXKXKXDXDXPXDXDXDXDXDX",
"JXJXKXKXJXKXDXGXLXCXbXDXFXvXPXFX0Xt._.6.&XcX<.k [ ] / N ..< &.&.o.X.X.X.....X., 1 o.1 X.2 2 , ; k s &..XNXfXoXoXXXdXKXDXDXJXPXDXDXDXDXDXJXDXDXDXDX",
"JXJXJXDXKXJXGXPXbXLXGXDXDXPXkXBXcXBXNXHXHXcXsX2.c z x n ..1 1 1 < < < , , , X.X.X.2 2 X.2 ;.|.{.t.}.yXNXNXbXHXFXKXVXKXIXLXLXxXPXDXJXDXDXDXDXDXDXDX",
"PXJXJXJXJXJXDXPXGXCXGXGXDXFXFXBXVXVXVXAXSXGXmXmX}.<.2.<..X>X1 1 1 , , < , , , , 1 1 1 1 &.$XFXBXSXVXKXVXJXGXGXDXVXKXKXJXSXCXbXbXGXDXDXDXDXDXDXDXDX"
};
